<?xml version="1.0" encoding="UTF-8" standalone="no"?>
<!-- Created with Inkscape (http://www.inkscape.org/) -->

<svg
   width="210mm"
   height="297mm"
   viewBox="0 0 210 297"
   version="1.1"
   id="svg5"
   xml:space="preserve"
   inkscape:version="1.2.2 (732a01da63, 2022-12-09)"
   sodipodi:docname="logo_traces.svg"
   xmlns:inkscape="http://www.inkscape.org/namespaces/inkscape"
   xmlns:sodipodi="http://sodipodi.sourceforge.net/DTD/sodipodi-0.dtd"
   xmlns="http://www.w3.org/2000/svg"
   xmlns:svg="http://www.w3.org/2000/svg"><sodipodi:namedview
     id="namedview7"
     pagecolor="#ffffff"
     bordercolor="#666666"
     borderopacity="1.0"
     inkscape:showpageshadow="2"
     inkscape:pageopacity="0.0"
     inkscape:pagecheckerboard="0"
     inkscape:deskcolor="#d1d1d1"
     inkscape:document-units="mm"
     showgrid="false"
     inkscape:zoom="0.2973261"
     inkscape:cx="691.16031"
     inkscape:cy="-512.90485"
     inkscape:window-width="3200"
     inkscape:window-height="1722"
     inkscape:window-x="4792"
     inkscape:window-y="-8"
     inkscape:window-maximized="1"
     inkscape:current-layer="layer1" /><defs
     id="defs2" /><g
     inkscape:label="Layer 1"
     inkscape:groupmode="layer"
     id="layer1"><rect
       style="fill:#000000;stroke:#ffffff;stroke-width:1;stroke-linecap:square"
       id="rect354"
       width="210"
       height="216.77225"
       x="0"
       y="0" /><path
       style="fill:#ffffff;stroke-width:1"
       d="m 175.35414,177.4922 -1.54625,-0.51192 -1.41722,-0.94098 -1.41722,-0.94098 -1.06162,-1.40611 -1.06163,-1.40612 -0.6541,-1.47903 -0.6541,-1.47903 -0.41403,-2.00448 -0.41404,-2.00449 v -0.93719 -0.9372 h -0.26458 -0.26459 v -1.05833 -1.05834 h -15.42902 -15.42901 l -3.29026,-2.40117 -3.29025,-2.40117 -0.62776,-0.57539 -0.62776,-0.57539 -0.98511,-1.32292 -0.98509,-1.32291 -0.44798,-0.86672 -0.44798,-0.86671 -1.02363,-2.83745 -1.02363,-2.83746 -0.18498,-0.46302 -0.18499,-0.46302 -2.81596,-0.006 -2.81596,-0.006 -1.05834,-0.48245 -1.05833,-0.48244 -0.8599,-0.72589 -0.85989,-0.72589 v -1.54281 -1.54282 l 2.3353,-1.71406 2.33529,-1.71406 1.43485,-2.4445 1.43486,-2.4445 1.05849,-0.85843 1.0585,-0.85843 1.45521,-0.72666 1.45521,-0.72667 3.12055,-3.02403 3.12055,-3.02404 0.98049,0.0814 0.98049,0.0814 0.0815,1.27808 0.0815,1.27808 -0.40524,2.53971 -0.40523,2.53971 0.21591,0.28325 0.21592,0.28325 3.12085,4.05967 3.12085,4.05966 1.02674,0.74377 1.02673,0.74376 1.25189,0.2727 1.25188,0.27269 6.08542,0.14205 6.08542,0.14205 5.02708,0.65657 5.02708,0.65656 2.64584,0.89881 2.64583,0.89881 1.09226,0.55758 1.09226,0.55758 1.10346,1.2536 1.10347,1.25361 1.05394,2.13089 1.05395,2.1309 1.28322,5.15937 1.28322,5.15938 0.68903,1.6904 0.68903,1.6904 0.71268,1.22002 0.71268,1.22001 1.47374,1.55316 1.47373,1.55315 1.53561,1.04608 1.53561,1.04607 -0.0804,1.10302 -0.0804,1.10303 -1.32292,0.86797 -1.32292,0.86797 -2.11666,0.68149 -2.11667,0.68148 -2.77813,0.10979 -2.77812,0.10979 -1.54625,-0.51193 z m 6.8064,-4.03419 1.02682,-0.2628 -0.91501,-0.97267 -0.91502,-0.97266 -0.82899,-1.08325 -0.82899,-1.08326 -1.04181,-2.15433 -1.04181,-2.15433 -0.16466,0.42909 -0.16466,0.42909 -0.16841,2.37265 -0.16841,2.37264 -0.95064,-0.15257 -0.95064,-0.15257 -1.65212,-0.64809 -1.65211,-0.64809 0.30134,0.57505 0.30133,0.57505 0.75979,0.96959 0.7598,0.96958 1.25244,0.73559 1.25244,0.73559 1.32292,0.32863 1.32292,0.32862 1.05833,-0.13687 1.05833,-0.13687 z m -89.586877,-12.39336 -1.512141,-0.19398 -0.869109,-0.3272 -0.869108,-0.3272 -0.661459,-0.29594 -0.661458,-0.29594 -1.190625,-0.77464 -1.190625,-0.77465 -1.254001,-1.28729 -1.253998,-1.28729 -0.699193,-1.37979 -0.699191,-1.37979 -0.477776,-1.38868 -0.477777,-1.38868 -0.183068,-2.49398 -0.18307,-2.49398 1.555702,-0.31997 1.555705,-0.31997 1.322917,-0.49954 1.322917,-0.49953 0.69138,-1.4e-4 0.69138,-1.3e-4 0.137827,1.71702 0.137826,1.71703 0.924619,1.92099 0.924618,1.921 1.421175,1.41001 1.421175,1.41001 1.98437,0.97124 1.98438,0.97124 14.217305,0.13229 14.2173,0.13229 3.04676,2.21148 3.04676,2.21147 v 0.6328 0.63279 l -18.45469,-0.0347 -18.454685,-0.0347 z M 21.986845,140.75096 v -19.78329 l -2.013763,-1.82386 -2.013764,-1.82386 -1.716295,-2.00691 -1.716295,-2.00691 -1.775979,-2.65103 -1.775979,-2.65104 -1.3532505,-2.77292 -1.35325,-2.77293 -0.933834,-2.702859 -0.933834,-2.70286 -0.513291,-2.19193 -0.51329,-2.19193 -0.358692,-1.98438 -0.358693,-1.98437 0.0067,-7.27605 0.0066,-7.27604 0.473527,-2.51354 0.473526,-2.51354 0.635371,-2.26899 0.635372,-2.26899 0.909626,-2.38363 0.909626,-2.38363 0.960553,-1.9074 0.9605545,-1.90741 1.22109,-1.90664 1.22109,-1.90664 1.514546,-1.98438 1.514546,-1.984374 2.312626,-2.316557 2.312626,-2.316557 2.417057,-1.800786 2.417057,-1.800786 2.390215,-1.372647 2.390216,-1.372648 2.239992,-0.910598 2.239994,-0.910598 2.318869,-0.669528 2.31887,-0.669531 2.44363,-0.448405 2.443631,-0.448406 4.894792,-0.0029 4.894792,-0.0029 2.513541,0.448119 2.513542,0.44812 2.910417,0.839295 2.910417,0.839298 3.704166,1.87724 3.704167,1.87724 2.248958,1.612503 2.248959,1.612506 2.461778,2.319636 2.461779,2.319637 1.52771,1.879827 1.527709,1.87983 1.331053,1.98438 1.331052,1.98437 1.348627,2.65549 1.348625,2.65549 0.924216,2.39309 0.924213,2.3931 0.543708,2.09754 0.543709,2.09754 0.415119,2.24658 0.415118,2.24659 0.14134,4.36562 0.141342,4.36563 5.49006,10.18646 5.490065,10.186459 0.30232,0.89938 0.30233,0.89938 v 2.04697 2.04697 l -0.74077,1.418 -0.74078,1.41801 -1.17745,0.79502 -1.17746,0.795 -3.902605,0.0852 -3.9026,0.0852 v 5.7785 5.7785 l -0.376298,1.96673 -0.376299,1.96674 -0.707486,1.68091 -0.707485,1.68091 -0.938186,1.46886 -0.938183,1.46886 -1.634093,1.5875 -1.634091,1.5875 -1.480846,0.87857 -1.480844,0.87857 -1.940701,0.68111 -1.940697,0.68111 -5.225521,0.12486 -5.225521,0.12485 v 9.36182 9.36181 H 45.799355 21.986854 Z m 16.440219,-32.11187 0.697511,-0.48551 0.437245,-1.09278 0.437245,-1.09279 -0.284821,-0.86301 -0.284819,-0.86301 -0.519208,-0.46988 -0.519205,-0.46987 v -6.252929 -6.25292 l 3.064711,-3.23107 3.064714,-3.23107 h 0.57993 0.579932 l 1.880611,1.91823 1.880613,1.91823 0.14391,1.16772 0.143909,1.16772 0.499473,0.68436 0.499472,0.68437 1.02094,0.5067 1.02094,0.50671 0.938167,-0.50671 0.93817,-0.5067 0.603504,-0.89902 0.603504,-0.89903 v -0.82549 -0.8255 l -0.644376,-0.94829 -0.644377,-0.94828 -0.744686,-0.28225 -0.744686,-0.28226 -0.710779,-0.15461 -0.710782,-0.15462 -5.043905,-5.32735 -5.043909,-5.32735 v -9.09163 -9.09162 h 4.101042 4.101042 v 3.55626 3.55627 l -0.294566,0.18204 -0.294563,0.18206 -0.511567,1.15648 -0.511567,1.15648 0.52355,1.18357 0.523547,1.18356 0.877895,0.53524 0.877896,0.53523 0.718396,0.001 0.7184,0.001 0.919093,-0.80697 0.919094,-0.80698 0.297778,-0.90228 0.297781,-0.90228 -0.516229,-1.16702 -0.516226,-1.16701 -0.294563,-0.18206 -0.294566,-0.18218 v -5.54064 -5.54063 h -5.820833 -5.820834 v -2.78884 -2.788841 l 0.589299,-0.797068 0.589301,-0.797071 v -1.032952 -1.032952 l -0.540229,-0.738952 -0.540229,-0.738952 -0.986671,-0.490334 -0.986668,-0.490331 -0.75111,0.311118 -0.75111,0.311121 -0.713758,0.745003 -0.713759,0.745004 -0.145965,1.08826 -0.145968,1.08826 0.696352,1.052256 0.696349,1.052256 0.0035,14.094735 0.0035,14.09474 2.245487,2.4779 2.245489,2.47791 v 0.57936 0.57935 l -3.704234,3.94898 -3.704167,3.94907 v 3.64315 3.64315 h -4.368393 -4.368392 l -2.744907,-3.46699 -2.744906,-3.46698 -0.170365,-1.28427 -0.170364,-1.28427 -0.707629,-0.84097 -0.707628,-0.84097 -0.882182,-0.3686 -0.882182,-0.3686 -0.92132,0.43719 -0.92132,0.4372 -0.506364,0.71112 -0.506364,0.71113 -0.169136,0.67389 -0.169135,0.67389 0.386969,0.92614 0.38697,0.92615 0.621089,0.57863 0.621089,0.57864 1.101819,0.27744 1.101819,0.27744 3.38762,4.20848 3.387613,4.208479 h 4.972803 4.972804 v 1.3073 1.30731 l -0.292135,0.18054 -0.292131,0.18055 -0.473803,1.05827 -0.473805,1.05828 0.230452,0.80353 0.230452,0.80354 0.601631,0.65282 0.60163,0.65283 0.765123,0.32856 0.765119,0.32856 0.557797,-0.13796 0.557795,-0.13795 z m -9.0854,-25.008219 0.607944,-0.3837 0.515546,-0.84552 0.515546,-0.84552 0.0011,-0.79848 0.0011,-0.79848 -0.661458,-0.97342 -0.661458,-0.97342 v -5.438 -5.438 h -3.042793 -3.042708 v -3.55626 -3.55626 l 0.268364,-0.16585 0.268364,-0.16586 0.553761,-1.08546 0.55376,-1.08546 -0.296227,-0.98872 -0.296226,-0.98872 -0.93198,-0.81828 -0.932117,-0.81829 h -0.881154 -0.881153 l -0.702426,0.55253 -0.702426,0.55252 -0.420651,0.81345 -0.42065,0.81345 0.139664,1.04128 0.139665,1.04128 0.550856,0.58636 0.550855,0.58636 v 3.62097 3.62096 h -4.093651 -4.09365 l -0.422381,1.52136 -0.422381,1.52135 -0.105873,0.33073 -0.105873,0.33073 h 7.532321 7.532321 v 3.59718 3.59718 l -0.594902,0.83459 -0.594902,0.83459 -4.23e-4,1.10508 -4.23e-4,1.10508 0.547974,0.747 0.547975,0.74701 0.904463,0.46073 0.904463,0.46074 0.531937,-0.15756 0.531938,-0.15755 0.607943,-0.3837 z m 42.521844,-22.96091 0.911752,-0.38095 0.533971,-0.87582 0.533969,-0.87581 0.0011,-0.97189 0.0011,-0.97189 -0.715251,-0.85003 -0.715251,-0.85002 -0.86375,-0.3609 -0.863751,-0.3609 h -0.559581 -0.55958 l -2.227126,-2.0273 -2.227043,-2.0273 V 46.223909 42.330666 L 63.857296,41.799205 62.600525,41.267745 62.005213,41.087336 61.4099,40.906924 v 5.009341 5.009336 l 3.001942,2.9081 3.001941,2.9081 0.16615,1.02388 0.166153,1.02387 0.488736,0.66766 0.488736,0.66767 0.907232,0.46261 0.907235,0.46261 0.206936,5.2e-4 0.206936,5.3e-4 0.911749,-0.38095 z m 90.220212,78.829279 -0.26458,-0.0912 -1.51759,-0.17111 -1.5176,-0.1711 -0.0699,-44.497579 -0.0699,-44.49758 -0.96008,-1.984376 -0.96007,-1.984375 -1.41882,-1.406136 -1.41882,-1.406139 -1.97301,-0.975111 -1.97301,-0.975114 H 123.18997 96.439605 l -1.97509,0.976143 -1.97509,0.976146 -1.482513,1.494367 -1.482513,1.494366 -0.608796,1.299803 -0.608793,1.2998 -0.550087,-2e-6 -0.550085,-6e-6 -1.261107,-1.703879 -1.26111,-1.70388 -1.307309,-1.008094 -1.307309,-1.008097 -0.01127,-0.473562 -0.01127,-0.473562 0.529183,-1.03728 0.52918,-1.037281 1.256757,-1.27586 1.256755,-1.275858 1.190625,-0.804683 1.190625,-0.804683 1.455209,-0.573196 1.455208,-0.573196 1.852083,-0.26195 1.852087,-0.261948 27.740245,-0.0052 27.74026,-0.0052 4.00974,0.823111 4.00975,0.823108 0.92604,0.68979 0.92604,0.68979 1.38606,1.400395 1.38607,1.400392 0.71994,1.386186 0.71995,1.386187 0.48276,1.455208 0.48277,1.455208 0.0571,46.765118 0.0571,46.765099 -1.45521,-0.0209 -1.45521,-0.0209 -0.26458,-0.0912 z m 4.36563,-42.569679 v -17.03804 l 7.26699,-9.03498 7.26698,-9.03498 -1.18157,-1.60505 -1.18157,-1.60506 v -0.84401 -0.84402 l 0.3175,-0.3175 0.3175,-0.3175 h 1.11966 1.11966 l 2.06857,0.75081 2.06857,0.75081 0.99084,-0.42008 0.99083,-0.42008 -0.008,-0.79375 -0.008,-0.79375 -0.51121,-1.05834 -0.51121,-1.05833 -0.009,-0.95651 -0.009,-0.9565 0.54063,-0.68731 0.54063,-0.6873 0.89734,-0.16834 0.89733,-0.168338 0.92795,0.306248 0.92795,0.30626 0.33007,0.74567 0.33007,0.74567 0.45564,-0.56269 0.45564,-0.56269 h 1.45081 1.4508 l 0.55695,0.50402 0.55694,0.50403 v 1.4039 1.40389 l -0.5266,0.49061 -0.52661,0.49061 -0.53173,1.54549 -0.53172,1.54549 v 0.0545 0.0546 l 1.74355,0.85835 1.74355,0.85835 0.74498,1.17472 0.74498,1.17471 0.30541,1.75378 0.30541,1.75378 0.35412,0.84752 0.35412,0.84753 1.86757,2.28471 1.86758,2.2847 0.27455,0.98861 0.27456,0.9886 0.002,1.2208 0.002,1.22081 -1.22755,0.16826 -1.22755,0.16825 h -1.29733 -1.29732 l -1.29075,-1.20734 -1.29074,-1.20734 -2.56211,-0.35785 -2.56211,-0.35785 -1.2725,-0.79103 -1.2725,-0.79103 -0.51028,-0.16196 -0.51028,-0.16195 -0.64702,0.50895 -0.64703,0.50895 -10.03196,20.39777 -10.03222,20.397769 h -0.60738 -0.60737 z m 25.39595,-42.83957 -0.004,-0.5797 -0.25648,0.39688 -0.25648,0.39687 -0.004,0.34635 -0.004,0.34634 0.26458,-0.16352 0.26458,-0.16352 -0.004,-0.5797 z m -70.6397,36.42929 -0.92605,-0.10003 -1.5875,-0.2943 -1.5875,-0.29429 -2.49568,-1.19009 -2.49569,-1.1901 -2.1469,-2.15342 -2.14691,-2.15342 -1.21304,-2.51355 -1.21304,-2.51354 -0.335,-1.5875 -0.33499,-1.5875 v -2.64583 -2.64583 l 0.33499,-1.5875 0.335,-1.5875 1.21671,-2.51355 1.21672,-2.51354 1.99308,-2.00953 1.99309,-2.00954 1.84874,-1.02492 1.84874,-1.02492 2.12001,-0.62825 2.12001,-0.62825 h 3.175 3.175 l 2.12001,0.62825 2.12001,0.62825 1.84874,1.02492 1.84874,1.02492 2.03072,2.04712 2.03073,2.04712 1.17692,2.47596 1.17692,2.47596 0.33715,1.5875 0.33714,1.5875 v 2.64583 2.64583 l -0.33714,1.5875 -0.33715,1.5875 -1.18652,2.49569 -1.18651,2.49568 -2.17128,2.17128 -2.17128,2.17128 -2.49568,1.18652 -2.49569,1.18651 -1.45521,0.28306 -1.45521,0.28306 -1.85208,0.11484 -1.85208,0.11485 z m 46.70314,-54.886381 -3.15044,-3.218288 -1.61732,0.570964 -1.61732,0.570964 -1.83664,0.142192 -1.83663,0.142195 -4.25053,-0.907644 -4.25053,-0.907646 -1.44024,-0.921311 -1.44024,-0.921311 -1.63197,-1.781006 -1.63197,-1.781007 -1.04592,-2.165771 -1.04592,-2.165771 -0.28417,-1.322917 -0.28419,-1.322917 -0.17812,-1.190625 -0.17813,-1.190625 -0.62797,-0.747996 -0.62796,-0.747996 -0.1609,-0.641066 -0.1609,-0.641067 h -1.16194 -1.16194 v -0.601886 -0.601887 l 1.25677,-1.346618 1.25677,-1.346618 0.52916,-0.8957668 0.52917,-0.895766 1.19063,-0.614618 1.19062,-0.614618 1.64312,0.120285 1.64311,0.120284 1.13872,0.667334 1.13872,0.667333 1.3453,1.4224618 1.34531,1.422462 0.69775,1.105307 0.69775,1.105308 1.12824,0.293007 1.12823,0.293006 1.45521,0.528807 1.45521,0.528807 1.71979,0.937179 1.71979,0.937179 1.71979,1.277367 1.71979,1.277367 1.34279,1.406621 1.3428,1.406622 0.73763,0.926041 0.73762,0.926042 4.07115,4.275321 4.07114,4.275322 v 0.950198 0.950201 h -1.57487 -1.57488 l -0.0788,1.653646 -0.0788,1.653646 -0.93624,0.07878 -0.93624,0.07878 z"
       id="path463" /><path
       style="fill:#000000;stroke-width:1"
       id="path356"
       d="" /><rect
       style="fill:#ffffff;stroke:#ffffff;stroke-width:1;stroke-linecap:square"
       id="rect461"
       width="230.47786"
       height="332.59503"
       x="-272.27118"
       y="-42.044716" /><path
       style="fill:#000000;stroke-width:1"
       d="m -272.27118,56.676625 v -86.386461 h 102.26146 102.26146 v 86.386461 86.386455 h -102.26146 -102.26146 z m 181.90105,84.169845 2.11666,-0.68148 1.32292,-0.86797 1.32292,-0.86798 0.0804,-1.10302 0.0804,-1.10303 -1.53561,-1.04607 -1.53561,-1.04607 -1.47373,-1.55316 -1.47374,-1.55316 -0.71268,-1.22001 -0.71268,-1.22001 -0.68903,-1.6904 -0.68903,-1.69041 -1.28322,-5.15937 -1.28322,-5.15938 -1.05395,-2.1309 -1.05394,-2.13089 -1.10347,-1.2536 -1.10346,-1.25361 -1.09226,-0.55758 -1.09226,-0.55757 -2.64583,-0.89882 -2.64584,-0.89881 -5.02708,-0.65656 -5.02708,-0.65656 -6.08542,-0.14205 -6.08542,-0.14205 -1.25188,-0.2727 -1.25189,-0.27269 -1.02673,-0.74377 -1.02674,-0.74376 -3.12085,-4.059667 -3.12085,-4.05966 -0.21592,-0.28325 -0.21591,-0.28325 0.40523,-2.53972 0.40524,-2.53971 -0.0815,-1.27808 -0.0815,-1.27807 -0.98049,-0.0814 -0.98049,-0.0814 -3.12055,3.02403 -3.12055,3.02404 -1.45521,0.72666 -1.45521,0.72667 -1.0585,0.85843 -1.05849,0.85842 -1.43486,2.44451 -1.43485,2.4445 -2.33529,1.714057 -2.3353,1.71406 v 1.54281 1.54282 l 0.85989,0.72588 0.8599,0.72589 1.05833,0.48245 1.05834,0.48244 2.81596,0.006 2.81596,0.006 0.18499,0.46302 0.18498,0.46302 1.02363,2.83745 1.02363,2.83746 0.44798,0.86671 0.44798,0.86671 0.98509,1.32292 0.98511,1.32292 0.62776,0.57539 0.62776,0.57539 3.29025,2.40117 3.29026,2.40117 h 15.42901 15.42902 v 1.05833 1.05834 h 0.26459 0.26458 v 0.93719 0.9372 l 0.41404,2.00448 0.41403,2.00449 0.6541,1.47903 0.6541,1.47903 1.06163,1.40611 1.06162,1.40612 1.41722,0.94098 1.41722,0.94097 1.54625,0.51193 1.54625,0.51192 2.77812,-0.10978 2.77813,-0.10979 2.11667,-0.68149 z m -6.87917,-3.43713 -1.32292,-0.32863 -1.25244,-0.73559 -1.25244,-0.73558 -0.7598,-0.96959 -0.75979,-0.96958 -0.30133,-0.57505 -0.30134,-0.57505 1.65211,0.64808 1.65212,0.64809 0.95064,0.15257 0.95064,0.15258 0.16841,-2.37265 0.16841,-2.37265 0.16466,-0.42909 0.16466,-0.42909 1.04181,2.15434 1.04181,2.15433 0.82899,1.08325 0.82899,1.08325 0.91502,0.97267 0.91501,0.97266 -1.02682,0.2628 -1.02682,0.26281 -1.05833,0.13687 -1.05833,0.13688 z m -46.69896,-12.97073 v -0.63279 l -3.04676,-2.21148 -3.04676,-2.21147 -14.2173,-0.13229 -14.2173,-0.1323 -1.98438,-0.97123 -1.98437,-0.97124 -1.42118,-1.41001 -1.42117,-1.41002 -0.92462,-1.92099 -0.92462,-1.921 -0.13783,-1.71702 -0.13782,-1.71703 -0.69138,1.3e-4 -0.69138,1.4e-4 -1.32292,0.49954 -1.32292,0.49953 -1.5557,0.31997 -1.5557,0.31997 0.18307,2.49398 0.18306,2.49399 0.47778,1.38867 0.47778,1.38868 0.69919,1.37979 0.69919,1.37979 1.254,1.28729 1.254,1.2873 1.19062,0.77464 1.19063,0.77465 0.66146,0.29593 0.66146,0.29594 0.8691,0.3272 0.86911,0.3272 1.51214,0.19398 1.51215,0.19398 18.45468,0.0347 18.45469,0.0347 z m -61.38333,-9.52277 v -9.36181 l 5.22552,-0.12486 5.22552,-0.12486 1.9407,-0.68111 1.9407,-0.6811 1.48084,-0.87858 1.48085,-0.87857 1.63409,-1.5875 1.63409,-1.587497 0.93818,-1.46886 0.93819,-1.46886 0.70749,-1.68091 0.70748,-1.68091 0.3763,-1.96673 0.3763,-1.96674 v -5.77849 -5.7785 l 3.9026,-0.0852 3.9026,-0.0852 1.17746,-0.79502 1.17745,-0.79502 0.74078,-1.418 0.74077,-1.41801 v -2.04697 -2.046967 l -0.30233,-0.89938 -0.30232,-0.89938 -5.49006,-10.186453 -5.49006,-10.186458 -0.14134,-4.365625 -0.14134,-4.365625 -0.41512,-2.246583 -0.41512,-2.246582 -0.54371,-2.09754 -0.54371,-2.097543 -0.92421,-2.393095 -0.92422,-2.393093 -1.34862,-2.655491 -1.34863,-2.65549 -1.33105,-1.984375 -1.33105,-1.984375 -1.52771,-1.879831 -1.52771,-1.879827 -2.46178,-2.3196372 -2.46178,-2.319636 -2.24896,-1.612506 -2.24896,-1.612503 -3.70416,-1.87724 -3.70417,-1.87723995 -2.91042,-0.83931805 -2.91041,-0.839296 -2.51355,-0.448119 -2.51354,-0.44812 -4.89479,0.0029 -4.89479,0.0029 -2.44363,0.448406 -2.44363,0.448405 -2.31887,0.669531 -2.31887,0.66952805 -2.24,0.910598 -2.23999,0.910598 -2.39021,1.37264695 -2.39022,1.372648 -2.41706,1.800786 -2.41705,1.800786 -2.31263,2.316557 -2.31262,2.3165572 -1.51455,1.984375 -1.51455,1.984375 -1.22109,1.906645 -1.22109,1.906644 -0.96055,1.907405 -0.96055,1.907405 -0.90963,2.383626 -0.90963,2.383626 -0.63537,2.26899 -0.63537,2.269014 -0.47353,2.513541 -0.47352,2.513542 -0.007,7.276042 -0.007,7.276042 0.35869,1.984375 0.35869,1.984375 0.51329,2.19193 0.51329,2.191932 0.93384,2.70286 0.93383,2.70286 1.35325,2.77292 1.35325,2.772927 1.77598,2.65103 1.77598,2.65103 1.7163,2.00692 1.71629,2.00691 2.01376,1.82386 2.01377,1.82386 v 19.783287 19.78329 h 23.8125 23.8125 z m -33.76301,-42.100487 -0.76512,-0.32856 -0.60163,-0.65282 -0.60163,-0.65283 -0.23045,-0.80353 -0.23045,-0.80354 0.4738,-1.058267 0.4738,-1.05828 0.29214,-0.18054 0.29213,-0.18055 v -1.3073 -1.307303 h -4.9728 -4.97281 l -3.38761,-4.208481 -3.38761,-4.208481 -1.10182,-0.277439 -1.10182,-0.277442 -0.62109,-0.578633 -0.62109,-0.578631 -0.38697,-0.92615 -0.38697,-0.926148 0.16914,-0.673888 0.16913,-0.673889 0.50637,-0.711123 0.50636,-0.711123 0.92132,-0.437195 0.92132,-0.437195 0.88218,0.368599 0.88219,0.368599 0.70762,0.84097 0.70763,0.840968 0.17037,1.284269 0.17036,1.284269 2.74491,3.466989 2.74491,3.466989 h 4.36839 4.36839 v -3.643151 -3.643152 l 3.70417,-3.949065 3.70416,-3.949065 v -0.579355 -0.579356 l -2.24549,-2.477907 -2.24548,-2.477908 -0.004,-14.094735 -0.003,-14.094736 -0.69635,-1.052256 -0.69635,-1.0522562 0.14597,-1.08826 0.14596,-1.08826 0.71376,-0.745004 0.71376,-0.745003 0.75111,-0.311121 0.75111,-0.311118 0.98667,0.490331 0.98667,0.490334 0.54023,0.738952 0.54022,0.738952 v 1.032952 1.032952 l -0.5893,0.7970712 -0.5893,0.797068 v 2.78884 2.788838 h 5.82084 5.82083 v 5.540635 5.540637 l 0.29457,0.182049 0.29456,0.182052 0.51623,1.167016 0.51623,1.167016 -0.29779,0.902282 -0.29777,0.90228 -0.9191,0.806976 -0.91909,0.806974 -0.7184,-0.0011 -0.7184,-0.0011 -0.87789,-0.535234 -0.8779,-0.535234 -0.52354,-1.183568 -0.52355,-1.183569 0.51156,-1.15648 0.51157,-1.156481 0.29456,-0.182052 0.29456,-0.181911 v -3.556178 -3.55626 h -4.10104 -4.10104 v 9.091621 9.091621 l 5.04391,5.327353 5.0439,5.327351 0.71078,0.154618 0.71078,0.154617 0.74469,0.282252 0.74468,0.28225 0.64438,0.948287 0.64438,0.948286 v 0.825494 0.825495 l -0.60351,0.899025 -0.6035,0.899023 -0.93817,0.506706 -0.93817,0.506703 -1.02094,-0.506703 -1.02094,-0.506706 -0.49947,-0.684366 -0.49947,-0.684364 -0.14391,-1.16772 -0.14391,-1.167717 -1.88062,-1.918229 -1.88061,-1.918229 h -0.57993 -0.57993 l -3.06471,3.231065 -3.06471,3.231068 v 6.252927 6.252919 l 0.5192,0.46988 0.51921,0.46987 0.28482,0.86302 0.28482,0.863007 -0.43725,1.09278 -0.43724,1.09278 -0.69751,0.48551 -0.69751,0.48551 -0.5578,0.13796 -0.55779,0.13795 z m -9.08346,-25.202993 -0.90446,-0.460735 -0.54797,-0.747006 -0.54798,-0.747006 4.3e-4,-1.105078 4.2e-4,-1.105077 0.5949,-0.834594 0.59488,-0.834593 v -3.597178 -3.597177 h -7.53232 -7.53233 l 0.10588,-0.330729 0.10587,-0.330729 0.42238,-1.521354 0.42238,-1.521354 h 4.09365 4.09365 v -3.620969 -3.620969 l -0.55085,-0.586359 -0.55086,-0.586356 -0.13966,-1.041281 -0.13967,-1.041281 0.42065,-0.813448 0.42065,-0.813448 0.70243,-0.552527 0.70243,-0.552529 h 0.88115 0.88115 l 0.93198,0.818287 0.93198,0.81829 0.29623,0.988716 0.29623,0.988717 -0.55376,1.085461 -0.55376,1.085458 -0.26837,0.165859 -0.26836,0.165857 v 3.556262 3.55626 h 3.04271 3.0427 v 5.437994 5.437997 l 0.66146,0.973424 0.66146,0.973423 -0.001,0.798475 -0.001,0.798478 -0.51555,0.845521 -0.51554,0.845519 -0.60795,0.383701 -0.60794,0.383702 -0.53194,0.157556 -0.53193,0.157557 -0.90447,-0.460737 z m 42.86527,-23.281458 -0.90723,-0.462611 -0.48873,-0.667663 -0.48874,-0.667663 -0.16615,-1.023874 -0.16615,-1.023874 -3.00194,-2.908099 -3.00195,-2.908099 V 9.6596788 4.6503378 l 0.59532,0.180412 0.59531,0.180409 1.25677,0.53146 1.25677,0.531461 v 3.893243 3.8932462 l 2.22704,2.027299 2.22705,2.027298 h 0.55958 0.55958 l 0.86375,0.3609 0.86375,0.360896 0.71525,0.850027 0.71525,0.850027 -10e-4,0.971889 -0.001,0.971886 -0.53397,0.875818 -0.53397,0.875816 -0.91175,0.380955 -0.91175,0.380953 -0.20694,-5.29e-4 -0.20693,-5.3e-4 -0.90724,-0.462608 z m 95.57101,32.279582 -0.0571,-46.7651102 -0.48277,-1.455208 -0.48276,-1.455209 -0.71995,-1.386186 -0.71994,-1.386187 -1.38606,-1.400392 -1.38607,-1.400394 -0.92604,-0.68978995 -0.92604,-0.68979 -4.00974,-0.823108 -4.00975,-0.82311105 -27.74025,0.0052 -27.74026,0.0052 -1.85208,0.261948 -1.85208,0.261951 -1.45521,0.57319605 -1.45521,0.573196 -1.19063,0.804683 -1.19062,0.80468195 -1.25676,1.275858 -1.25675,1.275861 -0.52918,1.03728 -0.52919,1.037281 0.0113,0.473562 0.0113,0.473561 1.30731,1.008097 1.30731,1.008095 1.26111,1.7038792 1.26111,1.70388 0.55008,5e-6 0.55009,3e-6 0.6088,-1.2998 0.60879,-1.299803 1.48251,-1.4943672 1.48252,-1.494366 1.97509,-0.976146 1.97509,-0.976143 h 26.75036 26.75037 l 1.973,0.975114 1.97301,0.975111 1.41882,1.406139 1.41882,1.406136 0.96008,1.9843752 0.96007,1.984375 0.0699,44.497578 0.0699,44.49757 1.51759,0.1711 1.51759,0.17111 0.26458,0.0912 0.26459,0.0911 1.45521,0.0209 1.4552,0.0209 -0.0571,-46.765097 z m 12.4944,0.70275 10.03196,-20.39777 0.64703,-0.50895 0.64703,-0.508949 0.51027,0.161954 0.51028,0.161954 1.2725,0.79103 1.2725,0.79103 2.56211,0.357849 2.56211,0.357849 1.29075,1.207344 1.29074,1.207341 h 1.29733 1.29732 l 1.22755,-0.168253 1.22756,-0.168257 -0.002,-1.220806 -0.002,-1.220809 -0.27455,-0.988599 -0.27456,-0.988603 -1.86757,-2.284706 -1.86758,-2.284706 -0.35412,-0.84753 -0.35412,-0.847526 -0.30541,-1.753775 -0.3054,-1.753777 -0.74499,-1.174716 -0.74498,-1.174718 -1.74355,-0.858348 -1.74355,-0.858346 v -0.05455 -0.05455 l 0.53173,-1.545494 0.53172,-1.545495 0.52661,-0.490609 0.52661,-0.490606 V 16.755242 15.351349 L -78.625,14.84732 -79.18195,14.343292 h -1.4508 -1.45081 l -0.45564,0.562692 -0.45564,0.562695 -0.33007,-0.745673 -0.33006,-0.745673 -0.92796,-0.306252 -0.92795,-0.306253 -0.89733,0.168341 -0.89733,0.168342 -0.54063,0.6873 -0.54063,0.687303 0.009,0.956505 0.009,0.956506 0.51122,1.058334 0.51121,1.058333 0.008,0.79375 0.008,0.79375 -0.99084,0.420084 -0.99084,0.420084 -2.06857,-0.750813 -2.06857,-0.750813 h -1.11966 -1.11966 l -0.3175,0.3175 -0.3175,0.3175 v 0.844018 0.844018 l 1.18158,1.605053 1.18157,1.605055 -7.26699,9.034981 -7.26673,9.034981 v 17.038032 17.038021 h 0.60737 0.60738 z m 13.62817,-38.919432 0.004,-0.346344 0.25648,-0.396875 0.25648,-0.396875 0.004,0.579696 0.004,0.5797 -0.26458,0.16352 -0.26459,0.163521 0.004,-0.346343 z m -64.03322,35.456171 1.45521,-0.283057 2.49569,-1.186516 2.49568,-1.186516 2.17128,-2.171277 2.17128,-2.171279 1.18651,-2.495685 1.18652,-2.495685 0.33715,-1.5875 0.33714,-1.5875 v -2.645833 -2.645834 l -0.33714,-1.5875 -0.33715,-1.5875 -1.17692,-2.47596 -1.17692,-2.47596 -2.03073,-2.047116 -2.03072,-2.047116 -1.84874,-1.024919 -1.84874,-1.024922 -2.12001,-0.628253 -2.12001,-0.628253 h -3.175 -3.175 l -2.12001,0.628253 -2.12001,0.628253 -1.84874,1.024922 -1.84874,1.024919 -1.99309,2.009534 -1.99308,2.009535 -1.21672,2.513541 -1.21671,2.513542 -0.335,1.5875 -0.33499,1.5875 v 2.645834 2.645833 l 0.33499,1.5875 0.335,1.5875 1.21304,2.513542 1.21304,2.513541 2.14691,2.153423 2.1469,2.15342 2.49569,1.190096 2.49568,1.190093 1.5875,0.294294 1.5875,0.294293 0.92605,0.100028 0.92604,0.100031 1.85208,-0.114845 1.85208,-0.114845 z m 45.7194,-53.06657815 0.0788,-1.653646 h 1.57488 1.57487 v -0.95020105 -0.950198 l -4.07114,-4.275322 -4.07115,-4.2753208 -0.73762,-0.926042 -0.73763,-0.926041 -1.3428,-1.406622 -1.34279,-1.406621 -1.71979,-1.277367 -1.71979,-1.277367 -1.71979,-0.937179 -1.71979,-0.937179 -1.45521,-0.528807 -1.45521,-0.528807 -1.12823,-0.293006 -1.12824,-0.293007 -0.69775,-1.105308 -0.69775,-1.105307 -1.34531,-1.422463 -1.3453,-1.422462 -1.13872,-0.667333 -1.13872,-0.667334 -1.64311,-0.120284 -1.64312,-0.120284 -1.19062,0.614618 -1.19063,0.614618 -0.52917,0.895766 -0.52916,0.895766 -1.25677,1.346619 -1.25677,1.346618 v 0.601887 0.601886 h 1.16194 1.16194 l 0.1609,0.641067 0.1609,0.641066 0.62796,0.747996 0.62797,0.747996 0.17813,1.190625 0.17812,1.190625 0.28419,1.322917 0.28417,1.322917 1.04592,2.165771 1.04592,2.1657708 1.63197,1.781007 1.63197,1.781006 1.44024,0.921311 1.44024,0.921311 4.25053,0.907646 4.25053,0.907644 1.83663,-0.142195 1.83664,-0.142192 1.61732,-0.570964 1.61732,-0.570964 3.15044,3.21828805 3.15042,3.21829095 0.93624,-0.07878 0.93624,-0.07878 z"
       id="path360" /></g></svg>
