<?xml version="1.0" encoding="UTF-8"?>
<svg id="Layer_1" data-name="Layer 1" xmlns="http://www.w3.org/2000/svg" version="1.1" xmlns:xlink="http://www.w3.org/1999/xlink" viewBox="0 0 541.4 486.9">
  <defs>
    <style>
      .cls-1 {
        fill: #adce6d;
      }

      .cls-1, .cls-2, .cls-3, .cls-4, .cls-5, .cls-6, .cls-7, .cls-8, .cls-9, .cls-10, .cls-11, .cls-12, .cls-13, .cls-14, .cls-15, .cls-16, .cls-17, .cls-18, .cls-19, .cls-20, .cls-21 {
        stroke-width: 0px;
      }

      .cls-2, .cls-4 {
        fill-rule: evenodd;
      }

      .cls-2, .cls-22, .cls-23, .cls-20, .cls-24 {
        fill: #fff;
      }

      .cls-3 {
        fill: #bed5e3;
      }

      .cls-4, .cls-25, .cls-26 {
        fill: #575756;
      }

      .cls-22 {
        font-size: 6.7px;
      }

      .cls-22, .cls-27, .cls-28, .cls-29, .cls-26, .cls-30 {
        font-family: HelveticaNeueLTStd-Md, 'Helvetica Neue LT Std';
        font-weight: 500;
      }

      .cls-5, .cls-28, .cls-29, .cls-30 {
        fill: #000;
      }

      .cls-6 {
        fill: #67b42e;
      }

      .cls-31 {
        stroke: #9d9d9c;
        stroke-dasharray: 0 0 2 2;
        stroke-width: 1px;
      }

      .cls-31, .cls-32, .cls-33, .cls-12, .cls-34, .cls-35, .cls-36 {
        fill: none;
      }

      .cls-31, .cls-32, .cls-34, .cls-36 {
        stroke-miterlimit: 10;
      }

      .cls-23 {
        font-family: Arial-Black, Arial;
        font-weight: 800;
      }

      .cls-23, .cls-37 {
        font-size: 14px;
      }

      .cls-27 {
        font-size: 11.7px;
      }

      .cls-27, .cls-38 {
        fill: #008237;
      }

      .cls-7 {
        fill: #e8d300;
      }

      .cls-8 {
        fill: #b4cddf;
      }

      .cls-39 {
        letter-spacing: 0em;
      }

      .cls-9 {
        fill: #e4eaee;
      }

      .cls-40 {
        letter-spacing: 0em;
      }

      .cls-32 {
        stroke: #fdfefc;
      }

      .cls-32, .cls-36 {
        stroke-width: .2px;
      }

      .cls-10, .cls-37 {
        fill: #c00d0e;
      }

      .cls-28 {
        font-size: 7.1px;
      }

      .cls-33 {
        stroke: #e30613;
        stroke-width: 2px;
      }

      .cls-41 {
        letter-spacing: 0em;
      }

      .cls-11 {
        fill: #e18f72;
      }

      .cls-42 {
        letter-spacing: 0em;
      }

      .cls-43 {
        letter-spacing: 0em;
      }

      .cls-25 {
        font-size: 10.2px;
      }

      .cls-25, .cls-24 {
        font-family: HelveticaNeueLTStd-Roman, 'Helvetica Neue LT Std';
      }

      .cls-13 {
        fill: #b2b2b2;
      }

      .cls-44 {
        letter-spacing: 0em;
      }

      .cls-34 {
        stroke: #008237;
      }

      .cls-34, .cls-35 {
        stroke-width: .5px;
      }

      .cls-14 {
        fill: #8cb148;
      }

      .cls-29 {
        font-size: 14.3px;
      }

      .cls-38 {
        font-family: MyriadPro-Regular, 'Myriad Pro';
        font-size: 7px;
      }

      .cls-45 {
        letter-spacing: 0em;
      }

      .cls-46 {
        letter-spacing: 0em;
      }

      .cls-26 {
        font-size: 9px;
      }

      .cls-15 {
        fill: #c6c6c6;
      }

      .cls-35 {
        stroke: #575756;
        stroke-miterlimit: 3.9;
      }

      .cls-16 {
        fill: #d1dde3;
      }

      .cls-37 {
        font-family: ArialMT, Arial;
      }

      .cls-17 {
        fill: #d3730b;
      }

      .cls-36 {
        stroke: #67b42e;
      }

      .cls-47 {
        letter-spacing: 0em;
      }

      .cls-30 {
        font-size: 19.1px;
      }

      .cls-18 {
        fill: #1d3786;
      }

      .cls-19 {
        fill: #dadada;
      }

      .cls-48 {
        letter-spacing: 0em;
      }

      .cls-49 {
        letter-spacing: 0em;
      }

      .cls-24 {
        font-size: 10.4px;
      }

      .cls-21 {
        fill: #fdfefc;
      }
    </style>
    <clipPath id="clippath">
      <rect class="cls-12" x="289.6" y="91.9" width="11.2" height="12.8"/>
    </clipPath>
  </defs>
  <g>
    <g>
      <rect class="cls-9" width="541.4" height="486.9"/>
      <line class="cls-31" x1="377.7" y1="249.7" x2="348.4" y2="249.7"/>
      <polyline class="cls-31" points="385.2 294.7 360.4 284.7 360.4 245.4 368.5 208.3"/>
      <polyline class="cls-31" points="283.6 398.8 342.6 362.8 345.8 345.6 356 307.4"/>
      <line class="cls-31" x1="360.1" y1="284.7" x2="142.8" y2="284.7"/>
      <polyline class="cls-31" points="268.7 291.4 268.7 214.2 291.4 214.2 291.4 250.1 331 250.1"/>
      <line class="cls-31" x1="305.5" y1="249.9" x2="305.5" y2="258.7"/>
      <line class="cls-31" x1="305.5" y1="274.1" x2="305.5" y2="278.1"/>
      <polyline class="cls-31" points="201.5 284.1 201.5 216.6 267.8 216.6"/>
      <polyline class="cls-31" points="257 198.4 290.5 181.2 273.3 181.2 273.3 173.7"/>
      <polyline class="cls-31" points="291.4 201.8 291.4 180.9 304.7 180.9 304.7 106.5"/>
      <polyline class="cls-31" points="359.7 103.7 368.8 103.7 368.8 201.8"/>
      <polyline class="cls-31" points="232.6 348.6 165.5 356.7 165.5 301"/>
      <polyline class="cls-31" points="261.4 334.4 273.9 337.4 276.6 348.6 282.1 394 291.1 468.1"/>
      <polyline class="cls-31" points="196.7 307.7 196.7 325.6 227.7 329.9"/>
      <polyline class="cls-31" points="348.9 329.2 285.1 329.2 275.4 340.9 234.2 342.7"/>
      <polyline class="cls-31" points="284.3 329.1 272.2 329.1 271.8 309.2"/>
      <rect class="cls-13" x="275.3" y="87.6" width="6.4" height="5.2"/>
      <rect class="cls-16" x="114.9" y="200.8" width="56.1" height="13.1"/>
      <rect class="cls-11" x="156.2" y="291.3" width="10.4" height="9.7"/>
      <path class="cls-11" d="M242.7,304.5c0,5.7-8.5,10.4-19,10.4s-19-4.6-19-10.4,8.5-10.4,19-10.4,19,4.6,19,10.4"/>
      <polygon class="cls-3" points="257 262 257 273 204.3 273 204.3 218.8 265.9 218.8 265.9 232.5 233.6 232.5 233.6 241.1 261.1 241.1 261.1 251.3 221.5 251.3 221.5 262 257 262"/>
      <polygon class="cls-10" points="257 262 257 273 204.3 273 204.3 262 221.5 262 257 262"/>
      <rect class="cls-20" x="349.4" y="295.1" width="45.9" height="8.1"/>
      <rect class="cls-20" x="303.9" y="268" width="4.4" height="20"/>
      <rect class="cls-13" x="250.2" y="135.5" width="51.1" height="37.8"/>
      <rect class="cls-13" x="298.5" y="45.7" width="27.1" height="24.7"/>
      <polygon class="cls-13" points="288.3 217 272.9 217 272.9 274 347.7 274 347.7 217 300.7 217 300.7 234.2 331.9 234.2 331.9 258.9 288.7 258.9 288.3 217"/>
      <polygon class="cls-3" points="116.2 200.6 76 200.6 76 272.6 116.2 272.6 116.2 259.2 95.6 259.2 95.6 243.5 116.5 243.5 116.5 229.7 94.9 229.7 94.9 214.3 115.8 214.3 116.2 200.6"/>
      <polygon class="cls-3" points="163.2 200.6 123 200.6 123 272.6 163.2 272.6 163.2 259.2 142.6 259.2 142.6 243.5 163.5 243.5 163.5 229.7 141.9 229.7 141.9 214.3 162.8 214.3 163.2 200.6"/>
      <rect class="cls-3" x="171.2" y="200.6" width="19.2" height="71.7"/>
      <polygon class="cls-3" points="356.4 315.2 376.2 316.9 370.7 377.8 350.9 376.2 356.4 315.2"/>
      <rect class="cls-15" x="432.1" y="375.5" width="39.1" height="35.7"/>
      <rect class="cls-15" x="461.9" y="418" width="69.7" height="28.7"/>
      <rect class="cls-15" x="496.1" y="464.5" width="35.5" height="15.8"/>
      <rect class="cls-15" x="434.1" y="322" width="18.5" height="35"/>
      <rect class="cls-15" x="410.8" y="294.1" width="22" height="28.1"/>
      <rect class="cls-15" x="422.5" y="235.6" width="17.8" height="17.8"/>
      <rect class="cls-15" x="422.5" y="262.3" width="17.8" height="17.8"/>
      <polyline class="cls-10" points="272.4 285.6 354.2 285.6 354.2 308.3 314.2 308.3 314.2 324.1 290.8 324.1 290.8 308.3 272.4 308.3"/>
      <polygon class="cls-10" points="166.8 348.1 166.2 285.6 264.9 285.6 264.9 322 250.5 322 250.5 308.3 190.8 308.3 190.8 333.7 260.8 328.2 261.5 339.2 230.6 342.6 230.6 347.4 198.4 350.8 197.7 344.7 166.8 348.1"/>
      <rect class="cls-15" x="447.2" y="163.5" width="27.4" height="18.5"/>
      <path class="cls-1" d="M414.2,172.1c0-4,3.2-7.2,7.2-7.2s7.2,3.2,7.2,7.2-3.2,7.2-7.2,7.2-7.2-3.2-7.2-7.2"/>
      <path class="cls-1" d="M428.6,168c0-4,3.2-7.2,7.2-7.2s7.2,3.2,7.2,7.2-3.2,7.2-7.2,7.2-7.2-3.2-7.2-7.2"/>
      <path class="cls-1" d="M410.8,200.2c0-4,3.2-7.2,7.2-7.2s7.2,3.2,7.2,7.2-3.2,7.2-7.2,7.2-7.2-3.2-7.2-7.2"/>
      <path class="cls-1" d="M351.8,218.6c0-4,3.2-7.2,7.2-7.2s7.2,3.2,7.2,7.2-3.2,7.2-7.2,7.2-7.2-3.2-7.2-7.2"/>
      <path class="cls-1" d="M375.6,224.9c0-4,3.2-7.2,7.2-7.2s7.2,3.2,7.2,7.2-3.2,7.2-7.2,7.2-7.2-3.2-7.2-7.2"/>
      <path class="cls-1" d="M361.8,270.4c0-2.4,1.9-4.3,4.3-4.3s4.3,1.9,4.3,4.3-1.9,4.3-4.3,4.3-4.3-1.9-4.3-4.3"/>
      <path class="cls-1" d="M407,440.7c0-2.8,2.3-5,5-5s5,2.3,5,5-2.3,5-5,5-5-2.3-5-5"/>
      <path class="cls-1" d="M404.7,472.6c0-6.8,5.5-12.3,12.3-12.3s12.3,5.5,12.3,12.3-5.5,12.3-12.3,12.3-12.3-5.5-12.3-12.3"/>
      <path class="cls-1" d="M315.6,459.9c0-7,5.8-12.6,12.8-12.3,6.4.2,11.6,5.5,11.9,11.9.3,7-5.4,12.8-12.3,12.8s-12.4-5.5-12.4-12.4"/>
      <path class="cls-1" d="M287.6,424.2c0-6.8,5.5-12.3,12.4-12.3s12.3,5.5,12.3,12.3-5.5,12.4-12.3,12.4-12.4-5.5-12.4-12.4"/>
      <path class="cls-1" d="M293.1,370c0-6.8,5.5-12.3,12.3-12.3s12.3,5.5,12.3,12.3-5.5,12.4-12.3,12.4-12.3-5.5-12.3-12.4"/>
      <path class="cls-1" d="M253.3,451c0-6.8,5.5-12.3,12.4-12.3s12.3,5.5,12.3,12.3-5.5,12.3-12.3,12.3-12.4-5.5-12.4-12.3"/>
      <path class="cls-1" d="M246.5,411.9c0-6.8,5.5-12.3,12.3-12.3s12.4,5.5,12.4,12.3-5.5,12.4-12.4,12.4-12.3-5.5-12.3-12.4"/>
      <path class="cls-1" d="M212.2,411.9c0-6.8,5.5-12.3,12.3-12.3s12.4,5.5,12.4,12.3-5.5,12.4-12.4,12.4-12.3-5.5-12.3-12.4"/>
      <path class="cls-1" d="M215.6,388.6c0-6.8,5.5-12.3,12.4-12.3s12.3,5.5,12.3,12.3-5.5,12.3-12.3,12.3-12.4-5.5-12.4-12.3"/>
      <path class="cls-1" d="M227.9,365.9c0-6.8,5.5-12.4,12.3-12.4s12.3,5.5,12.3,12.4-5.5,12.3-12.3,12.3-12.3-5.5-12.3-12.3"/>
      <path class="cls-1" d="M188.8,394.1c0-6.8,5.5-12.3,12.3-12.3s12.3,5.5,12.3,12.3-5.5,12.3-12.3,12.3-12.3-5.5-12.3-12.3"/>
      <path class="cls-1" d="M159.3,418.1c0-6.8,5.5-12.4,12.3-12.4s12.4,5.5,12.4,12.4-5.5,12.3-12.4,12.3-12.3-5.5-12.3-12.3"/>
      <path class="cls-1" d="M153.7,447.7c0-6.8,5.5-12.4,12.3-12.4s12.4,5.5,12.4,12.4-5.5,12.3-12.4,12.3-12.3-5.5-12.3-12.3"/>
      <path class="cls-1" d="M128.5,418.8c0-6.8,5.5-12.4,12.3-12.4s12.3,5.5,12.3,12.4-5.5,12.4-12.3,12.4-12.3-5.5-12.3-12.4"/>
      <path class="cls-1" d="M92.8,372.1c0-6.8,5.5-12.3,12.3-12.3s12.3,5.5,12.3,12.3-5.5,12.4-12.3,12.4-12.3-5.5-12.3-12.4"/>
      <path class="cls-1" d="M292.3,401.8c0-4,3.2-7.2,7.2-7.2s7.2,3.2,7.2,7.2-3.2,7.2-7.2,7.2-7.2-3.2-7.2-7.2"/>
      <path class="cls-1" d="M241.7,394.4c0-4,3.2-7.2,7.2-7.2s7.2,3.2,7.2,7.2-3.2,7.2-7.2,7.2-7.2-3.2-7.2-7.2"/>
      <path class="cls-1" d="M223.1,446.5c0-4,3.2-7.2,7.2-7.2s7.2,3.2,7.2,7.2-3.2,7.2-7.2,7.2-7.2-3.2-7.2-7.2"/>
      <path class="cls-1" d="M178.5,402.6c0-4,3.2-7.2,7.2-7.2s7.2,3.2,7.2,7.2-3.2,7.2-7.2,7.2-7.2-3.2-7.2-7.2"/>
      <path class="cls-1" d="M138.1,396.5c0-4,3.2-7.2,7.2-7.2s7.2,3.2,7.2,7.2-3.2,7.2-7.2,7.2-7.2-3.2-7.2-7.2"/>
      <path class="cls-1" d="M185.4,428.4c0-9.1,7.4-16.5,16.5-16.5s16.5,7.4,16.5,16.5-7.4,16.5-16.5,16.5-16.5-7.4-16.5-16.5"/>
      <path class="cls-1" d="M157.3,381.7c0-9.1,7.4-16.5,16.5-16.5s16.5,7.4,16.5,16.5-7.4,16.5-16.5,16.5-16.5-7.4-16.5-16.5"/>
      <path class="cls-1" d="M120.2,372.1c0-9.1,7.4-16.5,16.5-16.5s16.5,7.4,16.5,16.5-7.4,16.5-16.5,16.5-16.5-7.4-16.5-16.5"/>
      <path class="cls-1" d="M95.5,405c0-9.1,7.4-16.5,16.5-16.5s16.5,7.4,16.5,16.5-7.4,16.5-16.5,16.5-16.5-7.4-16.5-16.5"/>
      <path class="cls-1" d="M98.7,448.5c0-6.8,5.5-12.4,12.3-12.4s12.3,5.5,12.3,12.4-5.5,12.4-12.3,12.4-12.3-5.5-12.3-12.4"/>
      <path class="cls-1" d="M133.6,441.6c0-4,3.2-7.2,7.2-7.2s7.2,3.2,7.2,7.2-3.2,7.2-7.2,7.2-7.2-3.2-7.2-7.2"/>
      <path class="cls-1" d="M65.7,434.8c0-9.1,7.4-16.5,16.5-16.5s16.5,7.4,16.5,16.5-7.4,16.5-16.5,16.5-16.5-7.4-16.5-16.5"/>
      <rect class="cls-3" x="308.4" y="165.9" width="48.4" height="13"/>
      <rect class="cls-3" x="308.4" y="119.3" width="48.4" height="13"/>
      <rect class="cls-3" x="308.5" y="135.2" width="13" height="27.8"/>
      <rect class="cls-3" x="343.8" y="135.2" width="13" height="27.8"/>
      <rect class="cls-3" x="255.4" y="29.9" width="33.6" height="13"/>
      <rect class="cls-3" x="290.5" y="13" width="33.6" height="13"/>
      <rect class="cls-3" x="458.7" y=".5" width="48.4" height="13"/>
      <rect class="cls-3" x="221.2" y="13" width="33.6" height="13"/>
      <path class="cls-20" d="M454.5,459.5s-28.7-8.8-35.5-22.5c-17-34-23.7-85-23.7-140.7V25s10.4,0,10.4,0v271.3c0,51.7,3,97,20,131,6.8,13.7,34.8,22.9,34.8,22.9l71.2,3.3v10.2l-77.1-3.4"/>
      <path class="cls-20" d="M400.4,374.3s6.5,42-6.7,62.9c-13.2,21-54,33.3-54,33.3l3,9.6s44.7-12.3,59.2-34.8c12.4-19.2,14-53.7,10.4-57.7l-11.8-13.3Z"/>
      <path class="cls-20" d="M458.9,453.5s-24.8-8.8-40.7-6.7c-27.4,3.7-77.7,25.9-77.7,25.9l3,9.6s44.7-22.1,75.5-23.7c13.9-.7,35.5,2.2,35.5,2.2l4.4-7.4Z"/>
      <polyline class="cls-20" points="398.2 202.2 259.9 202.2 215.5 179.6 62.3 179.6 62.3 184 212.5 184 257.7 206.6 398.2 206.6 398.2 206.6"/>
      <rect class="cls-20" x="378.2" y="256.6" width="20" height="4.4"/>
      <line class="cls-35" x1="398.4" y1="41.1" x2="398.4" y2="19.6"/>
      <polygon class="cls-4" points="398.4 20.1 395.9 20.1 398.4 13.6 401 20.1 398.4 20.1"/>
      <line class="cls-35" x1="483.4" y1="456.6" x2="501.7" y2="458.4"/>
      <polygon class="cls-4" points="498.2 458.2 498.2 455.6 503.3 458.7 498.1 460.8 498.2 458.2"/>
      <rect class="cls-13" x="279.8" y="75.6" width="80.4" height="30.3"/>
      <line class="cls-35" x1="353.5" y1="471.4" x2="331.9" y2="479.2"/>
      <polygon class="cls-4" points="332.3 479.1 333.2 481.5 326.2 481.3 331.4 476.6 332.3 479.1"/>
      <rect class="cls-13" x="181.1" y="149.5" width="54.6" height="16.8"/>
      <rect class="cls-13" x="181.1" y="119.3" width="54.6" height="16.8"/>
      <rect class="cls-13" x="203.6" y="127.8" width="20.4" height="28.9"/>
      <rect class="cls-3" x="143" y="168.9" width="7.4" height="7.4"/>
      <rect class="cls-3" x="114.9" y="114.1" width="14.4" height="5.9"/>
      <rect class="cls-3" x="114.9" y="162.9" width="14.4" height="5.9"/>
      <rect class="cls-3" x="114.9" y="135.6" width="14.4" height="5.9"/>
      <rect class="cls-3" x="114.9" y="149.7" width="14.4" height="5.9"/>
      <rect class="cls-3" x="150.4" y="155.5" width="14.4" height="5.9"/>
      <rect class="cls-3" x="150.4" y="114.1" width="14.4" height="5.9"/>
      <rect class="cls-3" x="150.4" y="128.2" width="14.4" height="5.9"/>
      <rect class="cls-3" x="150.4" y="142.3" width="14.4" height="5.9"/>
      <rect class="cls-20" x="103" y="119.3" width="3.7" height="60.7"/>
      <rect class="cls-20" x="170.7" y="4.7" width="3.7" height="176"/>
      <rect class="cls-20" x="240.6" y="114.8" width="3.7" height="68.3"/>
      <rect class="cls-20" x="170.7" y="112.1" width="225.8" height="3.5"/>
      <rect class="cls-20" x="170.7" y="3.6" width="202.4" height="3.5"/>
      <rect class="cls-20" x="369.4" y="3.6" width="3.7" height="174.9"/>
      <polygon class="cls-20" points="195.8 205.1 256.6 205.1 248.9 201.4 195.8 201.4 195.8 205.1"/>
      <rect class="cls-20" x="195.4" y="201.4" width="3" height="80.2"/>
      <rect class="cls-20" x="243.2" y="179.7" width="27.5" height="3.3"/>
      <rect class="cls-20" x="62.3" y="294.9" width="88.2" height="3.7"/>
      <rect class="cls-20" x="62.3" y="179.6" width="4.4" height="118.1"/>
      <rect class="cls-13" x="126.5" y="3.7" width="32.3" height="10.4"/>
      <rect class="cls-13" x="116.5" y="28.8" width="42.3" height="13.6"/>
      <rect class="cls-13" x="145.1" y="13.7" width="10.7" height="16.3"/>
      <polygon class="cls-10" points="240.9 345.6 235 351.5 233.7 344.3 240.9 345.6"/>
    </g>
    <rect class="cls-3" x="188.2" y="221.3" width="19.2" height="2.5"/>
    <rect class="cls-20" x="76.2" y="278.4" width="190.1" height="3"/>
    <polygon class="cls-10" points="192.2 278 200.5 278 196.4 283.9 192.2 278"/>
    <polygon class="cls-10" points="301.6 278 309.9 278 305.8 283.9 301.6 278"/>
    <rect class="cls-11" x="265" y="291.3" width="7.4" height="9.7"/>
    <rect class="cls-18" x="385.8" y="379.4" width="13.7" height="37.6"/>
    <g>
      <path class="cls-2" d="M388.7,391.8v12.5h2.5v-5h1.3c.6,0,1.1,0,1.6-.2.5-.2.9-.4,1.2-.7.4-.3.6-.7.8-1.2.2-.5.3-1,.3-1.7s0-.9-.2-1.4c-.1-.5-.3-.9-.6-1.2-.3-.3-.6-.6-1.1-.8-.4-.2-1-.3-1.6-.3h-4.4ZM391.2,397.4v-3.8h1c.6,0,1.1.2,1.3.5.3.3.4.8.4,1.4s-.2,1.1-.5,1.4c-.3.3-.7.5-1.2.5h-1.1Z"/>
      <polygon class="cls-10" points="163 337.3 163 333.1 165.9 335.2 163 337.3"/>
      <polygon class="cls-10" points="159.9 333.1 159.9 337.3 157 335.2 159.9 333.1"/>
      <rect class="cls-10" x="123.3" y="286" width="32.9" height="54.7"/>
      <rect class="cls-13" x="129.3" y="114.1" width="21.1" height="54.7"/>
    </g>
    <rect class="cls-18" x="478.7" y="73.6" width="13.5" height="12.8"/>
    <rect class="cls-18" x="410.6" y="72.8" width="13.5" height="12.8"/>
    <g>
      <path class="cls-2" d="M483.7,76.9v6.1h1.1v-2.4h.6c.3,0,.5,0,.7-.1.2,0,.4-.2.6-.3.2-.1.3-.3.4-.6,0-.2.1-.5.1-.8s0-.5,0-.7c0-.2-.1-.4-.3-.6-.1-.2-.3-.3-.5-.4-.2-.1-.4-.2-.7-.2h-2ZM484.8,79.7v-1.9h.5c.3,0,.5,0,.6.2.1.2.2.4.2.7s0,.5-.2.7c-.1.1-.3.2-.5.2h-.5Z"/>
      <path class="cls-2" d="M415.6,76.1v5.5h1v-2.2h.5c.2,0,.5,0,.7,0,.2,0,.4-.2.5-.3.1-.1.2-.3.3-.5,0-.2.1-.5.1-.7s0-.4,0-.6c0-.2-.1-.4-.2-.5-.1-.2-.2-.3-.4-.4-.2,0-.4-.1-.6-.1h-1.8ZM416.6,78.6v-1.7h.4c.3,0,.4,0,.5.2.1.1.2.4.2.6s0,.5-.2.6c-.1.1-.3.2-.5.2h-.4Z"/>
      <rect class="cls-18" x="422.5" y="17.7" width="26.7" height="12.8"/>
      <path class="cls-2" d="M435.8,21v6.1h1.1v-2.4h.6c.3,0,.5,0,.7-.1.2,0,.4-.2.6-.3.2-.1.3-.3.4-.6,0-.2.1-.5.1-.8s0-.5,0-.7c0-.2-.1-.4-.3-.6-.1-.2-.3-.3-.5-.4-.2-.1-.4-.2-.7-.2h-2ZM436.9,23.8v-1.9h.5c.3,0,.5,0,.6.2.1.2.2.4.2.7s0,.5-.2.7c-.1.1-.3.2-.5.2h-.5Z"/>
      <rect class="cls-13" x="246.5" y="46.4" width="30.3" height="59.6"/>
      <rect class="cls-18" x="373.8" y="21.3" width="3.5" height="76.7"/>
      <path class="cls-2" d="M374.5,56.6v4.5h.9v-1.8h.5c.2,0,.4,0,.6,0,.2,0,.3-.1.4-.2.1-.1.2-.3.3-.4,0-.2.1-.4.1-.6s0-.3,0-.5c0-.2-.1-.3-.2-.4,0-.1-.2-.2-.4-.3-.2,0-.3-.1-.6-.1h-1.6ZM375.4,58.6v-1.4h.4c.2,0,.4,0,.5.2,0,.1.1.3.1.5s0,.4-.2.5c-.1.1-.3.2-.4.2h-.4Z"/>
      <rect class="cls-17" x="428.4" y="102.8" width="56.8" height="13.8"/>
      <polygon class="cls-10" points="288.5 235.5 288.5 261 272.9 261 272.9 235.5 278 235.5 288.5 235.5"/>
      <polyline class="cls-10" points="123 200.6 123 214.5 94.9 214.5 94.9 200.6"/>
    </g>
    <polygon class="cls-10" points="190.4 208.8 190.4 220.6 171.3 220.6 171.3 208.8 177.5 208.8 190.4 208.8"/>
    <rect class="cls-20" x="405.2" y="99.8" width="88.1" height="2.1"/>
    <polygon class="cls-10" points="261.1 218.8 261.1 232.5 248.6 232.5 248.6 218.8 252.7 218.8 261.1 218.8"/>
    <polyline class="cls-10" points="261.8 241.3 261.8 251.3 204.3 251.3 204.3 241.3 209.4 241.3 219.8 241.3"/>
    <polygon class="cls-10" points="164.2 200.9 164.1 209.6 153.3 209.6 153.3 200.9 156.8 200.9 164.2 200.9"/>
    <rect class="cls-19" x="500" y="66.4" width="17.8" height="17.8"/>
    <rect class="cls-15" x="432" y="79.9" width="45.3" height="11.3"/>
    <rect class="cls-15" x="427.5" y="72.8" width="42.5" height="8.5"/>
    <rect class="cls-15" x="427.5" y="89.8" width="42.5" height="8.5"/>
    <rect class="cls-15" x="425.6" y="127" width="22.6" height="14.2" transform="translate(-8.5 236.4) rotate(-30)"/>
    <rect class="cls-10" x="453" y="17.4" width="51" height="25.5"/>
    <g>
      <path class="cls-1" d="M407.9,146.8c0-4,3.2-7.2,7.2-7.2s7.2,3.2,7.2,7.2-3.2,7.2-7.2,7.2-7.2-3.2-7.2-7.2"/>
      <path class="cls-1" d="M409.1,45.4c0-2.3,1.9-4.2,4.2-4.2s4.2,1.9,4.2,4.2-1.9,4.2-4.2,4.2-4.2-1.9-4.2-4.2"/>
      <path class="cls-1" d="M418.2,41.5c0-2.3,1.9-4.2,4.2-4.2s4.2,1.9,4.2,4.2-1.9,4.2-4.2,4.2-4.2-1.9-4.2-4.2"/>
      <polygon class="cls-20" points="405.3 164.5 520.9 120.6 520.9 117.5 405.3 160.5 405.3 164.5"/>
      <rect class="cls-20" x="493.2" y="70.3" width="3.4" height="58.7"/>
      <path class="cls-8" d="M501.4,54.6c0,5.8-20,10.5-44.7,10.5s-44.7-4.7-44.7-10.5,20-10.5,44.7-10.5,44.7,4.7,44.7,10.5"/>
      <path class="cls-20" d="M532.2,298.1c0,12.8-10.4,23.2-23.2,23.2s-23.2-10.4-23.2-23.2,10.4-23.2,23.2-23.2,23.2,10.4,23.2,23.2"/>
      <path class="cls-33" d="M532.2,298.1c0,12.8-10.4,23.2-23.2,23.2s-23.2-10.4-23.2-23.2,10.4-23.2,23.2-23.2,23.2,10.4,23.2,23.2Z"/>
      <rect class="cls-5" x="506.4" y="274.6" width="5.8" height="5.8" transform="translate(-47.1 441.2) rotate(-45)"/>
      <rect class="cls-5" x="506.3" y="315.8" width="5.8" height="5.8" transform="translate(-76.2 453.2) rotate(-45)"/>
      <path class="cls-33" d="M532.2,298.1c0,12.8-10.4,23.2-23.2,23.2s-23.2-10.4-23.2-23.2,10.4-23.2,23.2-23.2,23.2,10.4,23.2,23.2Z"/>
    </g>
    <text class="cls-30" transform="translate(494.4 303.9)"><tspan x="0" y="0">2,</tspan></text>
    <text class="cls-29" transform="translate(510.3 303.9)"><tspan x="0" y="0">2</tspan></text>
    <text class="cls-28" transform="translate(518.3 303.9)"><tspan x="0" y="0">m</tspan></text>
    <rect class="cls-6" x="292.8" y="332.5" width="19.8" height="19.8"/>
    <rect class="cls-36" x="292.8" y="332.5" width="19.8" height="19.8"/>
    <g>
      <path class="cls-21" d="M293,332.6h19.5c0,6.5,0,13,0,19.5-6.5,0-13,0-19.5,0v-19.5Z"/>
      <path class="cls-32" d="M293,332.6h19.5c0,6.5,0,13,0,19.5-6.5,0-13,0-19.5,0v-19.5Z"/>
      <path class="cls-6" d="M293.3,333c6.2,0,12.4,0,18.6,0,0,0,.1,0,.2,0,0,6.2,0,12.5,0,18.7,0,0-.1,0-.2,0-4.9,0-9.9,0-14.8,0-1.3,0-2.6,0-3.8,0,0-1.1,0-2.2,0-3.3,0-5.1,0-10.3,0-15.5"/>
      <path class="cls-36" d="M293.3,333c6.2,0,12.4,0,18.6,0,0,0,.1,0,.2,0,0,6.2,0,12.5,0,18.7,0,0-.1,0-.2,0-4.9,0-9.9,0-14.8,0-1.3,0-2.6,0-3.8,0,0-1.1,0-2.2,0-3.3,0-5.1,0-10.3,0-15.5Z"/>
      <path class="cls-21" d="M310.5,333.8c0,0,.2.2.3.3.2.2.4.3.5.5-.3.3-.6.6-.9.9-.4.4-.7.7-1.1,1.1-.1.1-.3.3-.4.4,0,0,0,0,0,.1.2,0,.5,0,.7,0,.4,0,.9,0,1.3,0-.3.3-.6.6-.9.9,0,.1-.2.2-.4.2-.4,0-.8,0-1.2,0-.3,0-.5,0-.8,0-.2,0-.5,0-.7,0,0-.3,0-.7,0-1,0-.6,0-1.1,0-1.7,0-.1,0-.3.1-.4.2-.2.3-.3.5-.5.2-.2.3-.3.5-.5,0,.2,0,.5,0,.7,0,.3,0,.7,0,1,0,.1,0,.2,0,.3.2,0,.2-.2.4-.3.6-.6,1.3-1.3,1.9-1.9.1-.1.2-.2.3-.4"/>
      <path class="cls-32" d="M310.5,333.8c0,0,.2.2.3.3.2.2.4.3.5.5-.3.3-.6.6-.9.9-.4.4-.7.7-1.1,1.1-.1.1-.3.3-.4.4,0,0,0,0,0,.1.2,0,.5,0,.7,0,.4,0,.9,0,1.3,0-.3.3-.6.6-.9.9,0,.1-.2.2-.4.2-.4,0-.8,0-1.2,0-.3,0-.5,0-.8,0-.2,0-.5,0-.7,0,0-.3,0-.7,0-1,0-.6,0-1.1,0-1.7,0-.1,0-.3.1-.4.2-.2.3-.3.5-.5.2-.2.3-.3.5-.5,0,.2,0,.5,0,.7,0,.3,0,.7,0,1,0,.1,0,.2,0,.3.2,0,.2-.2.4-.3.6-.6,1.3-1.3,1.9-1.9.1-.1.2-.2.3-.4Z"/>
      <path class="cls-21" d="M294.8,333.9c0,0,.2,0,.2,0,.6.7,1.3,1.3,2,2,.2.2.3.4.5.5.1-.1,0-.3,0-.4,0-.3,0-.7,0-1,0-.2,0-.4,0-.6.3.2.5.5.8.7,0,0,.2.2.3.3,0,.3,0,.7,0,1,0,.7,0,1.3,0,2-.3,0-.6,0-.9,0-.4,0-.8,0-1.2,0-.3,0-.5,0-.8,0-.2-.1-.3-.3-.5-.5-.2-.2-.4-.4-.6-.6.4,0,.9,0,1.3,0,.2,0,.4,0,.7,0,.1,0,0-.1,0-.2-.6-.7-1.3-1.3-2-2-.1-.1-.3-.2-.4-.4,0-.1,0-.2.2-.2.2-.1.3-.3.5-.5"/>
      <path class="cls-32" d="M294.8,333.9c0,0,.2,0,.2,0,.6.7,1.3,1.3,2,2,.2.2.3.4.5.5.1-.1,0-.3,0-.4,0-.3,0-.7,0-1,0-.2,0-.4,0-.6.3.2.5.5.8.7,0,0,.2.2.3.3,0,.3,0,.7,0,1,0,.7,0,1.3,0,2-.3,0-.6,0-.9,0-.4,0-.8,0-1.2,0-.3,0-.5,0-.8,0-.2-.1-.3-.3-.5-.5-.2-.2-.4-.4-.6-.6.4,0,.9,0,1.3,0,.2,0,.4,0,.7,0,.1,0,0-.1,0-.2-.6-.7-1.3-1.3-2-2-.1-.1-.3-.2-.4-.4,0-.1,0-.2.2-.2.2-.1.3-.3.5-.5Z"/>
      <path class="cls-21" d="M302.5,338c.3,0,.7.1.9.4.1.2.2.5.2.7,0,.2-.1.4-.2.6-.2.3-.6.4-1,.3-.4,0-.7-.4-.8-.8,0-.2,0-.4,0-.6.1-.4.5-.6.8-.6"/>
      <path class="cls-32" d="M302.5,338c.3,0,.7.1.9.4.1.2.2.5.2.7,0,.2-.1.4-.2.6-.2.3-.6.4-1,.3-.4,0-.7-.4-.8-.8,0-.2,0-.4,0-.6.1-.4.5-.6.8-.6Z"/>
      <path class="cls-21" d="M299.6,339.4c.2,0,.4,0,.6.1.4.2.6.6.6,1,0,.2-.1.5-.3.7-.1.1-.3.2-.5.2-.3,0-.6,0-.8-.2-.2-.1-.3-.3-.4-.5,0-.4,0-.8.3-1.1.1-.1.3-.2.5-.2"/>
      <path class="cls-32" d="M299.6,339.4c.2,0,.4,0,.6.1.4.2.6.6.6,1,0,.2-.1.5-.3.7-.1.1-.3.2-.5.2-.3,0-.6,0-.8-.2-.2-.1-.3-.3-.4-.5,0-.4,0-.8.3-1.1.1-.1.3-.2.5-.2Z"/>
      <path class="cls-21" d="M305,339.5c.2,0,.3,0,.5,0,.3.1.7.4.8.7.1.3,0,.7-.3,1-.1,0-.3.2-.5.2-.3,0-.7,0-.9-.2-.4-.3-.5-1-.2-1.4.2-.2.3-.3.6-.4"/>
      <path class="cls-32" d="M305,339.5c.2,0,.3,0,.5,0,.3.1.7.4.8.7.1.3,0,.7-.3,1-.1,0-.3.2-.5.2-.3,0-.7,0-.9-.2-.4-.3-.5-1-.2-1.4.2-.2.3-.3.6-.4Z"/>
      <path class="cls-21" d="M302.3,341c.3,0,.6,0,.9,0,.3.2.4.4.5.7,0,.4-.1.7-.4,1-.1.1-.3.1-.5.2-.3,0-.5,0-.7-.2-.3-.2-.4-.6-.4-.9,0-.3.2-.5.3-.7.1,0,.2-.1.3-.2"/>
      <path class="cls-32" d="M302.3,341c.3,0,.6,0,.9,0,.3.2.4.4.5.7,0,.4-.1.7-.4,1-.1.1-.3.1-.5.2-.3,0-.5,0-.7-.2-.3-.2-.4-.6-.4-.9,0-.3.2-.5.3-.7.1,0,.2-.1.3-.2Z"/>
      <path class="cls-21" d="M298,342.5c.1-.1.3-.2.5-.2.8,0,1.6,0,2.3,0,0,0,.2,0,.3,0,0,.2.1.3.3.5,0,0,.2.2.2.3-.2,0-.5,0-.7.1-.2,0-.4,0-.5.2-.1.1-.3.3-.3.5,0,.6,0,1.3,0,1.9-.4,0-.8,0-1.2,0,0-.8,0-1.6,0-2.4-.1,0-.2,0-.4,0,0,0,0,.2,0,.3,0,.7,0,1.5,0,2.2-.2,0-.4,0-.6,0,0-.8,0-1.5,0-2.3,0-.3,0-.7.2-1"/>
      <path class="cls-32" d="M298,342.5c.1-.1.3-.2.5-.2.8,0,1.6,0,2.3,0,0,0,.2,0,.3,0,0,.2.1.3.3.5,0,0,.2.2.2.3-.2,0-.5,0-.7.1-.2,0-.4,0-.5.2-.1.1-.3.3-.3.5,0,.6,0,1.3,0,1.9-.4,0-.8,0-1.2,0,0-.8,0-1.6,0-2.4-.1,0-.2,0-.4,0,0,0,0,.2,0,.3,0,.7,0,1.5,0,2.2-.2,0-.4,0-.6,0,0-.8,0-1.5,0-2.3,0-.3,0-.7.2-1Z"/>
      <path class="cls-21" d="M304.1,342.3c.8,0,1.7,0,2.5,0,.2,0,.4,0,.5.2.1.2.2.4.2.6,0,.9,0,1.9,0,2.8-.2,0-.5,0-.7,0,0-.8,0-1.5,0-2.3,0,0,0-.1,0-.2-.1,0-.2,0-.3,0,0,0,0,.1,0,.2,0,.7,0,1.5,0,2.2-.4,0-.8,0-1.2,0,0-.4,0-.8,0-1.1s0-.6,0-.9c0-.2-.2-.4-.4-.5-.1,0-.2,0-.3-.2-.2,0-.5,0-.7,0,0-.1.1-.2.2-.3.1-.2.2-.3.2-.5"/>
      <path class="cls-32" d="M304.1,342.3c.8,0,1.7,0,2.5,0,.2,0,.4,0,.5.2.1.2.2.4.2.6,0,.9,0,1.9,0,2.8-.2,0-.5,0-.7,0,0-.8,0-1.5,0-2.3,0,0,0-.1,0-.2-.1,0-.2,0-.3,0,0,0,0,.1,0,.2,0,.7,0,1.5,0,2.2-.4,0-.8,0-1.2,0,0-.4,0-.8,0-1.1s0-.6,0-.9c0-.2-.2-.4-.4-.5-.1,0-.2,0-.3-.2-.2,0-.5,0-.7,0,0-.1.1-.2.2-.3.1-.2.2-.3.2-.5Z"/>
      <path class="cls-21" d="M301,343.6c.1-.1.3,0,.5,0,.8,0,1.7,0,2.6,0,.3,0,.5.3.5.6,0,1,0,1.9,0,2.9-.2,0-.4,0-.7,0,0-.8,0-1.6,0-2.4,0,0-.2,0-.4,0,0,.8,0,1.5,0,2.3,0,.2-.2.2-.4.2-.4,0-.9,0-1.3,0,0-.8,0-1.6,0-2.4-.1,0-.2,0-.3,0,0,.1,0,.2,0,.4,0,.7,0,1.4,0,2-.2,0-.5,0-.7,0,0-1,0-2,0-3,0-.2.1-.4.3-.5"/>
      <path class="cls-32" d="M301,343.6c.1-.1.3,0,.5,0,.8,0,1.7,0,2.6,0,.3,0,.5.3.5.6,0,1,0,1.9,0,2.9-.2,0-.4,0-.7,0,0-.8,0-1.6,0-2.4,0,0-.2,0-.4,0,0,.8,0,1.5,0,2.3,0,.2-.2.2-.4.2-.4,0-.9,0-1.3,0,0-.8,0-1.6,0-2.4-.1,0-.2,0-.3,0,0,.1,0,.2,0,.4,0,.7,0,1.4,0,2-.2,0-.5,0-.7,0,0-1,0-2,0-3,0-.2.1-.4.3-.5Z"/>
      <path class="cls-21" d="M297.1,346.4c.5,0,.9,0,1.4,0,0,.3,0,.7,0,1,0,.6,0,1.3-.1,1.9-.3.3-.6.6-.9.9,0,0,0,0-.2,0,0-.2,0-.4,0-.6,0-.4,0-.7,0-1.1,0,0,0-.2,0-.3-.3.2-.4.4-.6.6-.2.1-.3.3-.4.5-.5.5-1,1-1.6,1.6-.2-.2-.4-.4-.6-.6,0,0,0-.1-.1-.2.5-.5.9-.9,1.4-1.4.3-.3.6-.7,1-1,0,0,0-.1,0-.2-.7,0-1.3,0-2,0,0,0,.1-.2.2-.2.3-.3.6-.6.9-.8.2,0,.4,0,.6,0,.3,0,.6,0,.9,0"/>
      <path class="cls-32" d="M297.1,346.4c.5,0,.9,0,1.4,0,0,.3,0,.7,0,1,0,.6,0,1.3-.1,1.9-.3.3-.6.6-.9.9,0,0,0,0-.2,0,0-.2,0-.4,0-.6,0-.4,0-.7,0-1.1,0,0,0-.2,0-.3-.3.2-.4.4-.6.6-.2.1-.3.3-.4.5-.5.5-1,1-1.6,1.6-.2-.2-.4-.4-.6-.6,0,0,0-.1-.1-.2.5-.5.9-.9,1.4-1.4.3-.3.6-.7,1-1,0,0,0-.1,0-.2-.7,0-1.3,0-2,0,0,0,.1-.2.2-.2.3-.3.6-.6.9-.8.2,0,.4,0,.6,0,.3,0,.6,0,.9,0Z"/>
      <path class="cls-21" d="M306.8,346.4c.3,0,.7,0,1,0,.4,0,.7,0,1,0,.3,0,.5,0,.8,0,.1,0,.2.1.3.2.2.2.5.5.7.7,0,0,.1.1.2.2-.4,0-.7,0-1.1,0-.3,0-.6,0-.9,0,0,.2.3.4.5.5.4.4.9.8,1.3,1.3.2.2.5.5.7.7,0,0,0,.1,0,.2-.2.2-.4.4-.7.6-.1,0-.2-.1-.3-.2-.6-.6-1.2-1.2-1.8-1.8-.2-.2-.4-.4-.6-.6,0,.1,0,.2,0,.3,0,.4,0,.8,0,1.1,0,.2,0,.3,0,.5,0,0-.1,0-.2,0-.2-.3-.5-.5-.7-.7,0,0-.2-.1-.2-.3,0-.4,0-.8,0-1.2,0-.3,0-.6,0-.9,0-.2,0-.5,0-.7"/>
      <path class="cls-32" d="M306.8,346.4c.3,0,.7,0,1,0,.4,0,.7,0,1,0,.3,0,.5,0,.8,0,.1,0,.2.1.3.2.2.2.5.5.7.7,0,0,.1.1.2.2-.4,0-.7,0-1.1,0-.3,0-.6,0-.9,0,0,.2.3.4.5.5.4.4.9.8,1.3,1.3.2.2.5.5.7.7,0,0,0,.1,0,.2-.2.2-.4.4-.7.6-.1,0-.2-.1-.3-.2-.6-.6-1.2-1.2-1.8-1.8-.2-.2-.4-.4-.6-.6,0,.1,0,.2,0,.3,0,.4,0,.8,0,1.1,0,.2,0,.3,0,.5,0,0-.1,0-.2,0-.2-.3-.5-.5-.7-.7,0,0-.2-.1-.2-.3,0-.4,0-.8,0-1.2,0-.3,0-.6,0-.9,0-.2,0-.5,0-.7Z"/>
      <polygon class="cls-3" points="108.1 196.5 113.4 196.5 110.7 200.2 108.1 196.5"/>
      <rect class="cls-20" x="405.3" y="67" width="91.2" height="3.4"/>
      <rect class="cls-18" x="476.7" y="382.4" width="13.7" height="16.7"/>
      <path class="cls-2" d="M480.7,387.8v9h1.8v-3.6h1c.4,0,.8,0,1.2-.2.4-.1.7-.3.9-.5.3-.2.4-.5.6-.8.1-.3.2-.7.2-1.2s0-.7-.1-1c0-.3-.2-.6-.4-.9-.2-.3-.5-.5-.8-.6-.3-.2-.7-.2-1.2-.2h-3.2ZM482.5,391.8v-2.7h.8c.5,0,.8.1,1,.4.2.2.3.6.3,1s-.1.8-.3,1c-.2.2-.5.3-.9.3h-.8Z"/>
      <rect class="cls-14" x="112.2" y="282.2" width="3.7" height="3.7"/>
      <path class="cls-20" d="M115.4,284.4c-.3.3-.6.4-.7.5-.2,0-.4.2-.7.2-.4,0-.6-.4-.6-.8.2,0,.3,0,.4,0v-.3c-.1,0-.2,0-.4,0,0-.3.2-.6.4-.8.1-.1.3-.2.5-.3v-.2c-.3,0-.7.1-1,.3-.4.3-.7.8-.6,1.4,0,.6.4,1,.7,1,.3,0,.6,0,.9,0,.3,0,.8-.3,1.1-.5v-.5Z"/>
      <path class="cls-20" d="M114.5,282.9c.2,0,.3.2.2.4-.1.4-.4.6-.9.6v.3c.8-.1,1.3-.4,1.4-.8,0-.2,0-.4-.1-.5-.1-.1-.2-.2-.4-.2,0,0-.2,0-.3,0v.2s0,0,.1,0"/>
      <rect class="cls-14" x="377.5" y="94.2" width="3.7" height="3.7"/>
      <path class="cls-20" d="M380.7,96.5c-.3.3-.6.4-.7.5-.2,0-.5.2-.7.2-.4,0-.6-.4-.6-.8.2,0,.3,0,.4,0v-.3c-.1,0-.2,0-.4,0,0-.4.2-.6.4-.8.1-.1.3-.2.5-.3v-.2c-.3,0-.7.1-1,.3-.4.3-.7.8-.6,1.4,0,.6.4,1,.7,1,.3,0,.6,0,.9,0,.3,0,.8-.3,1.1-.5v-.5Z"/>
      <path class="cls-20" d="M379.7,95c.2,0,.3.2.2.4-.1.4-.4.6-.9.6v.3c.8-.1,1.3-.4,1.4-.8,0-.2,0-.4-.1-.5-.1-.1-.2-.2-.4-.2,0,0-.2,0-.3,0v.2s0,0,.1,0"/>
      <rect class="cls-14" x="377.5" y="90" width="3.7" height="3.7"/>
      <path class="cls-20" d="M380.7,92.3c-.3.3-.6.4-.7.5-.2,0-.5.2-.7.2-.4,0-.6-.4-.6-.8.2,0,.3,0,.4,0v-.3c-.1,0-.2,0-.4,0,0-.4.2-.6.4-.8.1-.1.3-.2.5-.3v-.2c-.3,0-.7.1-1,.3-.4.3-.7.8-.6,1.4,0,.6.4,1,.7,1,.3,0,.6,0,.9,0,.3,0,.8-.3,1.1-.5v-.5Z"/>
      <path class="cls-20" d="M379.7,90.8c.2,0,.3.2.2.4-.1.4-.4.6-.9.6v.3c.8-.1,1.3-.4,1.4-.8,0-.2,0-.4-.1-.5-.1-.1-.2-.2-.4-.2,0,0-.2,0-.3,0v.2s0,0,.1,0"/>
      <rect class="cls-14" x="377.5" y="85.8" width="3.7" height="3.7"/>
      <path class="cls-20" d="M380.7,88.1c-.3.3-.6.4-.7.5-.2,0-.5.2-.7.2-.4,0-.6-.4-.6-.8.2,0,.3,0,.4,0v-.3c-.1,0-.2,0-.4,0,0-.4.2-.6.4-.8.1-.1.3-.2.5-.3v-.2c-.3,0-.7.1-1,.3-.4.3-.7.8-.6,1.4,0,.6.4,1,.7,1,.3,0,.6,0,.9,0,.3,0,.8-.3,1.1-.5v-.5Z"/>
      <path class="cls-20" d="M379.7,86.6c.2,0,.3.2.2.4-.1.4-.4.6-.9.6v.3c.8-.1,1.3-.4,1.4-.8,0-.2,0-.4-.1-.5-.1-.1-.2-.2-.4-.2,0,0-.2,0-.3,0v.2s0,0,.1,0"/>
      <rect class="cls-14" x="377.5" y="81.6" width="3.7" height="3.7"/>
      <path class="cls-20" d="M380.7,83.9c-.3.3-.6.4-.7.5-.2,0-.5.2-.7.2-.4,0-.6-.4-.6-.8.2,0,.3,0,.4,0v-.3c-.1,0-.2,0-.4,0,0-.4.2-.6.4-.8.1-.1.3-.2.5-.3v-.2c-.3,0-.7.1-1,.3-.4.3-.7.8-.6,1.4,0,.6.4,1,.7,1,.3,0,.6,0,.9,0,.3,0,.8-.3,1.1-.5v-.5Z"/>
      <path class="cls-20" d="M379.7,82.4c.2,0,.3.2.2.4-.1.4-.4.6-.9.6v.3c.8-.1,1.3-.4,1.4-.8,0-.2,0-.4-.1-.5-.1-.1-.2-.2-.4-.2,0,0-.2,0-.3,0v.2s0,0,.1,0"/>
      <rect class="cls-14" x="439.2" y="102" width="3.7" height="3.7"/>
      <path class="cls-20" d="M442.5,104.2c-.3.3-.6.4-.7.5-.2,0-.5.2-.7.2-.4,0-.6-.4-.6-.8.2,0,.3,0,.4,0v-.3c-.1,0-.2,0-.4,0,0-.4.2-.6.4-.8.1-.1.3-.2.5-.3v-.2c-.3,0-.7.1-1,.3-.4.3-.7.8-.6,1.4,0,.6.4,1,.7,1,.3,0,.6,0,.9,0,.3,0,.8-.3,1.1-.5v-.5Z"/>
      <path class="cls-20" d="M441.5,102.7c.2,0,.3.2.2.4-.1.4-.4.6-.9.6v.3c.8-.1,1.3-.4,1.4-.8,0-.2,0-.4-.1-.5-.1-.1-.2-.2-.4-.2,0,0-.2,0-.3,0v.2s0,0,.1,0"/>
      <rect class="cls-14" x="444" y="102" width="3.7" height="3.7"/>
      <path class="cls-20" d="M447.3,104.2c-.3.3-.6.4-.7.5-.2,0-.5.2-.7.2-.4,0-.6-.4-.6-.8.2,0,.3,0,.4,0v-.3c-.1,0-.2,0-.4,0,0-.4.2-.6.4-.8.1-.1.3-.2.5-.3v-.2c-.3,0-.7.1-1,.3-.4.3-.7.8-.6,1.4,0,.6.4,1,.7,1,.3,0,.6,0,.9,0,.3,0,.8-.3,1.1-.5v-.5Z"/>
      <path class="cls-20" d="M446.3,102.7c.2,0,.3.2.2.4-.1.4-.4.6-.9.6v.3c.8-.1,1.3-.4,1.4-.8,0-.2,0-.4-.1-.5-.1-.1-.2-.2-.4-.2,0,0-.2,0-.3,0v.2s0,0,.1,0"/>
      <rect class="cls-14" x="316.9" y="475.8" width="3.7" height="3.7"/>
      <path class="cls-20" d="M320.2,478c-.3.3-.6.4-.7.5-.2,0-.5.2-.7.2-.4,0-.6-.4-.6-.8.2,0,.3,0,.4,0v-.3c-.1,0-.2,0-.4,0,0-.3.2-.6.4-.8.1-.1.3-.2.5-.3v-.2c-.3,0-.7.1-1,.3-.4.3-.7.8-.6,1.4,0,.6.4,1,.7,1,.3,0,.6,0,.9,0,.3,0,.8-.3,1.1-.5v-.5Z"/>
      <path class="cls-20" d="M319.2,476.5c.2,0,.3.2.2.4-.1.4-.4.6-.9.6v.3c.8-.1,1.3-.4,1.4-.8,0-.2,0-.4-.1-.5-.1-.1-.2-.2-.4-.2,0,0-.2,0-.3,0v.2s0,0,.1,0"/>
      <rect class="cls-14" x="377.5" y="94.2" width="3.7" height="3.7"/>
      <path class="cls-20" d="M380.7,96.5c-.3.3-.6.4-.7.5-.2,0-.5.2-.7.2-.4,0-.6-.4-.6-.8.2,0,.3,0,.4,0v-.3c-.1,0-.2,0-.4,0,0-.4.2-.6.4-.8.1-.1.3-.2.5-.3v-.2c-.3,0-.7.1-1,.3-.4.3-.7.8-.6,1.4,0,.6.4,1,.7,1,.3,0,.6,0,.9,0,.3,0,.8-.3,1.1-.5v-.5Z"/>
      <path class="cls-20" d="M379.7,95c.2,0,.3.2.2.4-.1.4-.4.6-.9.6v.3c.8-.1,1.3-.4,1.4-.8,0-.2,0-.4-.1-.5-.1-.1-.2-.2-.4-.2,0,0-.2,0-.3,0v.2s0,0,.1,0"/>
      <rect class="cls-14" x="533.5" y="442.2" width="3.7" height="3.7"/>
      <path class="cls-20" d="M536.7,444.5c-.3.3-.6.4-.7.5-.2,0-.5.2-.7.2-.4,0-.6-.4-.6-.8.2,0,.3,0,.4,0v-.3c-.1,0-.2,0-.4,0,0-.3.2-.6.4-.8.1-.1.3-.2.5-.3v-.2c-.3,0-.7.1-1,.3-.4.3-.7.8-.6,1.4,0,.6.4,1,.7,1,.3,0,.6,0,.9,0,.3,0,.8-.3,1.1-.5v-.5Z"/>
      <path class="cls-20" d="M535.8,443c.2,0,.3.2.2.4-.1.4-.4.6-.9.6v.3c.8-.1,1.3-.4,1.4-.8,0-.2,0-.4-.1-.5-.1-.1-.2-.2-.4-.2,0,0-.2,0-.3,0v.2s0,0,.1,0"/>
      <rect class="cls-18" x="211.1" y="8.9" width="7.5" height="21.1"/>
    </g>
    <text class="cls-26" transform="translate(442.9 58.3)"><tspan x="0" y="0">Pond</tspan></text>
    <text class="cls-25" transform="translate(377.6 11.1)"><tspan x="0" y="0">FREIS</tspan></text>
    <text class="cls-25" transform="translate(405.8 11.1)"><tspan x="0" y="0">T</tspan></text>
    <text class="cls-25" transform="translate(410.7 11.1)"><tspan x="0" y="0">ADT</tspan></text>
    <text class="cls-25" transform="translate(404.1 191.5) rotate(-90)"><tspan x="0" y="0">Hauptstraße</tspan></text>
    <text class="cls-25" transform="translate(505 462.2)"><tspan x="0" y="0">LINZ</tspan></text>
    <line class="cls-35" x1="501.8" y1="127.1" x2="522.1" y2="120"/>
    <polygon class="cls-4" points="521.5 119.9 520.8 117.4 527.7 118.2 522.1 122.4 521.5 119.9"/>
    <text class="cls-24" transform="translate(432.6 113.4)"><tspan x="0" y="0">Park Hotel</tspan></text>
    <text class="cls-22" transform="translate(309.9 309.9)"><tspan x="0" y="0"> </tspan></text>
    <rect class="cls-18" x="72.4" y="286" width="18.5" height="7.5"/>
    <path class="cls-2" d="M80.4,287.3v4.9h1v-2h.5c.2,0,.5,0,.6,0,.2,0,.4-.2.5-.3.1-.1.2-.3.3-.5,0-.2.1-.4.1-.7s0-.4,0-.5c0-.2-.1-.3-.2-.5-.1-.1-.2-.2-.4-.3-.2,0-.4-.1-.6-.1h-1.7ZM81.4,289.6v-1.5h.4c.2,0,.4,0,.5.2.1.1.2.3.2.6s0,.4-.2.6c-.1.1-.3.2-.5.2h-.4Z"/>
    <rect class="cls-18" x="67.5" y="251.5" width="7.5" height="21.1"/>
    <path class="cls-2" d="M69.8,260v4.9h1v-2h.5c.2,0,.5,0,.6,0,.2,0,.4-.2.5-.3.1-.1.2-.3.3-.5,0-.2.1-.4.1-.7s0-.4,0-.5c0-.2-.1-.3-.2-.5-.1-.1-.2-.2-.4-.3-.2,0-.4-.1-.6-.1h-1.7ZM70.8,262.2v-1.5h.4c.2,0,.4,0,.5.2.1.1.2.3.2.6s0,.4-.2.6c-.1.1-.3.2-.5.2h-.4Z"/>
    <path class="cls-2" d="M213.3,16.9v4.9h1v-2h.5c.2,0,.5,0,.6,0,.2,0,.4-.1.5-.3.1-.1.2-.3.3-.5,0-.2.1-.4.1-.7s0-.4,0-.5c0-.2-.1-.3-.2-.5-.1-.1-.2-.2-.4-.3-.2,0-.4-.1-.6-.1h-1.7ZM214.3,19.2v-1.5h.4c.2,0,.4,0,.5.2.1.1.2.3.2.6s0,.4-.2.6c-.1.1-.3.2-.5.2h-.4Z"/>
    <rect class="cls-14" x="100.4" y="282.2" width="3.7" height="3.7"/>
    <g>
      <path class="cls-20" d="M103.6,284.4c-.3.3-.6.4-.7.5-.2,0-.5.2-.7.2-.4,0-.6-.4-.6-.8.2,0,.3,0,.4,0v-.3c-.1,0-.2,0-.4,0,0-.4.2-.6.4-.8.1-.1.3-.2.5-.3v-.2c-.3,0-.7.1-1,.3-.4.3-.7.8-.6,1.4,0,.6.4,1,.7,1,.3,0,.6,0,.9,0,.3,0,.8-.3,1.1-.5v-.5Z"/>
      <path class="cls-20" d="M102.7,282.9c.2,0,.3.2.2.4-.1.4-.4.6-.9.6v.3c.8-.1,1.3-.4,1.4-.8,0-.2,0-.4-.1-.5-.1-.1-.2-.2-.4-.2,0,0-.2,0-.3,0v.2s0,0,.1,0"/>
      <rect class="cls-14" x="95.9" y="282.2" width="3.7" height="3.7"/>
      <path class="cls-20" d="M99.2,284.4c-.3.3-.6.4-.7.5-.2,0-.5.2-.7.2-.4,0-.6-.4-.6-.8.2,0,.3,0,.4,0v-.3c-.1,0-.2,0-.4,0,0-.4.2-.6.4-.8.1-.1.3-.2.5-.3v-.2c-.3,0-.7.1-1,.3-.4.3-.7.8-.6,1.4,0,.6.4,1,.7,1,.3,0,.6,0,.9,0,.3,0,.8-.3,1.1-.5v-.5Z"/>
      <path class="cls-20" d="M98.2,282.9c.2,0,.3.2.2.4-.1.4-.4.6-.9.6v.3c.8-.1,1.3-.4,1.4-.8,0-.2,0-.4-.1-.5-.1-.1-.2-.2-.4-.2,0,0-.2,0-.3,0v.2s0,0,.1,0"/>
      <rect class="cls-14" x="104.8" y="282.2" width="3.7" height="3.7"/>
      <path class="cls-20" d="M108,284.4c-.3.3-.6.4-.7.5-.2,0-.4.2-.7.2-.4,0-.6-.4-.6-.8.2,0,.3,0,.4,0v-.3c-.1,0-.2,0-.4,0,0-.3.2-.6.4-.8.1-.1.3-.2.5-.3v-.2c-.3,0-.7.1-1,.3-.4.3-.7.8-.6,1.4,0,.6.4,1,.7,1,.3,0,.6,0,.9,0,.3,0,.8-.3,1.1-.5v-.5Z"/>
      <path class="cls-20" d="M107.1,282.9c.2,0,.3.2.2.4-.1.4-.4.6-.9.6v.3c.8-.1,1.3-.4,1.4-.8,0-.2,0-.4-.1-.5-.1-.1-.2-.2-.4-.2,0,0-.2,0-.3,0v.2s0,0,.1,0"/>
      <rect class="cls-14" x="91.6" y="282.2" width="3.7" height="3.7"/>
      <path class="cls-20" d="M94.8,284.4c-.3.3-.6.4-.7.5-.2,0-.5.2-.7.2-.4,0-.6-.4-.6-.8.2,0,.3,0,.4,0v-.3c-.1,0-.2,0-.4,0,0-.4.2-.6.4-.8.1-.1.3-.2.5-.3v-.2c-.3,0-.7.1-1,.3-.4.3-.7.8-.6,1.4,0,.6.4,1,.7,1,.3,0,.6,0,.9,0,.3,0,.8-.3,1.1-.5v-.5Z"/>
      <path class="cls-20" d="M93.8,282.9c.2,0,.3.2.2.4-.1.4-.4.6-.9.6v.3c.8-.1,1.3-.4,1.4-.8,0-.2,0-.4-.1-.5-.1-.1-.2-.2-.4-.2,0,0-.2,0-.3,0v.2s0,0,.1,0"/>
    </g>
    <rect class="cls-7" x="393.4" y="212.7" width="14" height="14"/>
    <rect class="cls-34" x="393.4" y="212.7" width="14" height="14"/>
    <text class="cls-27" transform="translate(395 223.9) scale(1.3 1)"><tspan x="0" y="0">H</tspan></text>
    <text class="cls-38" transform="translate(409.2 219.5)"><tspan x="0" y="0">Hagenbe</tspan><tspan class="cls-40" x="26.7" y="0">r</tspan><tspan x="28.9" y="0">g i. M. </tspan></text>
    <text class="cls-38" transform="translate(409.2 225.4)"><tspan class="cls-47" x="0" y="0">S</tspan><tspan x="3.5" y="0">o</tspan><tspan class="cls-43" x="7.3" y="0">f</tspan><tspan class="cls-42" x="9.4" y="0">t</tspan><tspan class="cls-45" x="11.8" y="0">w</tspan><tspan x="16.9" y="0">a</tspan><tspan class="cls-39" x="20.3" y="0">r</tspan><tspan class="cls-41" x="22.5" y="0">epa</tspan><tspan class="cls-49" x="33.4" y="0">r</tspan><tspan x="35.7" y="0">k</tspan></text>
    <text class="cls-38" transform="translate(453 442.5)"><tspan x="0" y="0">Hagenbe</tspan><tspan class="cls-46" x="26.7" y="0">r</tspan><tspan x="28.9" y="0">g i. M. </tspan></text>
    <text class="cls-38" transform="translate(462.9 448.5)"><tspan x="0" y="0">O</tspan><tspan class="cls-44" x="4.8" y="0">r</tspan><tspan x="7.3" y="0">tsmit</tspan><tspan class="cls-48" x="22.1" y="0">t</tspan><tspan x="24.4" y="0">e</tspan></text>
    <rect class="cls-7" x="467" y="450.3" width="14" height="14"/>
    <rect class="cls-34" x="467" y="450.3" width="14" height="14"/>
    <text class="cls-27" transform="translate(468.7 461.5) scale(1.3 1)"><tspan x="0" y="0">H</tspan></text>
  </g>
  <g>
    <path class="cls-5" d="M9.7,64.9l4.7-.3c.1.8.3,1.4.6,1.8.5.7,1.2,1,2.2,1s1.3-.2,1.6-.5.6-.7.6-1.2-.2-.8-.6-1.1c-.4-.3-1.2-.6-2.6-.9-2.2-.5-3.7-1.1-4.7-2-.9-.8-1.4-1.9-1.4-3.1s.2-1.6.7-2.4c.5-.7,1.2-1.3,2.2-1.7,1-.4,2.3-.6,4-.6s3.6.4,4.7,1.2c1.1.8,1.7,2,1.9,3.7l-4.7.3c-.1-.7-.4-1.3-.8-1.6-.4-.3-1-.5-1.7-.5s-1,.1-1.3.4c-.3.2-.4.5-.4.9s.1.5.4.7c.2.2.8.4,1.7.6,2.2.5,3.7.9,4.7,1.4s1.6,1.1,2.1,1.8c.4.7.6,1.5.6,2.4s-.3,2-.9,2.9c-.6.9-1.4,1.5-2.4,2-1,.5-2.3.7-3.9.7-2.7,0-4.6-.5-5.7-1.6s-1.7-2.4-1.8-4Z"/>
    <path class="cls-5" d="M26.3,62.2c0-2.6.7-4.7,2.2-6.2s3.5-2.2,6.1-2.2,4.8.7,6.2,2.2c1.5,1.4,2.2,3.5,2.2,6.1s-.3,3.4-1,4.6c-.6,1.2-1.6,2.1-2.8,2.8-1.2.7-2.7,1-4.5,1s-3.3-.3-4.5-.9c-1.2-.6-2.2-1.5-2.9-2.8s-1.1-2.8-1.1-4.7ZM31.2,62.2c0,1.6.3,2.8.9,3.5.6.7,1.4,1.1,2.5,1.1s1.9-.3,2.5-1c.6-.7.9-1.9.9-3.8s-.3-2.6-.9-3.3c-.6-.7-1.4-1.1-2.5-1.1s-1.8.4-2.4,1.1c-.6.7-.9,1.9-.9,3.5Z"/>
    <path class="cls-5" d="M45.7,54.1h12.3v3.5h-7.3v2.8h6.3v3.3h-6.3v6.6h-5v-16.1Z"/>
    <path class="cls-5" d="M59.6,54.1h15.2v4h-5.1v12.2h-5v-12.2h-5.1v-4Z"/>
    <path class="cls-5" d="M75.3,54.1h4.7l1.7,9,2.5-9h4.7l2.5,9,1.7-9h4.7l-3.6,16.1h-4.9l-2.8-10.2-2.8,10.2h-4.9l-3.6-16.1Z"/>
    <path class="cls-5" d="M109.5,67.6h-5.7l-.8,2.7h-5.1l6.1-16.1h5.4l6.1,16.1h-5.2l-.8-2.7ZM108.4,64.1l-1.8-5.8-1.8,5.8h3.5Z"/>
    <path class="cls-5" d="M117.2,70.3v-16.1h8.3c1.5,0,2.7.1,3.5.4s1.5.8,2,1.5c.5.7.7,1.6.7,2.6s-.2,1.7-.6,2.3c-.4.6-.9,1.2-1.6,1.6-.4.3-1,.5-1.8.6.6.2,1,.4,1.3.6.2.1.4.4.8.8s.6.8.7,1l2.4,4.7h-5.6l-2.7-4.9c-.3-.6-.6-1.1-.9-1.2-.4-.2-.8-.4-1.2-.4h-.4v6.6h-5ZM122.2,60.7h2.1c.2,0,.7,0,1.3-.2.3,0,.6-.2.8-.5s.3-.6.3-.9c0-.5-.2-.9-.5-1.2-.3-.3-1-.4-1.9-.4h-2.2v3.3Z"/>
    <path class="cls-5" d="M134.6,54.1h13.4v3.4h-8.4v2.6h7.8v3.3h-7.8v3.2h8.6v3.7h-13.6v-16.1Z"/>
    <path class="cls-5" d="M150.9,54.1h8.3c1.8,0,3.2.4,4.1,1.3s1.3,2.1,1.3,3.7-.5,2.9-1.5,3.8c-1,.9-2.5,1.4-4.5,1.4h-2.7v6h-5v-16.1ZM155.9,61h1.2c1,0,1.6-.2,2-.5.4-.3.6-.8.6-1.3s-.2-.9-.5-1.3c-.3-.4-1-.5-1.9-.5h-1.4v3.6Z"/>
    <path class="cls-5" d="M175.2,67.6h-5.7l-.8,2.7h-5.1l6.1-16.1h5.4l6.1,16.1h-5.2l-.8-2.7ZM174.2,64.1l-1.8-5.8-1.8,5.8h3.5Z"/>
    <path class="cls-5" d="M182.9,70.3v-16.1h8.3c1.5,0,2.7.1,3.5.4s1.5.8,2,1.5c.5.7.7,1.6.7,2.6s-.2,1.7-.6,2.3c-.4.6-.9,1.2-1.6,1.6-.4.3-1,.5-1.8.6.6.2,1,.4,1.3.6.2.1.4.4.8.8s.6.8.7,1l2.4,4.7h-5.6l-2.7-4.9c-.3-.6-.6-1.1-.9-1.2-.4-.2-.8-.4-1.2-.4h-.4v6.6h-5ZM187.9,60.7h2.1c.2,0,.7,0,1.3-.2.3,0,.6-.2.8-.5s.3-.6.3-.9c0-.5-.2-.9-.5-1.2-.3-.3-1-.4-1.9-.4h-2.2v3.3Z"/>
    <path class="cls-5" d="M200.4,54.1h5v6.1l5.2-6.1h6.6l-5.9,6.1,6.2,10.1h-6.1l-3.4-6.6-2.6,2.7v3.9h-5v-16.1Z"/>
    <path class="cls-5" d="M10.6,81.2h5v5.6h5.5v-5.6h5v16.1h-5v-6.5h-5.5v6.5h-5v-16.1Z"/>
    <path class="cls-5" d="M39.3,94.7h-5.7l-.8,2.7h-5.1l6.1-16.1h5.4l6.1,16.1h-5.2l-.8-2.7ZM38.3,91.2l-1.8-5.8-1.8,5.8h3.5Z"/>
    <path class="cls-5" d="M54.6,91.5v-3.4h7.7v6.9c-1.5,1-2.8,1.7-3.9,2.1-1.1.4-2.5.5-4,.5s-3.5-.3-4.7-1c-1.2-.7-2.1-1.6-2.8-2.9-.7-1.3-1-2.8-1-4.4s.4-3.3,1.1-4.6c.7-1.3,1.8-2.3,3.2-3,1.1-.5,2.6-.8,4.4-.8s3.1.2,4,.5c.9.3,1.6.8,2.2,1.5.6.7,1,1.5,1.3,2.6l-4.8.9c-.2-.6-.5-1.1-1-1.4-.5-.3-1.1-.5-1.8-.5-1.1,0-2,.4-2.6,1.1-.6.8-1,2-1,3.6s.3,3,1,3.7c.7.7,1.6,1.1,2.7,1.1s1.1,0,1.6-.2c.5-.2,1.1-.4,1.7-.8v-1.5h-3.3Z"/>
    <path class="cls-5" d="M65.3,81.2h13.4v3.4h-8.4v2.6h7.8v3.3h-7.8v3.2h8.6v3.7h-13.6v-16.1Z"/>
    <path class="cls-5" d="M81.6,81.2h4.7l6.1,8.9v-8.9h4.7v16.1h-4.7l-6-8.9v8.9h-4.7v-16.1Z"/>
    <path class="cls-5" d="M100.4,81.2h9.3c1.6,0,2.8.4,3.6,1.2.8.8,1.2,1.7,1.2,2.9s-.3,1.8-.9,2.5-1,.8-1.7,1.1c1.2.3,2,.8,2.6,1.4.5.7.8,1.5.8,2.6s-.2,1.6-.6,2.3-.9,1.2-1.6,1.6c-.4.2-1.1.4-1.9.5-1.1.1-1.9.2-2.2.2h-8.6v-16.1ZM105.4,87.5h2.2c.8,0,1.3-.1,1.6-.4s.5-.7.5-1.2-.2-.8-.5-1.1-.8-.4-1.6-.4h-2.2v3.1ZM105.4,93.9h2.5c.9,0,1.5-.2,1.8-.5.4-.3.5-.7.5-1.2s-.2-.9-.5-1.2-1-.4-1.8-.4h-2.5v3.3Z"/>
    <path class="cls-5" d="M117.9,81.2h13.4v3.4h-8.4v2.6h7.8v3.3h-7.8v3.2h8.6v3.7h-13.6v-16.1Z"/>
    <path class="cls-5" d="M134.3,97.3v-16.1h8.3c1.5,0,2.7.1,3.5.4s1.5.8,2,1.5c.5.7.7,1.6.7,2.6s-.2,1.7-.6,2.3c-.4.6-.9,1.2-1.6,1.6-.4.3-1,.5-1.8.6.6.2,1,.4,1.3.6.2.1.4.4.8.8s.6.8.7,1l2.4,4.7h-5.6l-2.7-4.9c-.3-.6-.6-1.1-.9-1.2-.4-.2-.8-.4-1.2-.4h-.4v6.6h-5ZM139.3,87.7h2.1c.2,0,.7,0,1.3-.2.3,0,.6-.2.8-.5s.3-.6.3-.9c0-.5-.2-.9-.5-1.2-.3-.3-1-.4-1.9-.4h-2.2v3.3Z"/>
    <path class="cls-5" d="M159.5,91.5v-3.4h7.7v6.9c-1.5,1-2.8,1.7-3.9,2.1-1.1.4-2.5.5-4,.5s-3.5-.3-4.7-1c-1.2-.7-2.1-1.6-2.8-2.9-.7-1.3-1-2.8-1-4.4s.4-3.3,1.1-4.6c.7-1.3,1.8-2.3,3.2-3,1.1-.5,2.6-.8,4.4-.8s3.1.2,4,.5c.9.3,1.6.8,2.2,1.5.6.7,1,1.5,1.3,2.6l-4.8.9c-.2-.6-.5-1.1-1-1.4-.5-.3-1.1-.5-1.8-.5-1.1,0-2,.4-2.6,1.1-.6.8-1,2-1,3.6s.3,3,1,3.7c.7.7,1.6,1.1,2.7,1.1s1.1,0,1.6-.2c.5-.2,1.1-.4,1.7-.8v-1.5h-3.3Z"/>
  </g>
  <g>
    <path class="cls-10" d="M5.3,305.1h3.5v4h3.9v-4h3.6v11.5h-3.6v-4.6h-3.9v4.6h-3.5v-11.5Z"/>
    <path class="cls-10" d="M25.6,314.6h-4l-.6,1.9h-3.6l4.3-11.5h3.9l4.3,11.5h-3.7l-.6-1.9ZM24.9,312.2l-1.3-4.1-1.3,4.1h2.5Z"/>
    <path class="cls-10" d="M36.5,312.4v-2.4h5.5v4.9c-1,.7-2,1.2-2.8,1.5s-1.8.4-2.9.4-2.5-.2-3.3-.7c-.9-.5-1.5-1.2-2-2.1-.5-.9-.7-2-.7-3.2s.3-2.3.8-3.3,1.3-1.6,2.3-2.1c.8-.4,1.8-.6,3.1-.6s2.2.1,2.8.3c.6.2,1.1.6,1.6,1.1s.7,1.1.9,1.8l-3.4.6c-.1-.4-.4-.8-.7-1s-.8-.3-1.3-.3c-.8,0-1.4.3-1.9.8s-.7,1.4-.7,2.6.2,2.1.7,2.7c.5.5,1.1.8,1.9.8s.8,0,1.1-.2.8-.3,1.2-.6v-1.1h-2.4Z"/>
    <path class="cls-10" d="M44.1,305.1h9.5v2.4h-5.9v1.8h5.5v2.3h-5.5v2.3h6.1v2.6h-9.7v-11.5Z"/>
    <path class="cls-10" d="M55.7,305.1h3.3l4.3,6.3v-6.3h3.3v11.5h-3.3l-4.3-6.3v6.3h-3.3v-11.5Z"/>
    <path class="cls-10" d="M69,305.1h6.6c1.1,0,2,.3,2.5.8.6.5.9,1.2.9,2s-.2,1.3-.6,1.7c-.3.3-.7.6-1.2.8.8.2,1.4.5,1.8,1,.4.5.6,1.1.6,1.8s-.1,1.1-.4,1.6c-.3.5-.7.8-1.1,1.1-.3.2-.7.3-1.3.4-.8.1-1.3.2-1.6.2h-6.1v-11.5ZM72.5,309.6h1.5c.6,0,.9,0,1.2-.3.2-.2.3-.5.3-.8s-.1-.6-.3-.8c-.2-.2-.6-.3-1.1-.3h-1.6v2.2ZM72.5,314.1h1.8c.6,0,1-.1,1.3-.3s.4-.5.4-.9-.1-.6-.4-.8c-.2-.2-.7-.3-1.3-.3h-1.8v2.3Z"/>
    <path class="cls-10" d="M81.4,305.1h9.5v2.4h-5.9v1.8h5.5v2.3h-5.5v2.3h6.1v2.6h-9.7v-11.5Z"/>
    <path class="cls-10" d="M93,316.5v-11.5h5.9c1.1,0,1.9,0,2.5.3s1,.5,1.4,1c.4.5.5,1.1.5,1.9s-.1,1.2-.4,1.6c-.3.5-.6.8-1.1,1.1-.3.2-.7.3-1.2.5.4.1.7.3.9.4.1,0,.3.3.6.6.2.3.4.5.5.7l1.7,3.3h-4l-1.9-3.5c-.2-.5-.5-.7-.6-.9-.3-.2-.5-.3-.9-.3h-.3v4.6h-3.6ZM96.6,309.7h1.5c.2,0,.5,0,.9-.2.2,0,.4-.2.6-.4s.2-.4.2-.7c0-.4-.1-.7-.4-.9s-.7-.3-1.3-.3h-1.6v2.3Z"/>
    <path class="cls-10" d="M110.9,312.4v-2.4h5.5v4.9c-1,.7-2,1.2-2.8,1.5s-1.8.4-2.9.4-2.5-.2-3.3-.7c-.9-.5-1.5-1.2-2-2.1-.5-.9-.7-2-.7-3.2s.3-2.3.8-3.3,1.3-1.6,2.3-2.1c.8-.4,1.8-.6,3.1-.6s2.2.1,2.8.3c.6.2,1.1.6,1.6,1.1s.7,1.1.9,1.8l-3.4.6c-.1-.4-.4-.8-.7-1s-.8-.3-1.3-.3c-.8,0-1.4.3-1.9.8s-.7,1.4-.7,2.6.2,2.1.7,2.7c.5.5,1.1.8,1.9.8s.8,0,1.1-.2.8-.3,1.2-.6v-1.1h-2.4Z"/>
    <path class="cls-10" d="M12.9,331.1l3.1.9c-.2.9-.5,1.6-1,2.2-.4.6-1,1-1.7,1.3s-1.5.4-2.5.4-2.3-.2-3.1-.5c-.8-.4-1.5-1-2-1.9-.6-.9-.9-2.1-.9-3.5s.5-3.4,1.5-4.4,2.4-1.5,4.3-1.5,2.6.3,3.4.9c.8.6,1.4,1.5,1.8,2.7l-3.1.7c-.1-.3-.2-.6-.3-.8-.2-.3-.4-.5-.7-.6-.3-.1-.6-.2-1-.2-.8,0-1.4.3-1.8,1-.3.5-.5,1.2-.5,2.3s.2,2.1.6,2.6c.4.5.9.7,1.6.7s1.2-.2,1.5-.6c.3-.4.6-.9.8-1.7Z"/>
    <path class="cls-10" d="M24.7,333.8h-4l-.6,1.9h-3.6l4.3-11.5h3.9l4.3,11.5h-3.7l-.6-1.9ZM24,331.4l-1.3-4.1-1.3,4.1h2.5Z"/>
    <path class="cls-10" d="M30.1,324.3h4.7l1.8,7,1.8-7h4.7v11.5h-2.9v-8.7l-2.2,8.7h-2.6l-2.2-8.7v8.7h-2.9v-11.5Z"/>
    <path class="cls-10" d="M45.2,324.3h5.9c1.3,0,2.2.3,2.9.9.6.6,1,1.5,1,2.6s-.3,2.1-1,2.7-1.8,1-3.2,1h-1.9v4.2h-3.6v-11.5ZM48.8,329.2h.9c.7,0,1.2-.1,1.4-.4.3-.2.4-.5.4-.9s-.1-.7-.4-.9c-.2-.2-.7-.4-1.4-.4h-1v2.6Z"/>
    <path class="cls-10" d="M64.3,324.3h3.5v6.8c0,.7-.1,1.3-.3,1.9-.2.6-.5,1.1-1,1.6-.5.5-.9.8-1.4.9-.7.3-1.5.4-2.5.4s-1.2,0-1.8-.1c-.7,0-1.2-.2-1.7-.5-.4-.2-.8-.6-1.2-1s-.6-.9-.8-1.3c-.2-.7-.3-1.4-.3-1.9v-6.8h3.5v7c0,.6.2,1.1.5,1.5.3.4.8.5,1.4.5s1.1-.2,1.4-.5c.3-.3.5-.8.5-1.5v-7Z"/>
    <path class="cls-10" d="M69.5,331.9l3.4-.2c0,.5.2,1,.4,1.2.4.5.9.7,1.6.7s.9-.1,1.2-.4.4-.5.4-.8-.1-.6-.4-.8c-.3-.2-.9-.5-1.8-.7-1.6-.3-2.7-.8-3.3-1.4-.7-.6-1-1.3-1-2.2s.2-1.1.5-1.7c.3-.5.9-.9,1.5-1.2.7-.3,1.6-.4,2.8-.4s2.6.3,3.3.8c.8.5,1.2,1.4,1.4,2.6l-3.3.2c0-.5-.3-.9-.6-1.1-.3-.2-.7-.4-1.2-.4s-.7,0-.9.3c-.2.2-.3.4-.3.6s0,.3.3.5c.2.2.6.3,1.2.4,1.5.3,2.7.7,3.3,1,.7.3,1.2.8,1.5,1.3s.5,1.1.5,1.7-.2,1.4-.6,2-1,1.1-1.7,1.4c-.7.3-1.6.5-2.8.5-1.9,0-3.3-.4-4-1.1s-1.2-1.7-1.3-2.9Z"/>
  </g>
  <polyline class="cls-18" points="373.7 311.7 355.5 298.9 373.7 286.1"/>
  <g>
    <path class="cls-18" d="M389.7,284.2h-4l-.6,1.9h-3.6l4.3-11.5h3.9l4.3,11.5h-3.7l-.6-1.9ZM389,281.7l-1.3-4.1-1.3,4.1h2.5Z"/>
    <path class="cls-18" d="M402.4,281.4l3.1.9c-.2.9-.5,1.6-1,2.2-.4.6-1,1-1.7,1.3s-1.5.4-2.5.4-2.3-.2-3.1-.5c-.8-.4-1.5-1-2-1.9s-.9-2.1-.9-3.5.5-3.4,1.5-4.4,2.4-1.5,4.3-1.5,2.6.3,3.4.9c.8.6,1.4,1.5,1.8,2.7l-3.1.7c-.1-.3-.2-.6-.3-.8-.2-.3-.4-.5-.7-.6-.3-.1-.6-.2-1-.2-.8,0-1.4.3-1.8,1-.3.5-.5,1.2-.5,2.3s.2,2.1.6,2.6.9.7,1.6.7,1.2-.2,1.5-.6c.3-.4.6-.9.8-1.7Z"/>
    <path class="cls-18" d="M414.9,281.4l3.1.9c-.2.9-.5,1.6-1,2.2-.4.6-1,1-1.7,1.3s-1.5.4-2.5.4-2.3-.2-3.1-.5c-.8-.4-1.5-1-2-1.9s-.9-2.1-.9-3.5.5-3.4,1.5-4.4,2.4-1.5,4.3-1.5,2.6.3,3.4.9c.8.6,1.4,1.5,1.8,2.7l-3.1.7c-.1-.3-.2-.6-.3-.8-.2-.3-.4-.5-.7-.6-.3-.1-.6-.2-1-.2-.8,0-1.4.3-1.8,1-.3.5-.5,1.2-.5,2.3s.2,2.1.6,2.6.9.7,1.6.7,1.2-.2,1.5-.6c.3-.4.6-.9.8-1.7Z"/>
    <path class="cls-18" d="M419.7,274.6h9.5v2.4h-5.9v1.8h5.5v2.3h-5.5v2.3h6.1v2.6h-9.7v-11.5Z"/>
    <path class="cls-18" d="M430.6,282.3l3.4-.2c0,.5.2,1,.4,1.2.4.5.9.7,1.6.7s.9-.1,1.2-.4c.3-.2.4-.5.4-.8s-.1-.6-.4-.8-.9-.5-1.8-.7c-1.6-.3-2.7-.8-3.3-1.4-.7-.6-1-1.3-1-2.2s.2-1.1.5-1.7.9-.9,1.5-1.2c.7-.3,1.6-.4,2.8-.4s2.6.3,3.3.8c.8.5,1.2,1.4,1.4,2.6l-3.3.2c0-.5-.3-.9-.6-1.1s-.7-.4-1.2-.4-.7,0-.9.3c-.2.2-.3.4-.3.6s0,.3.3.5c.2.2.6.3,1.2.4,1.5.3,2.7.7,3.3,1,.7.3,1.2.8,1.5,1.3.3.5.5,1.1.5,1.7s-.2,1.4-.6,2c-.4.6-1,1.1-1.7,1.4s-1.6.5-2.8.5c-1.9,0-3.3-.4-4-1.1s-1.2-1.7-1.3-2.9Z"/>
    <path class="cls-18" d="M442.2,282.3l3.4-.2c0,.5.2,1,.4,1.2.4.5.9.7,1.6.7s.9-.1,1.2-.4c.3-.2.4-.5.4-.8s-.1-.6-.4-.8-.9-.5-1.8-.7c-1.6-.3-2.7-.8-3.3-1.4-.7-.6-1-1.3-1-2.2s.2-1.1.5-1.7.9-.9,1.5-1.2c.7-.3,1.6-.4,2.8-.4s2.6.3,3.3.8c.8.5,1.2,1.4,1.4,2.6l-3.3.2c0-.5-.3-.9-.6-1.1s-.7-.4-1.2-.4-.7,0-.9.3c-.2.2-.3.4-.3.6s0,.3.3.5c.2.2.6.3,1.2.4,1.5.3,2.7.7,3.3,1,.7.3,1.2.8,1.5,1.3.3.5.5,1.1.5,1.7s-.2,1.4-.6,2c-.4.6-1,1.1-1.7,1.4s-1.6.5-2.8.5c-1.9,0-3.3-.4-4-1.1s-1.2-1.7-1.3-2.9Z"/>
    <path class="cls-18" d="M382.7,293.8h6.6c1.1,0,2,.3,2.5.8s.9,1.2.9,2-.2,1.3-.6,1.7c-.3.3-.7.6-1.2.8.8.2,1.4.5,1.8,1,.4.5.6,1.1.6,1.8s-.1,1.1-.4,1.6c-.3.5-.7.8-1.1,1.1-.3.2-.7.3-1.3.4-.8.1-1.3.2-1.6.2h-6.1v-11.5ZM386.2,298.3h1.5c.6,0,.9,0,1.2-.3.2-.2.3-.5.3-.8s-.1-.6-.3-.8-.6-.3-1.1-.3h-1.6v2.2ZM386.2,302.8h1.8c.6,0,1-.1,1.3-.3.2-.2.4-.5.4-.9s-.1-.6-.4-.8c-.2-.2-.7-.3-1.3-.3h-1.8v2.3Z"/>
    <path class="cls-18" d="M401.9,303.4h-4l-.6,1.9h-3.6l4.3-11.5h3.9l4.3,11.5h-3.7l-.6-1.9ZM401.1,300.9l-1.3-4.1-1.3,4.1h2.5Z"/>
    <path class="cls-18" d="M406.7,301.5l3.4-.2c0,.5.2,1,.4,1.2.4.5.9.7,1.6.7s.9-.1,1.2-.4c.3-.2.4-.5.4-.8s-.1-.6-.4-.8-.9-.5-1.8-.7c-1.6-.3-2.7-.8-3.3-1.4-.7-.6-1-1.3-1-2.2s.2-1.1.5-1.7.9-.9,1.5-1.2c.7-.3,1.6-.4,2.8-.4s2.6.3,3.3.8c.8.5,1.2,1.4,1.4,2.6l-3.3.2c0-.5-.3-.9-.6-1.1s-.7-.4-1.2-.4-.7,0-.9.3c-.2.2-.3.4-.3.6s0,.3.3.5c.2.2.6.3,1.2.4,1.5.3,2.7.7,3.3,1,.7.3,1.2.8,1.5,1.3.3.5.5,1.1.5,1.7s-.2,1.4-.6,2c-.4.6-1,1.1-1.7,1.4s-1.6.5-2.8.5c-1.9,0-3.3-.4-4-1.1s-1.2-1.7-1.3-2.9Z"/>
    <path class="cls-18" d="M418.8,293.8h9.5v2.4h-5.9v1.8h5.5v2.3h-5.5v2.3h6.1v2.6h-9.7v-11.5Z"/>
    <path class="cls-18" d="M430.3,293.8h4.7l1.8,7,1.8-7h4.7v11.5h-2.9v-8.7l-2.2,8.7h-2.6l-2.2-8.7v8.7h-2.9v-11.5Z"/>
    <path class="cls-18" d="M445.5,293.8h9.5v2.4h-5.9v1.8h5.5v2.3h-5.5v2.3h6.1v2.6h-9.7v-11.5Z"/>
    <path class="cls-18" d="M457.1,293.8h3.3l4.3,6.3v-6.3h3.3v11.5h-3.3l-4.3-6.3v6.3h-3.3v-11.5Z"/>
    <path class="cls-18" d="M469.6,293.8h10.8v2.8h-3.6v8.6h-3.5v-8.6h-3.6v-2.8Z"/>
    <path class="cls-18" d="M382.6,313h5.9c1.3,0,2.2.3,2.9.9s1,1.5,1,2.6-.3,2.1-1,2.7-1.8,1-3.2,1h-1.9v4.2h-3.6v-11.5ZM386.2,317.9h.9c.7,0,1.2-.1,1.4-.4s.4-.5.4-.9-.1-.7-.4-.9-.7-.4-1.4-.4h-1v2.6Z"/>
    <path class="cls-18" d="M399.9,322.6h-4l-.6,1.9h-3.6l4.3-11.5h3.9l4.3,11.5h-3.7l-.6-1.9ZM399.2,320.1l-1.3-4.1-1.3,4.1h2.5Z"/>
    <path class="cls-18" d="M405.3,324.5v-11.5h5.9c1.1,0,1.9,0,2.5.3s1,.5,1.4,1,.5,1.1.5,1.9-.1,1.2-.4,1.6c-.3.5-.6.8-1.1,1.1-.3.2-.7.3-1.2.5.4.1.7.3.9.4.1,0,.3.3.6.6.2.3.4.5.5.7l1.7,3.3h-4l-1.9-3.5c-.2-.5-.5-.7-.6-.9-.3-.2-.5-.3-.9-.3h-.3v4.6h-3.6ZM408.9,317.7h1.5c.2,0,.5,0,.9-.2.2,0,.4-.2.6-.4s.2-.4.2-.7c0-.4-.1-.7-.4-.9s-.7-.3-1.3-.3h-1.6v2.3Z"/>
    <path class="cls-18" d="M417.8,313h3.5v4.3l3.7-4.3h4.7l-4.2,4.3,4.4,7.1h-4.4l-2.4-4.7-1.8,1.9v2.8h-3.5v-11.5Z"/>
    <path class="cls-18" d="M431.2,313h3.5v11.5h-3.5v-11.5Z"/>
    <path class="cls-18" d="M437.3,313h3.3l4.3,6.3v-6.3h3.3v11.5h-3.3l-4.3-6.3v6.3h-3.3v-11.5Z"/>
    <path class="cls-18" d="M456.4,320.3v-2.4h5.5v4.9c-1,.7-2,1.2-2.8,1.5s-1.8.4-2.9.4-2.5-.2-3.3-.7-1.5-1.2-2-2.1-.7-2-.7-3.2.3-2.3.8-3.3,1.3-1.6,2.3-2.1c.8-.4,1.8-.6,3.1-.6s2.2.1,2.8.3,1.1.6,1.6,1.1.7,1.1.9,1.8l-3.4.6c-.1-.4-.4-.8-.7-1s-.8-.3-1.3-.3c-.8,0-1.4.3-1.9.8s-.7,1.4-.7,2.6.2,2.1.7,2.7,1.1.8,1.9.8.8,0,1.1-.2.8-.3,1.2-.6v-1.1h-2.4Z"/>
  </g>
  <text class="cls-23" transform="translate(124.7 317.6)"><tspan x="0" y="0">FH3</tspan></text>
  <text class="cls-23" transform="translate(204.6 303.1)"><tspan x="0" y="0">FH2</tspan></text>
  <text class="cls-23" transform="translate(299.6 303.1)"><tspan x="0" y="0">FH1</tspan></text>
  <polyline class="cls-10" points="154.4 268.1 141.6 286.3 128.8 268.1"/>
  <text class="cls-37" transform="translate(103.2 265.3)"><tspan x="0" y="0">ENTRANCE</tspan></text>
</svg>