<?xml version="1.0" encoding="UTF-8"?>
<svg xmlns="http://www.w3.org/2000/svg" version="1.1" xmlns:xlink="http://www.w3.org/1999/xlink" viewBox="0 0 541.4 486.9">
  <defs>
    <style>
      .cls-1 {
        stroke-width: 1px;
      }

      .cls-1, .cls-2, .cls-3, .cls-4, .cls-5, .cls-6, .cls-7, .cls-8, .cls-9, .cls-10, .cls-11, .cls-12, .cls-13, .cls-14 {
        fill: none;
      }

      .cls-1, .cls-2, .cls-3, .cls-4, .cls-6, .cls-10, .cls-11, .cls-13, .cls-14 {
        stroke: #000;
      }

      .cls-2 {
        stroke-width: .4px;
      }

      .cls-2, .cls-11 {
        stroke-linecap: round;
        stroke-linejoin: round;
      }

      .cls-3, .cls-5, .cls-6, .cls-10, .cls-12 {
        stroke-miterlimit: 10;
      }

      .cls-3, .cls-5, .cls-13 {
        stroke-width: .5px;
      }

      .cls-15, .cls-16, .cls-17, .cls-18, .cls-8, .cls-19, .cls-20, .cls-21, .cls-22 {
        stroke-width: 0px;
      }

      .cls-15, .cls-23, .cls-24, .cls-25, .cls-26 {
        fill: #000;
      }

      .cls-16 {
        fill: #3e4a9a;
      }

      .cls-4 {
        stroke-width: .6px;
      }

      .cls-5 {
        stroke: #12100b;
      }

      .cls-17 {
        fill: #e4eaee;
      }

      .cls-6 {
        stroke-width: .4px;
      }

      .cls-18, .cls-27, .cls-28 {
        fill: #c00d0e;
      }

      .cls-7 {
        stroke: #fff;
        stroke-width: .4px;
      }

      .cls-23 {
        font-family: Arial-BoldMT, Arial;
        font-size: 11px;
        font-weight: 700;
      }

      .cls-27, .cls-29 {
        font-size: 16px;
      }

      .cls-27, .cls-29, .cls-26 {
        font-family: Arial-Black, Arial;
        font-weight: 800;
      }

      .cls-9 {
        stroke: #1e181a;
        stroke-width: .2px;
      }

      .cls-29, .cls-30, .cls-22 {
        fill: #848484;
      }

      .cls-30, .cls-28 {
        font-family: HelveticaNeueLTStd-Md, 'Helvetica Neue LT Std';
        font-size: 12.3px;
        font-weight: 500;
      }

      .cls-10 {
        stroke-width: .8px;
      }

      .cls-24, .cls-25 {
        font-family: ArialMT, Arial;
      }

      .cls-24, .cls-26 {
        font-size: 10.3px;
      }

      .cls-11 {
        stroke-width: .7px;
      }

      .cls-19 {
        fill: #7d4e24;
      }

      .cls-31 {
        clip-path: url(#clippath-3);
      }

      .cls-12 {
        stroke: #848484;
      }

      .cls-20 {
        fill: #dadada;
      }

      .cls-21 {
        fill: #fff;
      }

      .cls-14 {
        stroke-width: 1.1px;
      }

      .cls-25 {
        font-size: 8.2px;
      }
    </style>
    <clipPath id="clippath-3">
      <rect class="cls-8" x="152.8" y="241.4" width="13.6" height="13.6"/>
    </clipPath>
  </defs>
  <g id="Layer_1" data-name="Layer 1">
    <g>
      <rect class="cls-17" width="541.4" height="486.9"/>
      <g>
        <polyline class="cls-2" points="149.5 160.9 145.9 164.6 142.2 160.9"/>
        <polyline class="cls-2" points="133.4 97.4 133.4 179.1 117.6 179.1"/>
        <line class="cls-2" x1="189.2" y1="132.1" x2="211.5" y2="132.1"/>
        <line class="cls-2" x1="189.2" y1="135.7" x2="211.5" y2="135.7"/>
        <line class="cls-2" x1="189.2" y1="139.4" x2="211.5" y2="139.4"/>
        <line class="cls-2" x1="189.2" y1="143.1" x2="211.5" y2="143.1"/>
        <line class="cls-2" x1="189.2" y1="146.5" x2="211.5" y2="146.5"/>
        <line class="cls-2" x1="189.2" y1="150.1" x2="211.5" y2="150.1"/>
        <line class="cls-2" x1="189.2" y1="153.8" x2="211.5" y2="153.8"/>
        <line class="cls-2" x1="189.2" y1="157.2" x2="211.5" y2="157.2"/>
        <line class="cls-2" x1="189.2" y1="160.9" x2="211.5" y2="160.9"/>
        <polyline class="cls-2" points="156.9 165 156.9 125.7 189.2 125.7 189.2 165"/>
        <line class="cls-2" x1="156.9" y1="132.1" x2="134.6" y2="132.1"/>
        <line class="cls-2" x1="156.9" y1="135.7" x2="134.6" y2="135.7"/>
        <line class="cls-2" x1="156.9" y1="139.4" x2="134.6" y2="139.4"/>
        <line class="cls-2" x1="156.9" y1="143.1" x2="134.6" y2="143.1"/>
        <line class="cls-2" x1="156.9" y1="146.5" x2="134.6" y2="146.5"/>
        <line class="cls-2" x1="156.9" y1="150.1" x2="134.6" y2="150.1"/>
        <line class="cls-2" x1="156.9" y1="153.8" x2="134.6" y2="153.8"/>
        <line class="cls-2" x1="156.9" y1="157.2" x2="134.6" y2="157.2"/>
        <line class="cls-2" x1="156.9" y1="160.9" x2="134.6" y2="160.9"/>
        <polyline class="cls-2" points="200.2 164.6 200.2 113.5 145.9 113.5 145.9 164.6"/>
        <polyline class="cls-2" points="215 165.5 211.5 165.5 211.5 112.7 134.7 112.7 134.7 165.5 133.4 165.5"/>
        <path class="cls-2" d="M189.2,164.6h22.3M156.9,164.6h-22.3"/>
        <g>
          <line class="cls-2" x1="160.4" y1="125.5" x2="160.4" y2="97.2"/>
          <line class="cls-2" x1="164" y1="125.5" x2="164" y2="97.2"/>
          <line class="cls-2" x1="167.7" y1="125.5" x2="167.7" y2="97.2"/>
          <line class="cls-2" x1="171.1" y1="125.5" x2="171.1" y2="97.2"/>
          <line class="cls-2" x1="174.8" y1="125.5" x2="174.8" y2="97.2"/>
          <line class="cls-2" x1="178.4" y1="125.5" x2="178.4" y2="97.2"/>
          <line class="cls-2" x1="181.8" y1="125.5" x2="181.8" y2="97.2"/>
          <line class="cls-2" x1="185.5" y1="125.5" x2="185.5" y2="97.2"/>
          <line class="cls-2" x1="189.2" y1="125.5" x2="189.2" y2="97.2"/>
        </g>
        <polyline class="cls-14" points="164.6 164.1 159.3 164.1 159.3 128.7 185.8 128.7 185.8 164.1 180.5 164.1"/>
        <polygon class="cls-10" points="0 307 0 97.4 503.6 97.4 503.6 301.6 215 301.6 215 307 0 307"/>
        <line class="cls-4" x1="215" y1="212.4" x2="215" y2="220.5"/>
        <line class="cls-4" x1="468.2" y1="214.5" x2="468.2" y2="238.1"/>
        <line class="cls-4" x1="468.2" y1="253.7" x2="468.2" y2="269"/>
        <line class="cls-4" x1="468.2" y1="268.9" x2="503.6" y2="268.9"/>
        <g>
          <circle class="cls-4" cx="422.6" cy="219.9" r="4" transform="translate(-52 178.5) rotate(-22.5)"/>
          <circle class="cls-4" cx="360.3" cy="219.9" r="4" transform="translate(-56.7 154.6) rotate(-22.5)"/>
          <circle class="cls-4" cx="297.4" cy="219.9" r="4" transform="translate(-61.5 130.5) rotate(-22.5)"/>
          <circle class="cls-4" cx="234.7" cy="219.9" r="4"/>
        </g>
        <polygon class="cls-20" points="503.6 97.4 359.3 97.5 359.3 214.5 375.6 214.5 375.6 225.4 381.1 225.4 400.1 225.4 405.6 225.4 405.6 214.5 503.6 214.5 503.6 97.4"/>
        <text class="cls-23" transform="translate(413.6 205.3) rotate(90) scale(.9 1) skewX(0)"><tspan x="0" y="0"> </tspan></text>
        <text class="cls-25" transform="translate(404.2 205.5) rotate(90) scale(.9 1) skewX(0)"><tspan x="0" y="0" xml:space="preserve">    </tspan></text>
        <polygon class="cls-20" points="359.3 97.4 215 97.5 215 214.5 313 214.5 313 225.4 318.5 225.4 337.5 225.4 343 225.4 343 214.5 359.3 214.5 359.3 97.4"/>
        <polyline class="cls-4" points="400.1 225.4 405.6 225.4 405.6 214.5 503.6 214.5 503.6 97.4 359.3 97.5 359.3 214.5 375.6 214.5 375.6 225.4 381.1 225.4"/>
        <polyline class="cls-4" points="318.5 225.4 313 225.4 313 214.5 215 214.5 215 97.5 359.3 97.4 359.3 214.5 343 214.5 343 225.4 337.5 225.4"/>
        <polyline class="cls-4" points="117 183.2 117 97.4 0 97.5 0 202.2 117 202.2 117 195.4"/>
        <polyline class="cls-4" points="117 209 117 202.2 0 202.3 0 307 117 307 117 221.3"/>
        <polyline class="cls-4" points="152.6 255.3 156.5 255.3 156.5 279.8 175.7 279.8 175.7 307 117 307 117 255.3 140.3 255.3"/>
        <polyline class="cls-4" points="211.2 255.3 215 255.3 215 280.4 215 307 175.7 307 175.7 279.8 190.6 279.8 190.5 255.3 198.9 255.3"/>
        <polyline class="cls-4" points="178.8 255.3 190.5 255.3 190.5 279.8 156.5 279.8 156.5 255.3 166.5 255.3"/>
        <polyline class="cls-4" points="117 228.1 133.4 228.1 133.4 255.3"/>
        <text class="cls-28" transform="translate(527.5 200.8) rotate(90) scale(.9 1) skewX(0)"><tspan x="0" y="0">FH3 ENTRANCE</tspan></text>
        <polygon class="cls-15" points="524.2 259.5 507.9 243.2 524.2 226.8 524.2 259.5"/>
        <g>
          <path class="cls-15" d="M133.7,269.8c-2.4,0-4.4,2-4.4,4.5v10.7c0,2.1,3,2.1,3,0v-9.8h.7v27c0,2.8,4,2.7,4,0v-15.8h.7v15.8c0,2.7,4,2.8,4,0v-27h.7v9.8c0,2.1,3,2.1,3,0v-10.6c0-2.3-1.8-4.6-4.4-4.6h-7.2Z"/>
          <path class="cls-15" d="M137.4,268.8c1.9,0,3.4-1.5,3.4-3.4s-1.5-3.4-3.4-3.4-3.4,1.5-3.4,3.4,1.5,3.4,3.4,3.4"/>
          <path class="cls-15" d="M202.4,269.8c1.8,0,3.3-1.5,3.3-3.3s-1.5-3.3-3.3-3.3-3.3,1.5-3.3,3.3,1.5,3.3,3.3,3.3"/>
          <path class="cls-15" d="M201.9,290.9v11.7c0,2.1-3.1,2.1-3.1,0v-11.7h-4.2l4.5-15.5h-.7l-2.6,8.8c-.6,1.9-3.3,1.1-2.7-.9l2.9-9.6c.3-1.1,1.7-3,4.1-3h4.6c2.4,0,3.8,2,4.1,3l2.9,9.6c.6,2.1-2,2.9-2.7.9l-2.6-8.8h-.8l4.5,15.5h-4.2v11.7c0,2.1-3.1,2.1-3.1,0v-11.7h-.9Z"/>
        </g>
        <g>
          <path class="cls-15" d="M171.9,275.6c-.4-.2-.5-.1-.7-.3h0l-.3-3.3h.5c0,0,.1-.1.1-.2l-.8-1.8c0-.1-.1-.3-.1-.5,0-.3,0-.5,0-.7l.2.6h0s0,0,0,0c0,.2.1.3.2.5,0,.2.1.3.2.5,0,0,0,.1.2.1s.2,0,.2-.2,0,0,0,0c0-.2-.1-.3-.2-.5,0-.2-.1-.3-.2-.5l-.2-.7c0-.2-.1-.5-.2-.7h0,0c0-.1-.2-.2-.3-.2,0,0-.1,0-.3,0,0,0,0,0,0-.1.3-.1.5-.4.4-.7,0-.4-.4-.7-.8-.7-.4,0-.7.4-.7.8,0,.3.2.5.4.7,0,0,0,.1,0,.2-.2,0-.3,0-.4,0-.1,0-.2,0-.2.2h0s0,0,0,0c-.1.4-.3.9-.4,1.3h0c0,0,0,.1,0,.1,0,0,0,0,0,0,0,0,0,.2,0,.3,0,0,0,0,0,0h0s0,0,0,0h0c0,0,0,.2,0,.2.1.2.2.4.4.6l-.5,1.5c0,0,0,.2.1.2h.4s0,.7,0,.7c0,.2,0,.3.3.3h0s-.2,2.2-.2,2.2h-.2s0,0,0,0v.2s0,.2,0,.3c.1,0,.7.1.9.1,0,0,.2,0,.3,0,0,0,.2-.2,0-.3-.4-.2-.5-.2-.7-.3,0,0,0,0,0,0h-.2s.2-2.1.2-2.1h0c.2,0,.3,0,.3-.2v-.9c0,0,.3,0,.3,0l.5,3.3v.2s0,.2.1.3c.1,0,.7,0,.9,0,0,0,.2,0,.3,0,0,0,.2-.2,0-.3M169.2,270.1c0,0-.1-.2-.2-.3h0c0-.1,0-.2,0-.2h0s0,0,0,0c0,0,0,0,0,0,0,0,0,0,0,0,0,0,0,0,0,0,0,0,0,0,0,0h0s0,0,0,0c0-.2.2-.4.2-.6,0,.3,0,.7,0,1,0,.1,0,.2,0,.4"/>
          <path class="cls-15" d="M181.6,274.3c0-.1,0-.2-.2-.2,0,0-.5,0-.5,0-.1,0-.2,0-.3,0l-.7-1.7c0,0-.1-.1-.2-.2h-.3c-.2-.4-.6-.8-1.1-1v-1c.1,0,.1,0,.1,0,0-.3-.1-.7-.3-.8,0,0,0-.1,0-.2.3,0,.5-.4.6-.7,0-.4-.3-.8-.8-.8-.4,0-.8.3-.8.8,0,.3.2.6.5.7,0,0,0,.1,0,.2,0,0,0,0,0,0-.1,0-.2,0-.3.1l-.9.9c-.1.1-.2.3-.1.5l.3,1.1c-.4.3-.7.8-.7,1.4,0,.9.7,1.7,1.7,1.7s1.7-.7,1.7-1.7-.7-1.7-1.7-1.7-.3,0-.4,0l-.3-1,.3-.3v.6s0,.4,0,.4c.1,0,.3,0,.4,0,1.1,0,1.9,1,1.8,2,0,1.1-1,1.9-2,1.8-1.1,0-1.9-1-1.8-2,0-.5.3-1,.6-1.3,0,0,0,0,0,0v-.5c-.1,0-.2,0-.2,0,0,0-.1.1-.2.2-.3.3-.6.6-.7,1.1l-.3-2.2c0-.3,0-.7,0-1,0-.3,0-.7,0-1l.2.5.2,1.4h0c0,.1.1.2.2.2s.2-.1.2-.2,0,0,0,0h0s-.2-1.5-.2-1.5h0s0,0,0,0l-.5-1.6h0c0-.1-.1-.2-.3-.3,0,0-.2,0-.4,0,0,0,0,0,0-.2.3-.1.5-.4.5-.7,0-.4-.4-.8-.8-.8-.4,0-.8.4-.8.8,0,.3.2.6.5.7,0,0,0,.1,0,.2-.2,0-.3,0-.4,0-.2,0-.3.1-.3.3l-.3,1.7-.4,1.3h0s0,0,0,0c0,.1.1.2.2.2s.2,0,.2-.2l.5-1.3c0,.1,0,.2,0,.3,0,.3,0,.8,0,1.1h0c0,.3,0,.6-.1.8l-.2,1.2c0,0,0,.1,0,.2,0,0,0,0,0,0h0s0,.1,0,.1v.3s0,.6,0,.6v.6c0,0,0,.3,0,.3h0c-.2.2-.3.2-.8.4-.2,0,0,.3.1.3.1,0,.2,0,.4,0,.2,0,.9-.1,1.1-.2.2,0,.1-.3.1-.3h0c0-.1,0-.6,0-.6v-.6s0-.6,0-.6v-.3s0,0,0,0h0s0,0,0,0c0,0,0,0,0,0l.2-1.1c0-.2,0-.3,0-.5,0,0,0,0,0,0,0,0,0,0,0,.2l.6,3.8c-.2.2-.3.2-.8.4-.2,0,0,.3.1.3.1,0,.2,0,.4,0,.2,0,.9-.1,1.1-.2.2,0,.1-.3.1-.3v-.3h0v-.2c.4.7,1.1,1.1,1.9,1.2,1.2,0,2.2-.7,2.4-1.8l.4.8c0,.1.2.2.3.1l1.3-.3s0,0,0-.1M176.6,272.4c.2,0,.3-.1.3-.3s0,0,0,0v-.2c0,0,.2,0,.3,0,.8,0,1.5.7,1.5,1.5s-.7,1.5-1.5,1.5-1.5-.7-1.5-1.5.2-.9.6-1.2h0c0,0,0,0,0,0,0,.1.1.2.3.2"/>
          <path class="cls-6" d="M171.3,260.7c0-1.4,1.1-2.5,2.5-2.5s2.5,1.1,2.5,2.5-1.1,2.5-2.5,2.5-2.5-1.1-2.5-2.5Z"/>
          <path class="cls-6" d="M172.1,262.7c-.2.3-.9.6-1.4.6-1.4,0-2.5-1.1-2.5-2.5s1.1-2.5,2.5-2.5,1.3.3,1.5.6c.2.2,3.3,3.6,3.5,3.8.2.2.9.7,1.6.7,1.2,0,2.5-1.1,2.5-2.5s-1.1-2.5-2.5-2.5-1.1.1-1.5.6c-.4.4-3.3,3.6-3.5,3.9Z"/>
          <line class="cls-6" x1="179.9" y1="257.7" x2="179" y2="258.7"/>
          <polyline class="cls-6" points="178.4 257.6 180.1 257.6 180.1 259.2"/>
          <line class="cls-6" x1="170.5" y1="265.3" x2="170.5" y2="263.4"/>
          <line class="cls-6" x1="169.5" y1="264.4" x2="171.5" y2="264.4"/>
        </g>
        <rect class="cls-19" x="216.3" y="280.3" width="13.3" height="13.3"/>
        <rect class="cls-7" x="216.3" y="280.3" width="13.3" height="13.3"/>
        <rect class="cls-9" x="216.2" y="280.1" width="13.6" height="13.6"/>
        <g>
          <path class="cls-21" d="M229.1,291.1h-12.1c0,.9.7,1.3,1.2,1.3h9.7c.6,0,1.2-.5,1.2-1.3"/>
          <path class="cls-21" d="M219.5,284.9v4.7c0,.6.6,1.2,1.2,1.2h4.7c.7,0,1.1-.6,1.1-1.2v-.4c1.3,0,2.3-1,2.3-2.2s-1-2.2-2.1-2.2h-7.2Z"/>
          <path class="cls-19" d="M228,287.1c0-.4-.3-1.3-1.2-1.3h0s-.2,0-.2,0v2.6c1,0,1.5-.6,1.5-1.3h0Z"/>
          <path class="cls-21" d="M221.7,281.5s-.3,0-.4.2c0,0-.3.2-.3.3,0,0,0,.1-.1.2,0,0,0,.2,0,.2,0,0,0,.2,0,.2,0,0,0,.2.1.2,0,0,.1.1.2.2,0,0,.1.1.2.2,0,0,0,.2,0,.2,0,0,0,.2,0,.2,0,0,0,.1,0,.2,0,0,0,.1-.1.2,0,0-.2.1-.2.2s.2,0,.3,0c0,0,.2-.1.3-.2,0,0,.1,0,.2-.2,0,0,0-.1,0-.2,0,0,0-.2,0-.2,0,0,0-.2,0-.2,0,0,0-.1-.1-.2,0,0-.1-.1-.2-.2,0,0-.1-.1-.2-.2,0,0,0-.2-.1-.2,0,0,0-.2,0-.2,0,0,0-.2.1-.2,0,0,.1-.1.1-.2,0,0,.2-.2.2-.3"/>
          <path class="cls-21" d="M223.3,281.5s-.3,0-.4.2c0,0-.3.2-.3.3,0,0,0,.1-.1.2,0,0,0,.2,0,.2,0,0,0,.2,0,.2,0,0,0,.2.1.2,0,0,.1.1.2.2,0,0,.1.1.2.2,0,0,0,.2,0,.2,0,0,0,.2,0,.2,0,0,0,.1,0,.2,0,0,0,.1-.1.2,0,0-.2.1-.2.2,0,0,.2,0,.3,0,0,0,.2-.1.3-.2,0,0,.1,0,.2-.2,0,0,0-.1,0-.2,0,0,0-.2,0-.2,0,0,0-.2,0-.2,0,0,0-.1-.1-.2,0,0-.1-.1-.2-.2,0,0-.1-.1-.2-.2,0,0,0-.2-.1-.2,0,0,0-.2,0-.2,0,0,0-.2.1-.2,0,0,.1-.1.1-.2,0,0,.2-.2.2-.3"/>
          <path class="cls-21" d="M224.9,281.5s-.3,0-.4.2c0,0-.3.2-.3.3,0,0,0,.1-.1.2,0,0,0,.2,0,.2,0,0,0,.2,0,.2,0,0,0,.2.1.2,0,0,.1.1.2.2,0,0,.1.1.2.2,0,0,0,.2,0,.2,0,0,0,.2,0,.2,0,0,0,.1,0,.2,0,0,0,.1-.1.2,0,0-.2.1-.2.2,0,0,.2,0,.3,0,0,0,.2-.1.3-.2,0,0,.1,0,.2-.2,0,0,0-.1,0-.2,0,0,0-.2,0-.2,0,0,0-.2,0-.2,0,0,0-.1-.1-.2,0,0-.1-.1-.2-.2,0,0-.1-.1-.2-.2,0,0,0-.2-.1-.2,0,0,0-.2,0-.2,0,0,0-.2.1-.2,0,0,.1-.1.1-.2,0,0,.2-.2.2-.3"/>
          <rect class="cls-19" x="216.3" y="265.2" width="13.3" height="13.3"/>
          <rect class="cls-7" x="216.3" y="265.2" width="13.3" height="13.3"/>
          <rect class="cls-9" x="216.2" y="265.1" width="13.6" height="13.6"/>
          <polygon class="cls-21" points="225.9 269.1 224.8 277.7 221.2 277.7 220.1 269.1 224.6 269.1 225.5 266 226 266.2 225.1 269.1 225.9 269.1"/>
        </g>
        <rect class="cls-16" x="152.9" y="241.5" width="13.3" height="13.3"/>
        <g class="cls-31">
          <rect class="cls-7" x="152.9" y="241.5" width="13.3" height="13.3"/>
          <rect class="cls-9" x="152.7" y="241.4" width="13.6" height="13.6"/>
          <path class="cls-21" d="M159.2,247.5c0,.2.5.3.7.3,0,0,.6,0,.6,0,.3,0,.7-.1.9-.3,0-.1,0-.3,0-.6,0-.1,0-.3,0-.4,0-.3.3-.3.8-.3s2.4,0,2.4,0c.2,0,.5,0,.6-.1,0,0,0-.1,0-.2,0-.1,0-1.7,0-1.7-.1-.1-.3-.2-.5-.2s-.8,0-.9,0v-.5c.2,0,.4,0,.6,0,.4,0,.7-.1.9-.3.1-.2.1-.3,0-.5,0-.2-.3-.3-.5-.4,0,0-.2,0-.3,0s-.4,0-.6,0c0,0-.2,0-.3,0,0,0-.1,0-.2,0-.2,0-.4,0-.6,0h0c-.3,0-.5,0-.8,0-.2,0-.6,0-.7,0s0,0,0,0c-.4,0-.7.2-.8.5,0,.2,0,.4.1.5.1.1.3.2.5.2,0,0,0,0,.1,0,0,0,.2,0,.2,0,0,0,.3,0,.4,0,0,0,0,.1,0,.2,0,.1,0,.1,0,.3,0,0-.4,0-.5,0-.7,0-1.3.2-1.7.6-.4.4-.6.9-.7,1.6h0c0,.5-.1,1.1,0,1.3"/>
          <path class="cls-21" d="M157.3,247.4c.1-.5,0-1-.2-1.4-.2-.3-.5-.5-.9-.7,0,0,0,0,0,0,0-.1,0-.2,0-.3,0,0,0,0,.1,0,0,0,0,0,0,0,0-.1,0,0,0-.2,0,0,0-.1,0-.2,0,0,0,0,0-.1-.1-.1-.3-.2-.7-.2s-.5,0-.7,0c0,0,0,0-.1,0-.1.2-.1.4,0,.6,0,0,0,0,0,0,0,0,0,0,0,0,0,0,0,0,0,0v.4c-.5.2-1,.5-1.1,1,0,.1,0,.3,0,.5,0,0,0,0,0,.1s0,0,0,0c0,.1,0,.3,0,.4,0,0,0,0,.1,0,0,0,0,0,0,0,0,0,0,0,0,0,0,0,0,0,0,0-.1.1-.1.5,0,.7,0,0,0,0,0,0,0,0,0,0,0,0,0,0,0,0,0,0,0,0,0,0,0,0-.1.1-.1.5,0,.7,0,0,0,0,0,0,0,0,0,0,0,0,0,0,0,0,0,0,0,0,0,0,0,0-.1.1-.1.5,0,.7,0,0,0,0,0,0,0,0,0,0,0,0,0,0,0,0,0,0,0,0,0,0,0,0-.1.1-.1.5,0,.7,0,0,0,0,0,0,0,0,0,0,0,0,0,0,0,0,0,0,0,0,0,0,0,0-.1.1-.1.5,0,.7,0,0,0,0,0,0,0,0,0,0,0,0,0,0,0,0-.1,0,0,.2,0,.3,0,.4,0,0,0,0,0,0,0,.7,0,1.4.5,1.5.1,0,.3,0,.6,0s1.2,0,1.3,0c.4,0,.9,0,1.1-.5,0-.1,0-.4,0-1,0,0,0,0,0-.1s0,0,0,0c0-.1,0-.3-.1-.5,0,0,0,0,0,0,0,0,0,0,0,0,0,0,0,0,0,0,0-.1.1-.4,0-.6,0,0,0,0,0,0,0,0,0,0,0,0,0,0,0,0,0,0,0-.1.1-.4,0-.6,0,0,0,0,0,0,0,0,0,0,0,0,0,0,0,0,0,0,0-.1.1-.4,0-.6,0,0,0,0,0,0,0,0,0,0,0,0,0,0,0,0,0-.1,0-.1.1-.4,0-.6,0,0,0,0,0,0,0,0,0,0,0,0,0,0,0,0,0,0,0-.1.1-.4,0-.6,0,0,0,0-.1-.1,0,0,0,0,0,0,0,0,.1,0,.1-.1"/>
          <path class="cls-21" d="M161.7,249.4c-.1,0-.2.1-.4.1s-.4,0-.5-.2c0,.2-.3.2-.5.2s-.4,0-.5-.2c0,.2-.3.2-.5.2s-.3,0-.4-.1v-.5c0,.1.2.2.4.2s.4,0,.5-.2c.1.1.3.2.5.2s.4,0,.5-.2c.1.1.3.2.5.2s.4,0,.5-.3v.6Z"/>
          <polygon class="cls-21" points="161.8 253.9 162.7 248.4 162.1 248.5 161.4 253.3 159.4 253.3 158.6 248.5 158.1 248.4 158.9 253.9 161.8 253.9"/>
        </g>
      </g>
      <text class="cls-24" transform="translate(223 119.1)"><tspan x="0" y="0">FH3.304</tspan></text>
      <text class="cls-26" transform="translate(222.3 129.7)"><tspan x="0" y="0">Lecture Hall 7 (HS7)</tspan></text>
      <text class="cls-24" transform="translate(367.3 119.1)"><tspan x="0" y="0">FH3.305</tspan></text>
      <text class="cls-26" transform="translate(366.5 129.6)"><tspan x="0" y="0">Lecture Hall 8 (HS8)</tspan></text>
    </g>
    <g>
      <path class="cls-18" d="M12.8,18.7h3.5v4h3.9v-4h3.6v11.5h-3.6v-4.6h-3.9v4.6h-3.5v-11.5Z"/>
      <path class="cls-18" d="M33.1,28.3h-4l-.6,1.9h-3.6l4.3-11.5h3.9l4.3,11.5h-3.7l-.6-1.9ZM32.4,25.8l-1.3-4.1-1.3,4.1h2.5Z"/>
      <path class="cls-18" d="M44,26v-2.4h5.5v4.9c-1,.7-2,1.2-2.8,1.5s-1.8.4-2.9.4-2.5-.2-3.3-.7c-.9-.5-1.5-1.2-2-2.1-.5-.9-.7-2-.7-3.2s.3-2.3.8-3.3c.5-.9,1.3-1.6,2.3-2.1.8-.4,1.8-.6,3.1-.6s2.2.1,2.8.3c.6.2,1.1.6,1.6,1.1.4.5.7,1.1.9,1.8l-3.4.6c-.1-.4-.4-.8-.7-1-.3-.2-.8-.3-1.3-.3-.8,0-1.4.3-1.9.8s-.7,1.4-.7,2.6.2,2.1.7,2.7c.5.5,1.1.8,1.9.8s.8,0,1.1-.2c.4-.1.8-.3,1.2-.6v-1.1h-2.4Z"/>
      <path class="cls-18" d="M51.6,18.7h9.5v2.4h-5.9v1.8h5.5v2.3h-5.5v2.3h6.1v2.6h-9.7v-11.5Z"/>
      <path class="cls-18" d="M63.2,18.7h3.3l4.3,6.3v-6.3h3.3v11.5h-3.3l-4.3-6.3v6.3h-3.3v-11.5Z"/>
      <path class="cls-18" d="M76.5,18.7h6.6c1.1,0,2,.3,2.5.8.6.5.9,1.2.9,2s-.2,1.3-.6,1.7c-.3.3-.7.6-1.2.8.8.2,1.4.5,1.8,1,.4.5.6,1.1.6,1.8s-.1,1.1-.4,1.6c-.3.5-.7.8-1.1,1.1-.3.2-.7.3-1.3.4-.8.1-1.3.2-1.6.2h-6.1v-11.5ZM80,23.2h1.5c.6,0,.9,0,1.2-.3.2-.2.3-.5.3-.8s-.1-.6-.3-.8c-.2-.2-.6-.3-1.1-.3h-1.6v2.2ZM80,27.7h1.8c.6,0,1-.1,1.3-.3.2-.2.4-.5.4-.9s-.1-.6-.4-.8c-.2-.2-.7-.3-1.3-.3h-1.8v2.3Z"/>
      <path class="cls-18" d="M88.9,18.7h9.5v2.4h-5.9v1.8h5.5v2.3h-5.5v2.3h6.1v2.6h-9.7v-11.5Z"/>
      <path class="cls-18" d="M100.5,30.2v-11.5h5.9c1.1,0,1.9,0,2.5.3s1,.5,1.4,1c.4.5.5,1.1.5,1.9s-.1,1.2-.4,1.6c-.3.5-.6.8-1.1,1.1-.3.2-.7.3-1.2.5.4.1.7.3.9.4.1,0,.3.3.6.6.2.3.4.5.5.7l1.7,3.3h-4l-1.9-3.5c-.2-.5-.5-.7-.6-.9-.3-.2-.5-.3-.9-.3h-.3v4.6h-3.6ZM104.1,23.3h1.5c.2,0,.5,0,.9-.2.2,0,.4-.2.6-.4.1-.2.2-.4.2-.7,0-.4-.1-.7-.4-.9-.2-.2-.7-.3-1.3-.3h-1.6v2.3Z"/>
      <path class="cls-18" d="M118.4,26v-2.4h5.5v4.9c-1,.7-2,1.2-2.8,1.5s-1.8.4-2.9.4-2.5-.2-3.3-.7c-.9-.5-1.5-1.2-2-2.1-.5-.9-.7-2-.7-3.2s.3-2.3.8-3.3c.5-.9,1.3-1.6,2.3-2.1.8-.4,1.8-.6,3.1-.6s2.2.1,2.8.3c.6.2,1.1.6,1.6,1.1.4.5.7,1.1.9,1.8l-3.4.6c-.1-.4-.4-.8-.7-1-.3-.2-.8-.3-1.3-.3-.8,0-1.4.3-1.9.8s-.7,1.4-.7,2.6.2,2.1.7,2.7c.5.5,1.1.8,1.9.8s.8,0,1.1-.2c.4-.1.8-.3,1.2-.6v-1.1h-2.4Z"/>
      <path class="cls-18" d="M20.4,44.7l3.1.9c-.2.9-.5,1.6-1,2.2-.4.6-1,1-1.7,1.3s-1.5.4-2.5.4-2.3-.2-3.1-.5-1.5-1-2-1.9c-.6-.9-.9-2.1-.9-3.5s.5-3.4,1.5-4.4,2.4-1.5,4.3-1.5,2.6.3,3.4.9c.8.6,1.4,1.5,1.8,2.7l-3.1.7c-.1-.3-.2-.6-.3-.8-.2-.3-.4-.5-.7-.6-.3-.1-.6-.2-1-.2-.8,0-1.4.3-1.8,1-.3.5-.5,1.2-.5,2.3s.2,2.1.6,2.6c.4.5.9.7,1.6.7s1.2-.2,1.5-.6c.3-.4.6-.9.8-1.7Z"/>
      <path class="cls-18" d="M32.3,47.5h-4l-.6,1.9h-3.6l4.3-11.5h3.9l4.3,11.5h-3.7l-.6-1.9ZM31.5,45l-1.3-4.1-1.3,4.1h2.5Z"/>
      <path class="cls-18" d="M37.6,37.9h4.7l1.8,7,1.8-7h4.7v11.5h-2.9v-8.7l-2.2,8.7h-2.6l-2.2-8.7v8.7h-2.9v-11.5Z"/>
      <path class="cls-18" d="M52.7,37.9h5.9c1.3,0,2.2.3,2.9.9.6.6,1,1.5,1,2.6s-.3,2.1-1,2.7c-.7.7-1.8,1-3.2,1h-1.9v4.2h-3.6v-11.5ZM56.3,42.8h.9c.7,0,1.2-.1,1.4-.4.3-.2.4-.5.4-.9s-.1-.7-.4-.9c-.2-.2-.7-.4-1.4-.4h-1v2.6Z"/>
      <path class="cls-18" d="M71.8,37.9h3.5v6.8c0,.7-.1,1.3-.3,1.9s-.5,1.1-1,1.6c-.5.5-.9.8-1.4.9-.7.3-1.5.4-2.5.4s-1.2,0-1.8-.1c-.7,0-1.2-.2-1.7-.5-.4-.2-.8-.6-1.2-1s-.6-.9-.8-1.3c-.2-.7-.3-1.4-.3-1.9v-6.8h3.5v7c0,.6.2,1.1.5,1.5.3.4.8.5,1.4.5s1.1-.2,1.4-.5c.3-.3.5-.8.5-1.5v-7Z"/>
      <path class="cls-18" d="M77,45.6l3.4-.2c0,.5.2,1,.4,1.2.4.5.9.7,1.6.7s.9-.1,1.2-.4c.3-.2.4-.5.4-.8s-.1-.6-.4-.8c-.3-.2-.9-.5-1.8-.7-1.6-.3-2.7-.8-3.3-1.4-.7-.6-1-1.3-1-2.2s.2-1.1.5-1.7c.3-.5.9-.9,1.5-1.2.7-.3,1.6-.4,2.8-.4s2.6.3,3.3.8c.8.5,1.2,1.4,1.4,2.6l-3.3.2c0-.5-.3-.9-.6-1.1-.3-.2-.7-.4-1.2-.4s-.7,0-.9.3c-.2.2-.3.4-.3.6s0,.3.3.5c.2.2.6.3,1.2.4,1.5.3,2.7.7,3.3,1,.7.3,1.2.8,1.5,1.3.3.5.5,1.1.5,1.7s-.2,1.4-.6,2c-.4.6-1,1.1-1.7,1.4-.7.3-1.6.5-2.8.5-1.9,0-3.3-.4-4-1.1s-1.2-1.7-1.3-2.9Z"/>
    </g>
    <text class="cls-27" transform="translate(11.6 68)"><tspan x="0" y="0">FH3</tspan></text>
    <text class="cls-30" transform="translate(511.4 395.8) rotate(90) scale(.9 1) skewX(0)"><tspan x="0" y="0">FH2 ENTRANCE</tspan></text>
    <line class="cls-12" x1="531.3" y1="395.8" x2="531.3" y2="478"/>
    <polygon class="cls-22" points="537 475.1 531.3 480.9 525.5 475.1 537 475.1"/>
    <text class="cls-29" transform="translate(468.5 413.5) scale(.9 1)"><tspan x="0" y="0">FH2</tspan></text>
  </g>
  <g id="Layer_2" data-name="Layer 2">
    <g>
      <line class="cls-13" x1="504.7" y1="481.4" x2="494.7" y2="481.4"/>
      <line class="cls-13" x1="483.3" y1="481.4" x2="479.4" y2="481.4"/>
      <line class="cls-13" x1="479.4" y1="481.4" x2="474.1" y2="481.4"/>
      <line class="cls-13" x1="462.6" y1="481.4" x2="457" y2="481.4"/>
      <line class="cls-13" x1="457" y1="481.4" x2="447.2" y2="481.4"/>
      <polyline class="cls-1" points="124.5 481.1 120 481.1 120 452.8 142.4 452.8 142.4 481.1 138 481.1"/>
      <line class="cls-13" x1="504.7" y1="481.4" x2="490.9" y2="481.4"/>
      <line class="cls-13" x1="481.7" y1="481.4" x2="479.4" y2="481.4"/>
      <line class="cls-13" x1="479.4" y1="481.4" x2="468.5" y2="481.4"/>
      <line class="cls-13" x1="459.3" y1="481.4" x2="457" y2="481.4"/>
      <line class="cls-13" x1="457" y1="481.4" x2="446.1" y2="481.4"/>
      <polyline class="cls-13" points="88.9 481.4 119.8 481.4 119.8 395.8 48.6 395.8 48.6 481.4 78.6 481.4"/>
      <polyline class="cls-1" points="124.5 481.1 120 481.1 120 452.8 142.4 452.8 142.4 481.1 138 481.1"/>
      <polyline class="cls-13" points="0 395.8 48.6 395.8 48.6 484"/>
      <path class="cls-3" d="M94.5,481.4"/>
      <path class="cls-5" d="M334.6,481.4"/>
      <line class="cls-5" x1="369.1" y1="481.4" x2="435.7" y2="481.4"/>
      <line class="cls-5" x1="142.5" y1="481.4" x2="347.3" y2="481.4"/>
      <path class="cls-15" d="M468.3,487.2"/>
      <line class="cls-11" y1="395.8" x2="504.7" y2="395.8"/>
    </g>
    <line class="cls-11" x1="504.7" y1="486.9" x2="504.7" y2="395.8"/>
  </g>
</svg>