<?xml version="1.0" encoding="UTF-8" standalone="no"?>
<!-- Generator: Adobe Illustrator 27.5.0, SVG Export Plug-In . SVG Version: 6.00 Build 0)  -->

<svg
   version="1.1"
   id="Layer_1"
   x="0px"
   y="0px"
   viewBox="0 0 358.07094 99.810712"
   xml:space="preserve"
   sodipodi:docname="ppsn2024-logo.svg"
   inkscape:version="1.2.2 (732a01da63, 2022-12-09)"
   width="358.07092"
   height="99.810715"
   inkscape:export-filename="ppsn2024-logo-v3.png"
   inkscape:export-xdpi="461.67001"
   inkscape:export-ydpi="461.67001"
   xmlns:inkscape="http://www.inkscape.org/namespaces/inkscape"
   xmlns:sodipodi="http://sodipodi.sourceforge.net/DTD/sodipodi-0.dtd"
   xmlns="http://www.w3.org/2000/svg"
   xmlns:svg="http://www.w3.org/2000/svg"><defs
   id="defs529"><rect
     x="139.8094"
     y="14.616437"
     width="109.6606"
     height="43.703564"
     id="rect739" /></defs><sodipodi:namedview
   id="namedview527"
   pagecolor="#ffffff"
   bordercolor="#666666"
   borderopacity="1.0"
   inkscape:showpageshadow="2"
   inkscape:pageopacity="0.0"
   inkscape:pagecheckerboard="0"
   inkscape:deskcolor="#d1d1d1"
   showgrid="false"
   inkscape:zoom="1.5735709"
   inkscape:cx="138.85615"
   inkscape:cy="82.932392"
   inkscape:window-width="1920"
   inkscape:window-height="1122"
   inkscape:window-x="-8"
   inkscape:window-y="-8"
   inkscape:window-maximized="1"
   inkscape:current-layer="g482" />
<g
   id="g482"
   transform="translate(-1.1049636e-6,-4.0571624)">
	
	
	
	
<path
   style="fill:#ffffff;stroke-width:3.77951"
   d="m 99.962876,103.56809 -0.905505,-0.2998 -0.829945,-0.55105 -0.829946,-0.55105 -0.621698,-0.82343 -0.621704,-0.82344 -0.383051,-0.866153 -0.38305,-0.866138 -0.24246,-1.173857 -0.242469,-1.17386 v -0.54883 -0.548838 h -0.154942 -0.154947 v -0.619773 -0.619777 h -9.035452 -9.035448 l -1.926822,-1.406162 -1.926818,-1.406158 -0.367625,-0.336958 -0.367625,-0.336952 -0.576895,-0.774726 -0.576884,-0.774712 -0.26234,-0.507562 -0.262344,-0.507561 -0.599454,-1.661649 -0.599451,-1.661657 -0.108328,-0.271151 -0.108333,-0.271152 -1.649064,-0.0034 -1.649069,-0.0034 -0.619778,-0.28253 -0.619772,-0.282523 -0.50357,-0.42509 -0.503564,-0.425091 v -0.903496 -0.903495 l 1.367585,-1.00378 1.367581,-1.003779 0.840266,-1.431533 0.840275,-1.431531 0.619867,-0.502709 0.619871,-0.502708 0.852194,-0.425542 0.85219,-0.425551 1.827439,-1.770912 1.827438,-1.770923 0.574189,0.04768 0.574189,0.04767 0.04772,0.748462 0.04773,0.748459 -0.237315,1.487293 -0.237309,1.48729 0.12644,0.165875 0.126445,0.165874 1.827615,2.377402 1.827614,2.377395 0.601273,0.435564 0.601269,0.435553 0.733124,0.159698 0.733119,0.159691 3.563707,0.08319 3.563708,0.08318 2.94393,0.384495 2.943929,0.384491 1.549441,0.526357 1.549435,0.526357 0.639648,0.326527 0.639639,0.326528 0.646201,0.734125 0.64621,0.73413 0.6172,1.247882 0.6172,1.247881 0.75148,3.0214 0.75146,3.021409 0.40351,0.989922 0.40351,0.989922 0.41736,0.714463 0.41735,0.714454 0.86305,0.90955 0.86303,0.909557 0.89927,0.612593 0.89928,0.6126 -0.0471,0.64594 -0.0471,0.64595 -0.77473,0.5083 -0.77471,0.5083 -1.23955,0.39908 -1.23956,0.39909 -1.62691,0.0643 -1.6269,0.0643 -0.905507,-0.29979 z m 3.985924,-2.36248 0.60132,-0.1539 -0.53584,-0.56961 -0.53585,-0.569603 -0.48547,-0.63437 -0.48547,-0.634387 -0.6101,-1.261601 -0.61009,-1.261607 -0.0964,0.251285 -0.0964,0.251279 -0.0986,1.389458 -0.0986,1.389463 -0.55671,-0.0893 -0.556704,-0.0893 -0.967499,-0.379538 -0.967499,-0.379529 0.17647,0.336757 0.176461,0.33676 0.444938,0.56781 0.444958,0.567803 0.733439,0.43077 0.733446,0.43077 0.77473,0.19245 0.77471,0.19244 0.61978,-0.0802 0.61977,-0.0802 z m -52.463341,-7.25774 -0.885531,-0.113595 -0.508962,-0.191613 -0.508964,-0.191613 -0.38736,-0.173309 -0.387359,-0.173304 -0.697248,-0.453642 -0.697247,-0.453647 -0.73436,-0.753852 -0.734359,-0.753857 -0.409455,-0.808023 -0.409458,-0.808024 -0.279794,-0.813235 -0.279789,-0.813229 -0.107209,-1.460511 -0.107209,-1.460508 0.911044,-0.187378 0.911039,-0.187382 0.77472,-0.292534 0.774721,-0.292536 0.404883,-8.1e-5 0.404878,-7.6e-5 0.08071,1.005511 0.08071,1.005516 0.541474,1.12496 0.541469,1.124968 0.832259,0.82572 0.832258,0.82572 1.162077,0.568774 1.162081,0.568774 8.325852,0.07747 8.325857,0.07747 1.784225,1.295075 1.784225,1.295067 v 0.370579 0.370571 l -10.807323,-0.02031 -10.807323,-0.0203 z M 10.148817,82.051886 V 70.466512 L 8.9695298,69.398434 7.7902419,68.330357 6.785156,67.15508 5.7800702,65.979805 4.74003,64.427325 3.6999897,62.87484 2.9075087,61.250978 2.1150277,59.62711 1.5681605,58.044276 1.0212935,56.461444 0.72070424,55.17782 0.42011505,53.894196 0.21005594,52.732111 1.1049636e-6,51.570039 0.00383244,47.309079 0.00766377,43.048128 0.28497123,41.576163 0.56227019,40.104199 0.93435627,38.775446 1.3064381,37.446693 1.8391293,36.050808 2.3718162,34.654917 2.9343323,33.537919 3.496844,32.420911 4.2119321,31.304355 4.9270202,30.187803 5.8139605,29.025722 6.7009008,27.86364 l 1.3543073,-1.356605 1.3543031,-1.356611 1.4154638,-1.054565 1.415464,-1.054566 1.399743,-0.803842 1.399743,-0.803839 1.31177,-0.533262 1.311776,-0.533258 1.357959,-0.392085 1.357965,-0.392086 1.431023,-0.262594 1.431027,-0.262592 2.866457,-0.0017 2.866462,-0.0017 1.471963,0.262424 1.471968,0.262425 1.70438,0.491504 1.704381,0.491505 2.169214,1.099336 2.16921,1.099341 1.317024,0.944304 1.31702,0.944304 1.441653,1.358415 1.441654,1.358412 0.894649,1.100851 0.894646,1.100856 0.779484,1.162082 0.779485,1.162076 0.789773,1.555091 0.789774,1.555094 0.541234,1.401425 0.541231,1.401433 0.318405,1.22835 0.318405,1.228349 0.243098,1.315629 0.243098,1.315635 0.08278,2.556569 0.08277,2.556578 3.215057,5.96533 3.215061,5.965335 0.177042,0.526693 0.17705,0.52669 v 1.198733 1.198734 l -0.433809,0.830403 -0.433809,0.830407 -0.689533,0.465575 -0.689537,0.465562 -2.285419,0.04989 -2.285418,0.0499 v 3.383972 3.383967 l -0.220366,1.151745 -0.220365,1.151754 -0.414316,0.984366 -0.414311,0.984363 -0.549413,0.860185 -0.549417,0.860185 -0.956948,0.929664 -0.956947,0.929659 -0.867205,0.514505 -0.8672,0.514506 -1.136505,0.398867 -1.136496,0.398866 -3.060139,0.07312 -3.06014,0.07311 v 5.482413 5.482409 H 24.093636 10.148699 Z m 9.627628,-18.805164 0.408471,-0.284323 0.256057,-0.639948 0.256056,-0.639951 -0.166795,-0.50539 -0.166794,-0.505392 -0.304055,-0.27517 -0.304055,-0.275162 v -3.661803 -3.661799 l 1.794741,-1.892162 1.79474,-1.892158 h 0.339613 0.339618 l 1.101312,1.123341 1.101311,1.123342 0.08428,0.683834 0.08428,0.683837 0.292496,0.400766 0.292497,0.400778 0.59788,0.296732 0.597874,0.296737 0.549405,-0.296737 0.549409,-0.296732 0.353418,-0.526475 0.353419,-0.526489 v -0.483416 -0.483425 l -0.377356,-0.555335 -0.377356,-0.555325 -0.436095,-0.165289 -0.436099,-0.165296 -0.416244,-0.09054 -0.416245,-0.09054 -2.953781,-3.119771 -2.953786,-3.119771 v -5.324193 -5.324179 h 2.401631 2.401628 v 2.082597 2.082601 l -0.172504,0.106604 -0.172499,0.106618 -0.299581,0.677251 -0.299579,0.677251 0.306595,0.693116 0.306595,0.693109 0.51411,0.313445 0.514109,0.313438 0.420702,5.95e-4 0.420706,5.96e-4 0.538233,-0.472573 0.538234,-0.472578 0.174385,-0.528388 0.174386,-0.528388 -0.302313,-0.683425 -0.30231,-0.68342 -0.172499,-0.106613 -0.172504,-0.106689 v -3.244688 -3.244674 h -3.40876 -3.408765 v -1.633186 -1.633181 l 0.345105,-0.466775 0.345101,-0.466776 v -0.604911 -0.604912 l -0.316366,-0.432741 -0.316366,-0.43274 -0.577807,-0.287149 -0.577808,-0.287141 -0.439861,0.182192 -0.439859,0.182197 -0.41799,0.436286 -0.417985,0.436282 -0.08548,0.637304 -0.08547,0.637299 0.407789,0.616215 0.407795,0.616218 0.0021,8.254075 0.0021,8.254082 1.31499,1.451093 1.314989,1.451098 v 0.339281 0.339278 l -2.169253,2.312578 -2.169214,2.31263 v 2.133481 2.13348 H 15.18302 12.624828 L 11.017371,54.42034 9.4099157,52.390029 9.3101479,51.637942 9.21038,50.885857 8.7959833,50.393373 8.3815865,49.900889 7.8649698,49.685028 7.348349,49.469175 l -0.5395366,0.256022 -0.5395365,0.256031 -0.2965365,0.416444 -0.2965322,0.416445 -0.099049,0.39464 -0.099048,0.39464 0.2266148,0.542363 0.2266146,0.542363 0.3637168,0.338856 0.3637209,0.338859 0.6452387,0.162475 0.645243,0.16247 1.9838374,2.464546 1.9838336,2.464545 h 2.912144 2.912143 v 0.765573 0.765581 l -0.171077,0.105727 -0.171074,0.105732 -0.277468,0.619735 -0.277466,0.619748 0.134957,0.470555 0.134956,0.470565 0.352321,0.382302 0.352325,0.382307 0.448066,0.19241 0.448065,0.192409 0.326655,-0.08079 0.32665,-0.08078 z m -5.320539,-14.645168 0.356021,-0.2247 0.301908,-0.495148 0.301913,-0.495148 4.26e-4,-0.467602 4.26e-4,-0.467602 -0.387361,-0.570048 -0.38736,-0.570048 v -3.18457 -3.18457 h -1.781901 -1.781854 v -2.082597 -2.082597 l 0.157157,-0.09712 0.157161,-0.09713 0.324288,-0.63566 0.324288,-0.63566 L 11.867544,32.732343 11.69407,32.153335 11.148293,31.674137 10.60243,31.194936 H 10.086413 9.5703974 l -0.4113487,0.323569 -0.411353,0.323564 -0.2463375,0.476367 -0.2463376,0.476366 0.081786,0.60979 0.08179,0.609786 0.3225896,0.343382 0.3225895,0.34338 v 2.120493 2.120485 H 6.6664742 4.2691764 l -0.2473506,0.89093 -0.247355,0.890924 -0.061999,0.19368 -0.061999,0.19368 h 4.4110324 4.4110318 v 2.10656 2.106559 l -0.348382,0.488748 -0.348384,0.488748 -3.1e-4,0.647149 -3.11e-4,0.64715 0.320904,0.437458 0.320899,0.437456 0.52967,0.269812 0.529668,0.269815 0.311509,-0.09227 0.311508,-0.09226 0.356019,-0.224699 z m 24.901395,-13.446235 0.533933,-0.22309 0.312701,-0.512892 0.3127,-0.512888 8.52e-4,-0.569152 8.52e-4,-0.569152 -0.418859,-0.497788 -0.418862,-0.497784 -0.505825,-0.211349 -0.505825,-0.211349 H 38.34127 38.013571 l -1.304236,-1.187214 -1.304188,-1.187215 v -2.27994 -2.279936 l -0.735982,-0.311231 -0.735982,-0.311232 -0.348626,-0.105651 -0.348621,-0.105651 v 2.933544 2.933535 l 1.757981,1.703026 1.757977,1.703023 0.0973,0.599599 0.0973,0.599595 0.286209,0.390991 0.286213,0.390995 0.531287,0.27091 0.53129,0.270914 0.121185,3.1e-4 0.121185,3.06e-4 0.533935,-0.223089 z m 52.834231,46.163543 -0.154941,-0.05341 -0.888723,-0.100207 -0.888729,-0.100197 -0.04093,-26.058414 -0.04093,-26.05841 -0.562237,-1.16208 -0.56223,-1.162077 -0.830881,-0.823455 -0.830882,-0.823451 -1.155421,-0.571043 -1.155423,-0.571038 H 69.414801 53.74941 l -1.156641,0.571642 -1.156641,0.571644 -0.868184,0.875122 -0.868179,0.875124 -0.356518,0.761183 -0.356518,0.761183 -0.322138,-5e-6 H 48.342452 L 47.603929,27.253154 46.865406,26.25534 46.09983,25.664987 45.334249,25.07463 l -0.0066,-0.277325 -0.0066,-0.277324 0.3099,-0.607444 0.309895,-0.60745 0.735973,-0.747161 0.735973,-0.74716 0.697247,-0.471233 0.697243,-0.471236 0.852194,-0.335671 0.85219,-0.335672 1.084603,-0.153402 1.084611,-0.153398 16.245077,-0.003 16.245094,-0.003 2.34816,0.482029 2.348166,0.482024 0.542303,0.40395 0.542301,0.403949 0.811697,0.820093 0.811702,0.820088 0.421608,0.811769 0.421613,0.811774 0.28271,0.852191 0.282717,0.852189 0.03343,27.386315 0.03345,27.386302 -0.852193,-0.01226 -0.852192,-0.01226 -0.154941,-0.05341 z m 2.556574,-24.929409 v -9.977715 l 4.255654,-5.291012 4.25565,-5.291012 -0.69195,-0.939941 -0.69194,-0.939944 v -0.494267 -0.494267 l 0.18593,-0.185935 0.18593,-0.18593 h 0.6557 0.65568 l 1.21139,0.439684 1.21138,0.439683 0.58025,-0.246005 0.58024,-0.246002 -0.005,-0.464834 -0.005,-0.46483 -0.29937,-0.619778 -0.29937,-0.619772 -0.005,-0.560149 -0.005,-0.560137 0.31661,-0.402502 0.31659,-0.40249 0.5255,-0.09858 0.52549,-0.09858 0.54342,0.179344 0.54342,0.179349 0.19329,0.436673 0.1933,0.436678 0.26683,-0.329519 0.26682,-0.32952 h 0.84962 0.84961 l 0.32616,0.295162 0.32615,0.295165 v 0.822144 0.82214 l -0.30839,0.287307 -0.30839,0.287307 -0.31139,0.905062 -0.31138,0.905059 v 0.03193 0.03197 l 1.02105,0.502662 1.02104,0.502658 0.43628,0.687937 0.43627,0.687923 0.17885,1.027039 0.17886,1.027041 0.20737,0.496318 0.20738,0.496326 1.09367,1.337958 1.09368,1.337953 0.16079,0.578943 0.16078,0.578939 9.7e-4,0.714918 9.6e-4,0.714923 -0.71887,0.09854 -0.71887,0.09853 h -0.75973 -0.75974 l -0.75588,-0.707036 -0.75587,-0.707034 -1.50041,-0.209563 -1.50041,-0.209562 -0.74519,-0.463238 -0.7452,-0.463239 -0.29883,-0.09485 -0.29882,-0.09484 -0.3789,0.298049 -0.37891,0.298048 -5.87486,11.945224 -5.875013,11.945221 h -0.355691 -0.355684 z m 14.872234,-25.087457 -0.002,-0.339481 -0.1502,0.232421 -0.1502,0.232412 -0.003,0.202827 -0.002,0.202822 0.15494,-0.09577 0.15495,-0.09576 -0.002,-0.339481 z m -41.367615,21.333506 -0.542307,-0.05858 -0.929661,-0.172346 -0.929664,-0.172341 -1.461503,-0.696933 -1.461513,-0.69694 -1.257255,-1.261074 -1.257264,-1.26107 -0.710371,-1.471971 -0.710371,-1.471966 -0.196181,-0.929662 -0.196178,-0.929662 v -1.549436 -1.549436 l 0.196178,-0.929662 0.196181,-0.92966 0.712521,-1.471972 0.712525,-1.471964 1.167181,-1.17681 1.167177,-1.176815 1.082653,-0.600207 1.082644,-0.600209 1.241509,-0.367914 1.241509,-0.36791 h 1.859323 1.859324 l 1.241509,0.36791 1.24151,0.367914 1.082647,0.600209 1.082648,0.600207 1.189219,1.198819 1.189225,1.198824 0.689221,1.449958 0.68922,1.44996 0.19744,0.92966 0.197434,0.929662 v 1.549436 1.549436 l -0.197434,0.929662 -0.19744,0.929662 -0.694842,1.461511 -0.694837,1.461508 -1.271532,1.271533 -1.271534,1.271529 -1.461505,0.694842 -1.461512,0.694837 -0.85219,0.165765 -0.85219,0.165765 -1.084607,0.06725 -1.084603,0.06725 z m 27.350022,-32.142239 -1.844944,-1.884675 -0.947125,0.334365 -0.947126,0.334365 -1.075561,0.08327 -1.075556,0.08327 L 87.223263,18.912329 84.734093,18.3808 83.890668,17.841263 83.047243,17.301731 82.091539,16.258749 81.135833,15.215767 80.523328,13.94746 79.910822,12.679157 79.744408,11.904436 79.577982,11.129715 79.473673,10.432467 79.369357,9.7352198 79.001608,9.2971838 78.633867,8.8591481 78.539642,8.4837288 78.445417,8.1083137 H 77.764969 77.08452 V 7.7558398 7.4033659 l 0.735982,-0.7885986 0.735982,-0.7885986 0.309884,-0.524573 0.309889,-0.524573 0.69725,-0.3599281 0.697243,-0.3599322 0.962236,0.070441 0.962228,0.070441 0.66685,0.3908001 0.666852,0.3907999 0.787826,0.8330122 0.787832,0.8330165 0.408612,0.6472821 0.408612,0.647282 0.660714,0.1715925 0.660707,0.1715883 0.852192,0.3096737 0.852192,0.309678 1.007133,0.5488261 1.007133,0.5488252 1.007134,0.748047 1.007133,0.748042 0.786357,0.823737 0.786363,0.82374 0.431967,0.542303 0.43196,0.542304 2.384123,2.503686 2.384114,2.503689 v 0.55645 0.556454 h -0.922257 -0.922281 l -0.04615,0.968394 -0.04615,0.968399 -0.548277,0.04613 -0.548277,0.04613 z"
   id="path463"
   inkscape:export-filename="ppsn2024-logo-v6.png"
   inkscape:export-xdpi="461.67001"
   inkscape:export-ydpi="461.67001" /><g
   aria-label="CamTraps
2024"
   id="text747"
   style="font-size:40px;line-height:0.95;fill:#ffffff"><path
     d="m 152.71938,50.239532 q -3.24219,0 -5.9961,-0.957031 -2.73437,-0.957031 -4.70703,-2.851562 -1.97266,-1.894532 -3.06641,-4.726563 -1.07421,-2.832031 -1.07421,-6.542969 0,-3.457031 1.03515,-6.269531 1.03516,-2.8125 3.00781,-4.824219 1.89454,-1.933593 4.6875,-2.988281 2.8125,-1.054687 6.13282,-1.054687 1.83593,0 3.30078,0.214843 1.48437,0.195313 2.73437,0.527344 1.3086,0.371094 2.36328,0.839844 1.07422,0.449219 1.875,0.839844 v 7.050781 h -0.85937 q -0.54688,-0.46875 -1.38672,-1.113281 -0.82031,-0.644532 -1.875,-1.269532 -1.07422,-0.625 -2.32422,-1.054687 -1.25,-0.429688 -2.67578,-0.429688 -1.58203,0 -3.00781,0.507813 -1.42578,0.488281 -2.63672,1.640625 -1.15234,1.113281 -1.875,2.949219 -0.70313,1.835937 -0.70313,4.453125 0,2.734375 0.76172,4.570312 0.78125,1.835938 1.95313,2.890625 1.1914,1.074219 2.65625,1.542969 1.46484,0.449219 2.89062,0.449219 1.36719,0 2.69532,-0.410157 1.34765,-0.410156 2.48046,-1.113281 0.95704,-0.566406 1.77735,-1.210937 0.82031,-0.644532 1.34765,-1.113282 h 0.78125 v 6.953125 q -1.09375,0.488282 -2.08984,0.917969 -0.99609,0.429688 -2.08984,0.742188 -1.42578,0.410156 -2.67578,0.625 -1.25,0.214843 -3.4375,0.214843 z"
     style="font-weight:bold;-inkscape-font-specification:'sans-serif Bold';fill:#ffffff"
     id="path861" /><path
     d="m 181.41078,43.95047 v -4.570313 q -1.42578,0.117188 -3.08594,0.332032 -1.66015,0.195312 -2.51953,0.46875 -1.05468,0.332031 -1.62109,0.976562 -0.54688,0.625 -0.54688,1.660156 0,0.683594 0.11719,1.113282 0.11719,0.429687 0.58594,0.820312 0.44922,0.390625 1.07422,0.585938 0.625,0.175781 1.95312,0.175781 1.05469,0 2.12891,-0.429688 1.09375,-0.429687 1.91406,-1.132812 z m 0,3.398437 q -0.5664,0.429688 -1.40625,1.035157 -0.83984,0.605468 -1.58203,0.957031 -1.03516,0.46875 -2.14844,0.683594 -1.11328,0.234375 -2.4414,0.234375 -3.125,0 -5.23438,-1.933594 -2.10937,-1.933594 -2.10937,-4.941406 0,-2.402344 1.07422,-3.925782 1.07421,-1.523437 3.04687,-2.402343 1.95313,-0.878907 4.84375,-1.25 2.89063,-0.371094 5.99609,-0.546875 v -0.117188 q 0,-1.816406 -1.48437,-2.5 -1.48438,-0.703125 -4.375,-0.703125 -1.73828,0 -3.71094,0.625 -1.97265,0.605469 -2.83203,0.9375 h -0.64453 v -5.292969 q 1.11328,-0.292968 3.61328,-0.683593 2.51953,-0.410157 5.03906,-0.410157 5.9961,0 8.65235,1.855469 2.67578,1.835938 2.67578,5.78125 v 14.921875 h -6.97266 z"
     style="font-weight:bold;-inkscape-font-specification:'sans-serif Bold';fill:#ffffff"
     id="path863" /><path
     d="m 216.29359,34.126251 v 15.546875 h -7.07031 V 38.716095 q 0,-1.601563 -0.0781,-2.714844 -0.0781,-1.132812 -0.42969,-1.835937 -0.35156,-0.703125 -1.07422,-1.015625 -0.70312,-0.332032 -1.99219,-0.332032 -1.03515,0 -2.01172,0.429688 -0.97656,0.410156 -1.75781,0.878906 v 15.546875 h -7.03125 V 27.739532 h 7.03125 v 2.421875 q 1.81641,-1.425781 3.47656,-2.226562 1.66016,-0.800781 3.67188,-0.800781 2.16797,0 3.82812,0.976562 1.66016,0.957031 2.59766,2.832031 2.10938,-1.777343 4.10156,-2.792968 1.99219,-1.015625 3.90625,-1.015625 3.55469,0 5.39063,2.128906 1.85547,2.128906 1.85547,6.132812 v 14.277344 h -7.07032 V 38.716095 q 0,-1.621094 -0.0781,-2.734375 -0.0586,-1.113281 -0.41016,-1.816406 -0.33203,-0.703125 -1.05468,-1.015625 -0.72266,-0.332032 -2.03125,-0.332032 -0.87891,0 -1.71875,0.3125 -0.83985,0.292969 -2.05079,0.996094 z"
     style="font-weight:bold;-inkscape-font-specification:'sans-serif Bold';fill:#ffffff"
     id="path865" /><path
     d="M 260.31703,26.216095 H 251.235 v 23.457031 h -7.5 V 26.216095 h -9.08203 v -5.625 h 25.66406 z"
     style="font-weight:bold;-inkscape-font-specification:'sans-serif Bold';fill:#ffffff"
     id="path867" /><path
     d="m 280.33656,34.438751 h -0.625 q -0.44922,-0.15625 -1.44531,-0.234375 -0.99609,-0.07813 -1.66016,-0.07813 -1.5039,0 -2.65625,0.195313 -1.15234,0.195312 -2.48046,0.664062 v 14.6875 h -7.03125 V 27.739532 h 7.03125 v 3.222657 q 2.32421,-1.992188 4.04296,-2.636719 1.71875,-0.664063 3.16407,-0.664063 0.37109,0 0.83984,0.01953 0.46875,0.01953 0.82031,0.05859 z"
     style="font-weight:bold;-inkscape-font-specification:'sans-serif Bold';fill:#ffffff"
     id="path869" /><path
     d="m 297.60219,43.95047 v -4.570313 q -1.42578,0.117188 -3.08594,0.332032 -1.66016,0.195312 -2.51953,0.46875 -1.05469,0.332031 -1.62109,0.976562 -0.54688,0.625 -0.54688,1.660156 0,0.683594 0.11719,1.113282 0.11719,0.429687 0.58594,0.820312 0.44921,0.390625 1.07421,0.585938 0.625,0.175781 1.95313,0.175781 1.05469,0 2.12891,-0.429688 1.09375,-0.429687 1.91406,-1.132812 z m 0,3.398437 q -0.56641,0.429688 -1.40625,1.035157 -0.83985,0.605468 -1.58203,0.957031 -1.03516,0.46875 -2.14844,0.683594 -1.11328,0.234375 -2.44141,0.234375 -3.125,0 -5.23437,-1.933594 -2.10938,-1.933594 -2.10938,-4.941406 0,-2.402344 1.07422,-3.925782 1.07422,-1.523437 3.04688,-2.402343 1.95312,-0.878907 4.84375,-1.25 2.89062,-0.371094 5.99609,-0.546875 v -0.117188 q 0,-1.816406 -1.48437,-2.5 -1.48438,-0.703125 -4.375,-0.703125 -1.73829,0 -3.71094,0.625 -1.97266,0.605469 -2.83203,0.9375 h -0.64453 v -5.292969 q 1.11328,-0.292968 3.61328,-0.683593 2.51953,-0.410157 5.03906,-0.410157 5.99609,0 8.65234,1.855469 2.67578,1.835938 2.67578,5.78125 v 14.921875 h -6.97265 z"
     style="font-weight:bold;-inkscape-font-specification:'sans-serif Bold';fill:#ffffff"
     id="path871" /><path
     d="m 333.93031,38.403595 q 0,2.714844 -0.83984,4.941406 -0.82031,2.226563 -2.16797,3.671875 -1.40625,1.523438 -3.18359,2.304688 -1.77735,0.78125 -3.8086,0.78125 -1.875,0 -3.18359,-0.410157 -1.30859,-0.390625 -2.67578,-1.113281 v 9.140625 h -7.03125 V 27.739532 h 7.03125 v 2.285157 q 1.62109,-1.289063 3.30078,-2.089844 1.69922,-0.800781 3.90625,-0.800781 4.10156,0 6.36719,3.007812 2.28515,3.007813 2.28515,8.261719 z m -7.24609,0.136719 q 0,-3.203125 -1.09375,-4.648438 -1.09375,-1.445312 -3.45703,-1.445312 -0.9961,0 -2.05078,0.3125 -1.05469,0.292968 -2.01172,0.859375 v 11.035156 q 0.70312,0.273437 1.5039,0.351562 0.80079,0.07813 1.58204,0.07813 2.79296,0 4.16015,-1.621093 1.36719,-1.640625 1.36719,-4.921875 z"
     style="font-weight:bold;-inkscape-font-specification:'sans-serif Bold';fill:#ffffff"
     id="path873" /><path
     d="m 358.07094,42.720001 q 0,3.398438 -3.04688,5.488281 -3.04687,2.070313 -8.33984,2.070313 -2.92969,0 -5.3125,-0.546875 -2.38281,-0.546875 -3.82813,-1.210938 v -5.78125 h 0.64454 q 0.52734,0.371094 1.21093,0.820313 0.70313,0.429687 1.97266,0.9375 1.09375,0.449219 2.48047,0.78125 1.38672,0.3125 2.96875,0.3125 2.07031,0 3.0664,-0.449219 0.9961,-0.46875 0.9961,-1.367187 0,-0.800782 -0.58594,-1.152344 -0.58594,-0.371094 -2.22656,-0.703125 -0.78125,-0.175781 -2.12891,-0.371094 -1.32812,-0.214844 -2.42187,-0.507812 -2.98828,-0.78125 -4.4336,-2.421875 -1.44531,-1.660157 -1.44531,-4.121094 0,-3.164063 2.98828,-5.253906 3.00781,-2.109375 8.20313,-2.109375 2.46093,0 4.70703,0.507812 2.26562,0.488281 3.53515,1.054688 v 5.546875 h -0.60546 q -1.5625,-1.074219 -3.57422,-1.738282 -1.99219,-0.683593 -4.04297,-0.683593 -1.69922,0 -2.8711,0.46875 -1.15234,0.46875 -1.15234,1.328125 0,0.78125 0.52734,1.191406 0.52735,0.410156 2.48047,0.820312 1.07422,0.214844 2.30469,0.429688 1.25,0.195312 2.5,0.507812 2.77344,0.722657 4.10156,2.285157 1.32813,1.542968 1.32813,3.867187 z"
     style="font-weight:bold;-inkscape-font-specification:'sans-serif Bold';fill:#ffffff"
     id="path875" /><path
     d="m 162.30922,87.673126 h -22.83203 v -4.804688 q 2.61719,-1.894531 5.23437,-4.023437 2.63672,-2.128907 4.21875,-3.671875 2.36328,-2.285157 3.35938,-3.984375 0.99609,-1.699219 0.99609,-3.359375 0,-1.992188 -1.28906,-3.066407 -1.26953,-1.09375 -3.67188,-1.09375 -1.79687,0 -3.78906,0.742188 -1.97265,0.742187 -3.67187,1.894531 h -0.625 v -6.464844 q 1.38672,-0.605468 4.08203,-1.210937 2.71484,-0.605469 5.42969,-0.605469 5.46875,0 8.33984,2.304688 2.87109,2.285156 2.87109,6.484375 0,2.753906 -1.38672,5.234375 -1.36718,2.480468 -4.19921,5.117187 -1.77735,1.640625 -3.57422,3.027344 -1.79688,1.367187 -2.5586,1.914062 h 13.06641 z"
     style="font-weight:bold;-inkscape-font-specification:'sans-serif Bold';fill:#ffffff"
     id="path877" /><path
     d="m 190.55141,73.122344 q 0,3.671875 -0.66407,6.582032 -0.66406,2.890625 -2.07031,4.746093 -1.44531,1.894532 -3.71094,2.871094 -2.26562,0.957031 -5.58593,0.957031 -3.26172,0 -5.56641,-0.976562 -2.30469,-0.976563 -3.73047,-2.890625 -1.44531,-1.914063 -2.08984,-4.746094 -0.64453,-2.851562 -0.64453,-6.523437 0,-3.789063 0.66406,-6.582032 0.66406,-2.792968 2.10937,-4.726562 1.44532,-1.914063 3.75,-2.871094 2.30469,-0.957031 5.50782,-0.957031 3.33984,0 5.60547,0.996094 2.26562,0.976562 3.71093,2.929687 1.42578,1.914063 2.07032,4.726563 0.64453,2.792968 0.64453,6.464843 z m -7.5586,0 q 0,-5.273437 -1.03515,-7.5 -1.03516,-2.246093 -3.4375,-2.246093 -2.40235,0 -3.4375,2.246093 -1.03516,2.226563 -1.03516,7.539063 0,5.175781 1.05469,7.460937 1.05469,2.285157 3.41797,2.285157 2.36328,0 3.41797,-2.285157 1.05468,-2.285156 1.05468,-7.5 z"
     style="font-weight:bold;-inkscape-font-specification:'sans-serif Bold';fill:#ffffff"
     id="path879" /><path
     d="m 219.18422,87.673126 h -22.83203 v -4.804688 q 2.61719,-1.894531 5.23437,-4.023437 2.63672,-2.128907 4.21875,-3.671875 2.36328,-2.285157 3.35938,-3.984375 0.99609,-1.699219 0.99609,-3.359375 0,-1.992188 -1.28906,-3.066407 -1.26953,-1.09375 -3.67188,-1.09375 -1.79687,0 -3.78906,0.742188 -1.97265,0.742187 -3.67187,1.894531 h -0.625 v -6.464844 q 1.38672,-0.605468 4.08203,-1.210937 2.71484,-0.605469 5.42969,-0.605469 5.46875,0 8.33984,2.304688 2.87109,2.285156 2.87109,6.484375 0,2.753906 -1.38672,5.234375 -1.36718,2.480468 -4.19921,5.117187 -1.77735,1.640625 -3.57422,3.027344 -1.79688,1.367187 -2.5586,1.914062 h 13.06641 z"
     style="font-weight:bold;-inkscape-font-specification:'sans-serif Bold';fill:#ffffff"
     id="path881" /><path
     d="m 248.03188,80.973907 h -3.96485 v 6.777344 h -7.16797 v -6.777344 h -14.08203 v -5.507813 l 13.61328,-16.875 h 7.63672 v 17.070313 h 3.96485 z m -11.13282,-5.3125 V 65.153594 l -8.45703,10.507813 z"
     style="font-weight:bold;-inkscape-font-specification:'sans-serif Bold';fill:#ffffff"
     id="path883" /></g></g>





</svg>
